solid OpenSCAD_Model
  facet normal 0 -1 0
    outer loop
      vertex -3.475 -6.01888 -6
      vertex 3.475 -6.01888 0
      vertex -3.475 -6.01888 0
    endloop
  endfacet
  facet normal 0 -1 -0
    outer loop
      vertex 3.475 -6.01888 0
      vertex -3.475 -6.01888 -6
      vertex 3.475 -6.01888 -6
    endloop
  endfacet
  facet normal 0.866025 -0.5 0
    outer loop
      vertex 3.475 -6.01888 0
      vertex 6.95 0 -6
      vertex 6.95 0 0
    endloop
  endfacet
  facet normal 0.866025 -0.5 0
    outer loop
      vertex 6.95 0 -6
      vertex 3.475 -6.01888 0
      vertex 3.475 -6.01888 -6
    endloop
  endfacet
  facet normal 0 1 -0
    outer loop
      vertex 3.475 6.01888 -6
      vertex -3.475 6.01888 0
      vertex 3.475 6.01888 0
    endloop
  endfacet
  facet normal 0 1 0
    outer loop
      vertex -3.475 6.01888 0
      vertex 3.475 6.01888 -6
      vertex -3.475 6.01888 -6
    endloop
  endfacet
  facet normal 0.866025 0.5 0
    outer loop
      vertex 6.95 0 0
      vertex 3.475 6.01888 -6
      vertex 3.475 6.01888 0
    endloop
  endfacet
  facet normal 0.866025 0.5 0
    outer loop
      vertex 3.475 6.01888 -6
      vertex 6.95 0 0
      vertex 6.95 0 -6
    endloop
  endfacet
  facet normal -0.866025 0.5 0
    outer loop
      vertex -6.95 0 -6
      vertex -3.475 6.01888 0
      vertex -3.475 6.01888 -6
    endloop
  endfacet
  facet normal -0.866025 0.5 0
    outer loop
      vertex -3.475 6.01888 0
      vertex -6.95 0 -6
      vertex -6.95 0 0
    endloop
  endfacet
  facet normal -0.866025 -0.5 0
    outer loop
      vertex -3.475 -6.01888 -6
      vertex -6.95 0 0
      vertex -6.95 0 -6
    endloop
  endfacet
  facet normal -0.866025 -0.5 0
    outer loop
      vertex -6.95 0 0
      vertex -3.475 -6.01888 -6
      vertex -3.475 -6.01888 0
    endloop
  endfacet
  facet normal 0 0 1
    outer loop
      vertex 6.95 0 0
      vertex 3.91885 0.495066 0
      vertex 3.95 0 0
    endloop
  endfacet
  facet normal 0 0 1
    outer loop
      vertex 6.95 0 0
      vertex 3.8259 0.982325 0
      vertex 3.91885 0.495066 0
    endloop
  endfacet
  facet normal 0 0 1
    outer loop
      vertex 6.95 0 0
      vertex 3.67262 1.45409 0
      vertex 3.8259 0.982325 0
    endloop
  endfacet
  facet normal -0 0 1
    outer loop
      vertex 3.46141 1.90293 0
      vertex 6.95 0 0
      vertex 3.475 6.01888 0
    endloop
  endfacet
  facet normal 0 0 1
    outer loop
      vertex 6.95 0 0
      vertex 3.46141 1.90293 0
      vertex 3.67262 1.45409 0
    endloop
  endfacet
  facet normal 0 0 1
    outer loop
      vertex 3.475 6.01888 0
      vertex 3.19562 2.32175 0
      vertex 3.46141 1.90293 0
    endloop
  endfacet
  facet normal 0 0 1
    outer loop
      vertex 3.475 6.01888 0
      vertex 2.87943 2.70396 0
      vertex 3.19562 2.32175 0
    endloop
  endfacet
  facet normal 0 0 1
    outer loop
      vertex 3.475 6.01888 0
      vertex 2.51782 3.04353 0
      vertex 2.87943 2.70396 0
    endloop
  endfacet
  facet normal 0 0 1
    outer loop
      vertex 3.475 6.01888 0
      vertex 2.11652 3.33509 0
      vertex 2.51782 3.04353 0
    endloop
  endfacet
  facet normal 0 0 1
    outer loop
      vertex 3.475 6.01888 0
      vertex 1.68183 3.57407 0
      vertex 2.11652 3.33509 0
    endloop
  endfacet
  facet normal 0 0 1
    outer loop
      vertex 3.475 6.01888 0
      vertex 1.22062 3.75667 0
      vertex 1.68183 3.57407 0
    endloop
  endfacet
  facet normal 0 0 1
    outer loop
      vertex 3.475 6.01888 0
      vertex 0.740156 3.88003 0
      vertex 1.22062 3.75667 0
    endloop
  endfacet
  facet normal 0 0 1
    outer loop
      vertex 3.475 6.01888 0
      vertex 0.248022 3.94221 0
      vertex 0.740156 3.88003 0
    endloop
  endfacet
  facet normal 0 0 1
    outer loop
      vertex 3.475 6.01888 0
      vertex -0.248022 3.94221 0
      vertex 0.248022 3.94221 0
    endloop
  endfacet
  facet normal -0 0 1
    outer loop
      vertex -3.475 6.01888 0
      vertex -0.248022 3.94221 0
      vertex 3.475 6.01888 0
    endloop
  endfacet
  facet normal 0 0 1
    outer loop
      vertex -0.248022 3.94221 0
      vertex -3.475 6.01888 0
      vertex -0.740156 3.88003 0
    endloop
  endfacet
  facet normal 0 0 1
    outer loop
      vertex -0.740156 3.88003 0
      vertex -3.475 6.01888 0
      vertex -1.22062 3.75667 0
    endloop
  endfacet
  facet normal 0 0 1
    outer loop
      vertex -1.22062 3.75667 0
      vertex -3.475 6.01888 0
      vertex -1.68183 3.57407 0
    endloop
  endfacet
  facet normal 0 0 1
    outer loop
      vertex -3.475 6.01888 0
      vertex -2.11652 3.33509 0
      vertex -1.68183 3.57407 0
    endloop
  endfacet
  facet normal 0 0 1
    outer loop
      vertex -3.475 6.01888 0
      vertex -2.51782 3.04353 0
      vertex -2.11652 3.33509 0
    endloop
  endfacet
  facet normal 0 0 1
    outer loop
      vertex -3.475 6.01888 0
      vertex -2.87943 2.70396 0
      vertex -2.51782 3.04353 0
    endloop
  endfacet
  facet normal 0 0 1
    outer loop
      vertex -3.475 6.01888 0
      vertex -3.19562 2.32175 0
      vertex -2.87943 2.70396 0
    endloop
  endfacet
  facet normal 0 0 1
    outer loop
      vertex -3.475 6.01888 0
      vertex -3.46141 1.90293 0
      vertex -3.19562 2.32175 0
    endloop
  endfacet
  facet normal 0 0 1
    outer loop
      vertex -6.95 0 0
      vertex -3.46141 1.90293 0
      vertex -3.475 6.01888 0
    endloop
  endfacet
  facet normal 0 0 1
    outer loop
      vertex -3.46141 1.90293 0
      vertex -6.95 0 0
      vertex -3.67262 1.45409 0
    endloop
  endfacet
  facet normal 0 0 1
    outer loop
      vertex -3.67262 1.45409 0
      vertex -6.95 0 0
      vertex -3.8259 0.982325 0
    endloop
  endfacet
  facet normal 0 0 1
    outer loop
      vertex -3.91885 0.495066 0
      vertex -6.95 0 0
      vertex -3.95 0 0
    endloop
  endfacet
  facet normal 0 0 1
    outer loop
      vertex -3.8259 0.982325 0
      vertex -6.95 0 0
      vertex -3.91885 0.495066 0
    endloop
  endfacet
  facet normal 0 0 1
    outer loop
      vertex 3.91885 -0.495066 0
      vertex 6.95 0 0
      vertex 3.95 0 0
    endloop
  endfacet
  facet normal 0 0 1
    outer loop
      vertex 3.8259 -0.982325 0
      vertex 6.95 0 0
      vertex 3.91885 -0.495066 0
    endloop
  endfacet
  facet normal 0 0 1
    outer loop
      vertex 3.67262 -1.45409 0
      vertex 6.95 0 0
      vertex 3.8259 -0.982325 0
    endloop
  endfacet
  facet normal 0 0 1
    outer loop
      vertex 3.46141 -1.90293 0
      vertex 6.95 0 0
      vertex 3.67262 -1.45409 0
    endloop
  endfacet
  facet normal 0 0 1
    outer loop
      vertex 6.95 0 0
      vertex 3.46141 -1.90293 0
      vertex 3.475 -6.01888 0
    endloop
  endfacet
  facet normal -0 0 1
    outer loop
      vertex 3.19562 -2.32175 0
      vertex 3.475 -6.01888 0
      vertex 3.46141 -1.90293 0
    endloop
  endfacet
  facet normal -0 0 1
    outer loop
      vertex 2.87943 -2.70396 0
      vertex 3.475 -6.01888 0
      vertex 3.19562 -2.32175 0
    endloop
  endfacet
  facet normal -0 0 1
    outer loop
      vertex 2.51782 -3.04353 0
      vertex 3.475 -6.01888 0
      vertex 2.87943 -2.70396 0
    endloop
  endfacet
  facet normal -0 0 1
    outer loop
      vertex 2.11652 -3.33509 0
      vertex 3.475 -6.01888 0
      vertex 2.51782 -3.04353 0
    endloop
  endfacet
  facet normal -0 0 1
    outer loop
      vertex 1.68183 -3.57407 0
      vertex 3.475 -6.01888 0
      vertex 2.11652 -3.33509 0
    endloop
  endfacet
  facet normal -0 0 1
    outer loop
      vertex 1.22062 -3.75667 0
      vertex 3.475 -6.01888 0
      vertex 1.68183 -3.57407 0
    endloop
  endfacet
  facet normal -0 0 1
    outer loop
      vertex 0.740156 -3.88003 0
      vertex 3.475 -6.01888 0
      vertex 1.22062 -3.75667 0
    endloop
  endfacet
  facet normal -0 0 1
    outer loop
      vertex 0.248022 -3.94221 0
      vertex 3.475 -6.01888 0
      vertex 0.740156 -3.88003 0
    endloop
  endfacet
  facet normal -0 0 1
    outer loop
      vertex -0.248022 -3.94221 0
      vertex 3.475 -6.01888 0
      vertex 0.248022 -3.94221 0
    endloop
  endfacet
  facet normal 0 0 1
    outer loop
      vertex -3.475 -6.01888 0
      vertex -0.248022 -3.94221 0
      vertex -0.740156 -3.88003 0
    endloop
  endfacet
  facet normal 0 0 1
    outer loop
      vertex -3.475 -6.01888 0
      vertex -0.740156 -3.88003 0
      vertex -1.22062 -3.75667 0
    endloop
  endfacet
  facet normal 0 0 1
    outer loop
      vertex -3.475 -6.01888 0
      vertex -1.22062 -3.75667 0
      vertex -1.68183 -3.57407 0
    endloop
  endfacet
  facet normal 0 0 1
    outer loop
      vertex -0.248022 -3.94221 0
      vertex -3.475 -6.01888 0
      vertex 3.475 -6.01888 0
    endloop
  endfacet
  facet normal 0 0 1
    outer loop
      vertex -2.11652 -3.33509 0
      vertex -3.475 -6.01888 0
      vertex -1.68183 -3.57407 0
    endloop
  endfacet
  facet normal 0 0 1
    outer loop
      vertex -2.51782 -3.04353 0
      vertex -3.475 -6.01888 0
      vertex -2.11652 -3.33509 0
    endloop
  endfacet
  facet normal 0 0 1
    outer loop
      vertex -2.87943 -2.70396 0
      vertex -3.475 -6.01888 0
      vertex -2.51782 -3.04353 0
    endloop
  endfacet
  facet normal 0 0 1
    outer loop
      vertex -3.19562 -2.32175 0
      vertex -3.475 -6.01888 0
      vertex -2.87943 -2.70396 0
    endloop
  endfacet
  facet normal 0 0 1
    outer loop
      vertex -3.46141 -1.90293 0
      vertex -3.475 -6.01888 0
      vertex -3.19562 -2.32175 0
    endloop
  endfacet
  facet normal 0 0 1
    outer loop
      vertex -6.95 0 0
      vertex -3.46141 -1.90293 0
      vertex -3.67262 -1.45409 0
    endloop
  endfacet
  facet normal 0 0 1
    outer loop
      vertex -6.95 0 0
      vertex -3.67262 -1.45409 0
      vertex -3.8259 -0.982325 0
    endloop
  endfacet
  facet normal 0 0 1
    outer loop
      vertex -6.95 0 0
      vertex -3.8259 -0.982325 0
      vertex -3.91885 -0.495066 0
    endloop
  endfacet
  facet normal 0 0 1
    outer loop
      vertex -3.46141 -1.90293 0
      vertex -6.95 0 0
      vertex -3.475 -6.01888 0
    endloop
  endfacet
  facet normal -0 0 1
    outer loop
      vertex -6.95 0 0
      vertex -3.91885 -0.495066 0
      vertex -3.95 0 0
    endloop
  endfacet
  facet normal 0 0 -1
    outer loop
      vertex 3.475 -6.01888 -6
      vertex 3.5 0 -6
      vertex 6.95 0 -6
    endloop
  endfacet
  facet normal 0 0 -1
    outer loop
      vertex 3.475 -6.01888 -6
      vertex 1.75 -3.03109 -6
      vertex 3.5 0 -6
    endloop
  endfacet
  facet normal 0 0 -1
    outer loop
      vertex 3.475 -6.01888 -6
      vertex -1.75 -3.03109 -6
      vertex 1.75 -3.03109 -6
    endloop
  endfacet
  facet normal 0 0 -1
    outer loop
      vertex -3.475 -6.01888 -6
      vertex -1.75 -3.03109 -6
      vertex 3.475 -6.01888 -6
    endloop
  endfacet
  facet normal 0 0 -1
    outer loop
      vertex -3.475 -6.01888 -6
      vertex -3.5 0 -6
      vertex -1.75 -3.03109 -6
    endloop
  endfacet
  facet normal -0 -0 -1
    outer loop
      vertex -3.5 0 -6
      vertex -3.475 -6.01888 -6
      vertex -6.95 0 -6
    endloop
  endfacet
  facet normal 0 0 -1
    outer loop
      vertex 3.5 0 -6
      vertex 3.475 6.01888 -6
      vertex 6.95 0 -6
    endloop
  endfacet
  facet normal 0 0 -1
    outer loop
      vertex 1.75 3.03109 -6
      vertex 3.475 6.01888 -6
      vertex 3.5 0 -6
    endloop
  endfacet
  facet normal 0 0 -1
    outer loop
      vertex -1.75 3.03109 -6
      vertex 3.475 6.01888 -6
      vertex 1.75 3.03109 -6
    endloop
  endfacet
  facet normal 0 0 -1
    outer loop
      vertex -1.75 3.03109 -6
      vertex -3.475 6.01888 -6
      vertex 3.475 6.01888 -6
    endloop
  endfacet
  facet normal 0 0 -1
    outer loop
      vertex -3.5 0 -6
      vertex -3.475 6.01888 -6
      vertex -1.75 3.03109 -6
    endloop
  endfacet
  facet normal 0 0 -1
    outer loop
      vertex -3.475 6.01888 -6
      vertex -3.5 0 -6
      vertex -6.95 0 -6
    endloop
  endfacet
  facet normal 0.248691 0.968583 -0
    outer loop
      vertex 1.22062 3.75667 0
      vertex 0.740156 3.88003 12.3
      vertex 1.22062 3.75667 12.3
    endloop
  endfacet
  facet normal 0.248691 0.968583 0
    outer loop
      vertex 0.740156 3.88003 12.3
      vertex 1.22062 3.75667 0
      vertex 0.740156 3.88003 0
    endloop
  endfacet
  facet normal 0.982287 0.187382 0
    outer loop
      vertex 3.91885 0.495066 12.3
      vertex 3.8259 0.982325 0
      vertex 3.8259 0.982325 12.3
    endloop
  endfacet
  facet normal 0.982287 0.187382 0
    outer loop
      vertex 3.8259 0.982325 0
      vertex 3.91885 0.495066 12.3
      vertex 3.91885 0.495066 0
    endloop
  endfacet
  facet normal 0.998027 0.0627907 0
    outer loop
      vertex 3.95 0 12.3
      vertex 3.91885 0.495066 0
      vertex 3.91885 0.495066 12.3
    endloop
  endfacet
  facet normal 0.998027 0.0627907 0
    outer loop
      vertex 3.91885 0.495066 0
      vertex 3.95 0 12.3
      vertex 3.95 0 0
    endloop
  endfacet
  facet normal 0.951057 0.309017 0
    outer loop
      vertex 3.8259 0.982325 12.3
      vertex 3.67262 1.45409 0
      vertex 3.67262 1.45409 12.3
    endloop
  endfacet
  facet normal 0.951057 0.309017 0
    outer loop
      vertex 3.67262 1.45409 0
      vertex 3.8259 0.982325 12.3
      vertex 3.8259 0.982325 0
    endloop
  endfacet
  facet normal -0.684547 -0.728969 0
    outer loop
      vertex -2.87943 -2.70396 0
      vertex -2.51782 -3.04353 12.3
      vertex -2.87943 -2.70396 12.3
    endloop
  endfacet
  facet normal -0.684547 -0.728969 -0
    outer loop
      vertex -2.51782 -3.04353 12.3
      vertex -2.87943 -2.70396 0
      vertex -2.51782 -3.04353 0
    endloop
  endfacet
  facet normal 0.982287 -0.187382 0
    outer loop
      vertex 3.8259 -0.982325 12.3
      vertex 3.91885 -0.495066 0
      vertex 3.91885 -0.495066 12.3
    endloop
  endfacet
  facet normal 0.982287 -0.187382 0
    outer loop
      vertex 3.91885 -0.495066 0
      vertex 3.8259 -0.982325 12.3
      vertex 3.8259 -0.982325 0
    endloop
  endfacet
  facet normal 0.368125 0.929776 -0
    outer loop
      vertex 1.68183 3.57407 0
      vertex 1.22062 3.75667 12.3
      vertex 1.68183 3.57407 12.3
    endloop
  endfacet
  facet normal 0.368125 0.929776 0
    outer loop
      vertex 1.22062 3.75667 12.3
      vertex 1.68183 3.57407 0
      vertex 1.22062 3.75667 0
    endloop
  endfacet
  facet normal 0.125333 0.992115 -0
    outer loop
      vertex 0.740156 3.88003 0
      vertex 0.248022 3.94221 12.3
      vertex 0.740156 3.88003 12.3
    endloop
  endfacet
  facet normal 0.125333 0.992115 0
    outer loop
      vertex 0.248022 3.94221 12.3
      vertex 0.740156 3.88003 0
      vertex 0.248022 3.94221 0
    endloop
  endfacet
  facet normal 0.481754 0.876307 -0
    outer loop
      vertex 2.11652 3.33509 0
      vertex 1.68183 3.57407 12.3
      vertex 2.11652 3.33509 12.3
    endloop
  endfacet
  facet normal 0.481754 0.876307 0
    outer loop
      vertex 1.68183 3.57407 12.3
      vertex 2.11652 3.33509 0
      vertex 1.68183 3.57407 0
    endloop
  endfacet
  facet normal 0 1 -0
    outer loop
      vertex 0.248022 3.94221 0
      vertex -0.248022 3.94221 12.3
      vertex 0.248022 3.94221 12.3
    endloop
  endfacet
  facet normal 0 1 0
    outer loop
      vertex -0.248022 3.94221 12.3
      vertex 0.248022 3.94221 0
      vertex -0.248022 3.94221 0
    endloop
  endfacet
  facet normal 0.844329 0.535826 0
    outer loop
      vertex 3.46141 1.90293 12.3
      vertex 3.19562 2.32175 0
      vertex 3.19562 2.32175 12.3
    endloop
  endfacet
  facet normal 0.844329 0.535826 0
    outer loop
      vertex 3.19562 2.32175 0
      vertex 3.46141 1.90293 12.3
      vertex 3.46141 1.90293 0
    endloop
  endfacet
  facet normal 0.904827 0.42578 0
    outer loop
      vertex 3.67262 1.45409 12.3
      vertex 3.46141 1.90293 0
      vertex 3.46141 1.90293 12.3
    endloop
  endfacet
  facet normal 0.904827 0.42578 0
    outer loop
      vertex 3.46141 1.90293 0
      vertex 3.67262 1.45409 12.3
      vertex 3.67262 1.45409 0
    endloop
  endfacet
  facet normal -0.125333 0.992115 0
    outer loop
      vertex -0.248022 3.94221 0
      vertex -0.740156 3.88003 12.3
      vertex -0.248022 3.94221 12.3
    endloop
  endfacet
  facet normal -0.125333 0.992115 0
    outer loop
      vertex -0.740156 3.88003 12.3
      vertex -0.248022 3.94221 0
      vertex -0.740156 3.88003 0
    endloop
  endfacet
  facet normal -0.481754 0.876307 0
    outer loop
      vertex -1.68183 3.57407 0
      vertex -2.11652 3.33509 12.3
      vertex -1.68183 3.57407 12.3
    endloop
  endfacet
  facet normal -0.481754 0.876307 0
    outer loop
      vertex -2.11652 3.33509 12.3
      vertex -1.68183 3.57407 0
      vertex -2.11652 3.33509 0
    endloop
  endfacet
  facet normal 0.951057 -0.309017 0
    outer loop
      vertex 3.67262 -1.45409 12.3
      vertex 3.8259 -0.982325 0
      vertex 3.8259 -0.982325 12.3
    endloop
  endfacet
  facet normal 0.951057 -0.309017 0
    outer loop
      vertex 3.8259 -0.982325 0
      vertex 3.67262 -1.45409 12.3
      vertex 3.67262 -1.45409 0
    endloop
  endfacet
  facet normal -0.904827 -0.42578 0
    outer loop
      vertex -3.46141 -1.90293 0
      vertex -3.67262 -1.45409 12.3
      vertex -3.67262 -1.45409 0
    endloop
  endfacet
  facet normal -0.904827 -0.42578 0
    outer loop
      vertex -3.67262 -1.45409 12.3
      vertex -3.46141 -1.90293 0
      vertex -3.46141 -1.90293 12.3
    endloop
  endfacet
  facet normal -0.684547 0.728969 0
    outer loop
      vertex -2.51782 3.04353 0
      vertex -2.87943 2.70396 12.3
      vertex -2.51782 3.04353 12.3
    endloop
  endfacet
  facet normal -0.684547 0.728969 0
    outer loop
      vertex -2.87943 2.70396 12.3
      vertex -2.51782 3.04353 0
      vertex -2.87943 2.70396 0
    endloop
  endfacet
  facet normal 0.904827 -0.42578 0
    outer loop
      vertex 3.46141 -1.90293 12.3
      vertex 3.67262 -1.45409 0
      vertex 3.67262 -1.45409 12.3
    endloop
  endfacet
  facet normal 0.904827 -0.42578 0
    outer loop
      vertex 3.67262 -1.45409 0
      vertex 3.46141 -1.90293 12.3
      vertex 3.46141 -1.90293 0
    endloop
  endfacet
  facet normal -0.587785 0.809017 0
    outer loop
      vertex -2.11652 3.33509 0
      vertex -2.51782 3.04353 12.3
      vertex -2.11652 3.33509 12.3
    endloop
  endfacet
  facet normal -0.587785 0.809017 0
    outer loop
      vertex -2.51782 3.04353 12.3
      vertex -2.11652 3.33509 0
      vertex -2.51782 3.04353 0
    endloop
  endfacet
  facet normal 0.248691 -0.968583 0
    outer loop
      vertex 0.740156 -3.88003 0
      vertex 1.22062 -3.75667 12.3
      vertex 0.740156 -3.88003 12.3
    endloop
  endfacet
  facet normal 0.248691 -0.968583 0
    outer loop
      vertex 1.22062 -3.75667 12.3
      vertex 0.740156 -3.88003 0
      vertex 1.22062 -3.75667 0
    endloop
  endfacet
  facet normal -0.982287 0.187382 0
    outer loop
      vertex -3.91885 0.495066 0
      vertex -3.8259 0.982325 12.3
      vertex -3.8259 0.982325 0
    endloop
  endfacet
  facet normal -0.982287 0.187382 0
    outer loop
      vertex -3.8259 0.982325 12.3
      vertex -3.91885 0.495066 0
      vertex -3.91885 0.495066 12.3
    endloop
  endfacet
  facet normal -0.982287 -0.187382 0
    outer loop
      vertex -3.8259 -0.982325 0
      vertex -3.91885 -0.495066 12.3
      vertex -3.91885 -0.495066 0
    endloop
  endfacet
  facet normal -0.982287 -0.187382 0
    outer loop
      vertex -3.91885 -0.495066 12.3
      vertex -3.8259 -0.982325 0
      vertex -3.8259 -0.982325 12.3
    endloop
  endfacet
  facet normal -0.368125 0.929776 0
    outer loop
      vertex -1.22062 3.75667 0
      vertex -1.68183 3.57407 12.3
      vertex -1.22062 3.75667 12.3
    endloop
  endfacet
  facet normal -0.368125 0.929776 0
    outer loop
      vertex -1.68183 3.57407 12.3
      vertex -1.22062 3.75667 0
      vertex -1.68183 3.57407 0
    endloop
  endfacet
  facet normal -0.368125 -0.929776 0
    outer loop
      vertex -1.68183 -3.57407 0
      vertex -1.22062 -3.75667 12.3
      vertex -1.68183 -3.57407 12.3
    endloop
  endfacet
  facet normal -0.368125 -0.929776 -0
    outer loop
      vertex -1.22062 -3.75667 12.3
      vertex -1.68183 -3.57407 0
      vertex -1.22062 -3.75667 0
    endloop
  endfacet
  facet normal 0.587785 0.809017 -0
    outer loop
      vertex 2.51782 3.04353 0
      vertex 2.11652 3.33509 12.3
      vertex 2.51782 3.04353 12.3
    endloop
  endfacet
  facet normal 0.587785 0.809017 0
    outer loop
      vertex 2.11652 3.33509 12.3
      vertex 2.51782 3.04353 0
      vertex 2.11652 3.33509 0
    endloop
  endfacet
  facet normal -0.125333 -0.992115 0
    outer loop
      vertex -0.740156 -3.88003 0
      vertex -0.248022 -3.94221 12.3
      vertex -0.740156 -3.88003 12.3
    endloop
  endfacet
  facet normal -0.125333 -0.992115 -0
    outer loop
      vertex -0.248022 -3.94221 12.3
      vertex -0.740156 -3.88003 0
      vertex -0.248022 -3.94221 0
    endloop
  endfacet
  facet normal -0.248691 0.968583 0
    outer loop
      vertex -0.740156 3.88003 0
      vertex -1.22062 3.75667 12.3
      vertex -0.740156 3.88003 12.3
    endloop
  endfacet
  facet normal -0.248691 0.968583 0
    outer loop
      vertex -1.22062 3.75667 12.3
      vertex -0.740156 3.88003 0
      vertex -1.22062 3.75667 0
    endloop
  endfacet
  facet normal 0.998027 -0.0627907 0
    outer loop
      vertex 3.91885 -0.495066 12.3
      vertex 3.95 0 0
      vertex 3.95 0 12.3
    endloop
  endfacet
  facet normal 0.998027 -0.0627907 0
    outer loop
      vertex 3.95 0 0
      vertex 3.91885 -0.495066 12.3
      vertex 3.91885 -0.495066 0
    endloop
  endfacet
  facet normal 0.587785 -0.809017 0
    outer loop
      vertex 2.11652 -3.33509 0
      vertex 2.51782 -3.04353 12.3
      vertex 2.11652 -3.33509 12.3
    endloop
  endfacet
  facet normal 0.587785 -0.809017 0
    outer loop
      vertex 2.51782 -3.04353 12.3
      vertex 2.11652 -3.33509 0
      vertex 2.51782 -3.04353 0
    endloop
  endfacet
  facet normal -0 0 1
    outer loop
      vertex 1.63157 0.245919 12.3
      vertex 3.95 0 12.3
      vertex 3.91885 0.495066 12.3
    endloop
  endfacet
  facet normal 0 0 1
    outer loop
      vertex 1.63157 0.245919 12.3
      vertex 3.91885 0.495066 12.3
      vertex 3.8259 0.982325 12.3
    endloop
  endfacet
  facet normal 0 0 1
    outer loop
      vertex 1.63157 -0.245919 12.3
      vertex 3.95 0 12.3
      vertex 1.63157 0.245919 12.3
    endloop
  endfacet
  facet normal 0 0 1
    outer loop
      vertex 1.4866 0.715908 12.3
      vertex 3.8259 0.982325 12.3
      vertex 3.67262 1.45409 12.3
    endloop
  endfacet
  facet normal 0 0 1
    outer loop
      vertex 3.95 0 12.3
      vertex 1.63157 -0.245919 12.3
      vertex 3.91885 -0.495066 12.3
    endloop
  endfacet
  facet normal 0 0 1
    outer loop
      vertex 1.4866 0.715908 12.3
      vertex 3.67262 1.45409 12.3
      vertex 3.46141 1.90293 12.3
    endloop
  endfacet
  facet normal 0 0 1
    outer loop
      vertex 3.91885 -0.495066 12.3
      vertex 1.63157 -0.245919 12.3
      vertex 3.8259 -0.982325 12.3
    endloop
  endfacet
  facet normal 0 0 1
    outer loop
      vertex 1.4866 0.715908 12.3
      vertex 3.46141 1.90293 12.3
      vertex 3.19562 2.32175 12.3
    endloop
  endfacet
  facet normal -0 0 1
    outer loop
      vertex 1.4866 -0.715908 12.3
      vertex 3.8259 -0.982325 12.3
      vertex 1.63157 -0.245919 12.3
    endloop
  endfacet
  facet normal 0 0 1
    outer loop
      vertex 1.20953 1.12228 12.3
      vertex 3.19562 2.32175 12.3
      vertex 2.87943 2.70396 12.3
    endloop
  endfacet
  facet normal 0 0 1
    outer loop
      vertex 3.8259 -0.982325 12.3
      vertex 1.4866 -0.715908 12.3
      vertex 3.67262 -1.45409 12.3
    endloop
  endfacet
  facet normal 0 0 1
    outer loop
      vertex 1.20953 1.12228 12.3
      vertex 2.87943 2.70396 12.3
      vertex 2.51782 3.04353 12.3
    endloop
  endfacet
  facet normal 0 0 1
    outer loop
      vertex 3.67262 -1.45409 12.3
      vertex 1.4866 -0.715908 12.3
      vertex 3.46141 -1.90293 12.3
    endloop
  endfacet
  facet normal 0 0 1
    outer loop
      vertex 0.825 1.42894 12.3
      vertex 2.51782 3.04353 12.3
      vertex 2.11652 3.33509 12.3
    endloop
  endfacet
  facet normal 0 0 1
    outer loop
      vertex 3.46141 -1.90293 12.3
      vertex 1.4866 -0.715908 12.3
      vertex 3.19562 -2.32175 12.3
    endloop
  endfacet
  facet normal 0 0 1
    outer loop
      vertex 0.825 1.42894 12.3
      vertex 2.11652 3.33509 12.3
      vertex 1.68183 3.57407 12.3
    endloop
  endfacet
  facet normal -0 0 1
    outer loop
      vertex 1.20953 -1.12228 12.3
      vertex 3.19562 -2.32175 12.3
      vertex 1.4866 -0.715908 12.3
    endloop
  endfacet
  facet normal 0 0 1
    outer loop
      vertex 3.19562 -2.32175 12.3
      vertex 1.20953 -1.12228 12.3
      vertex 2.87943 -2.70396 12.3
    endloop
  endfacet
  facet normal 0 0 1
    outer loop
      vertex 3.8259 0.982325 12.3
      vertex 1.4866 0.715908 12.3
      vertex 1.63157 0.245919 12.3
    endloop
  endfacet
  facet normal 0 0 1
    outer loop
      vertex 0.825 1.42894 12.3
      vertex 1.68183 3.57407 12.3
      vertex 1.22062 3.75667 12.3
    endloop
  endfacet
  facet normal 0 0 1
    outer loop
      vertex 3.19562 2.32175 12.3
      vertex 1.20953 1.12228 12.3
      vertex 1.4866 0.715908 12.3
    endloop
  endfacet
  facet normal 0 0 1
    outer loop
      vertex 2.51782 3.04353 12.3
      vertex 0.825 1.42894 12.3
      vertex 1.20953 1.12228 12.3
    endloop
  endfacet
  facet normal 0 0 1
    outer loop
      vertex 0.367159 1.60863 12.3
      vertex 1.22062 3.75667 12.3
      vertex 0.740156 3.88003 12.3
    endloop
  endfacet
  facet normal 0 0 1
    outer loop
      vertex 1.22062 3.75667 12.3
      vertex 0.367159 1.60863 12.3
      vertex 0.825 1.42894 12.3
    endloop
  endfacet
  facet normal 0 0 1
    outer loop
      vertex 0.248022 3.94221 12.3
      vertex 0.367159 1.60863 12.3
      vertex 0.740156 3.88003 12.3
    endloop
  endfacet
  facet normal 0 0 1
    outer loop
      vertex 0.248022 3.94221 12.3
      vertex -0.123304 1.64539 12.3
      vertex 0.367159 1.60863 12.3
    endloop
  endfacet
  facet normal -0 0 1
    outer loop
      vertex -0.248022 3.94221 12.3
      vertex -0.123304 1.64539 12.3
      vertex 0.248022 3.94221 12.3
    endloop
  endfacet
  facet normal -0 0 1
    outer loop
      vertex -0.740156 3.88003 12.3
      vertex -0.123304 1.64539 12.3
      vertex -0.248022 3.94221 12.3
    endloop
  endfacet
  facet normal 0 0 1
    outer loop
      vertex -0.123304 1.64539 12.3
      vertex -0.740156 3.88003 12.3
      vertex -0.602812 1.53594 12.3
    endloop
  endfacet
  facet normal -0 0 1
    outer loop
      vertex -1.22062 3.75667 12.3
      vertex -0.602812 1.53594 12.3
      vertex -0.740156 3.88003 12.3
    endloop
  endfacet
  facet normal -0 0 1
    outer loop
      vertex -1.68183 3.57407 12.3
      vertex -0.602812 1.53594 12.3
      vertex -1.22062 3.75667 12.3
    endloop
  endfacet
  facet normal -0 0 1
    outer loop
      vertex -2.11652 3.33509 12.3
      vertex -0.602812 1.53594 12.3
      vertex -1.68183 3.57407 12.3
    endloop
  endfacet
  facet normal 0 0 1
    outer loop
      vertex -0.602812 1.53594 12.3
      vertex -2.11652 3.33509 12.3
      vertex -1.02876 1.29002 12.3
    endloop
  endfacet
  facet normal -0 0 1
    outer loop
      vertex -2.51782 3.04353 12.3
      vertex -1.02876 1.29002 12.3
      vertex -2.11652 3.33509 12.3
    endloop
  endfacet
  facet normal -0 0 1
    outer loop
      vertex -2.87943 2.70396 12.3
      vertex -1.02876 1.29002 12.3
      vertex -2.51782 3.04353 12.3
    endloop
  endfacet
  facet normal 0 0 1
    outer loop
      vertex 2.87943 -2.70396 12.3
      vertex 1.20953 -1.12228 12.3
      vertex 2.51782 -3.04353 12.3
    endloop
  endfacet
  facet normal -0 0 1
    outer loop
      vertex 0.825 -1.42894 12.3
      vertex 2.51782 -3.04353 12.3
      vertex 1.20953 -1.12228 12.3
    endloop
  endfacet
  facet normal 0 0 1
    outer loop
      vertex 2.51782 -3.04353 12.3
      vertex 0.825 -1.42894 12.3
      vertex 2.11652 -3.33509 12.3
    endloop
  endfacet
  facet normal 0 0 1
    outer loop
      vertex 2.11652 -3.33509 12.3
      vertex 0.825 -1.42894 12.3
      vertex 1.68183 -3.57407 12.3
    endloop
  endfacet
  facet normal 0 0 1
    outer loop
      vertex 1.68183 -3.57407 12.3
      vertex 0.825 -1.42894 12.3
      vertex 1.22062 -3.75667 12.3
    endloop
  endfacet
  facet normal -0 0 1
    outer loop
      vertex 0.367159 -1.60863 12.3
      vertex 1.22062 -3.75667 12.3
      vertex 0.825 -1.42894 12.3
    endloop
  endfacet
  facet normal 0 0 1
    outer loop
      vertex 1.22062 -3.75667 12.3
      vertex 0.367159 -1.60863 12.3
      vertex 0.740156 -3.88003 12.3
    endloop
  endfacet
  facet normal 0 0 1
    outer loop
      vertex 0.367159 -1.60863 12.3
      vertex 0.248022 -3.94221 12.3
      vertex 0.740156 -3.88003 12.3
    endloop
  endfacet
  facet normal -0 0 1
    outer loop
      vertex -0.123304 -1.64539 12.3
      vertex 0.248022 -3.94221 12.3
      vertex 0.367159 -1.60863 12.3
    endloop
  endfacet
  facet normal 0 0 1
    outer loop
      vertex -0.123304 -1.64539 12.3
      vertex -0.248022 -3.94221 12.3
      vertex 0.248022 -3.94221 12.3
    endloop
  endfacet
  facet normal 0 0 1
    outer loop
      vertex -0.740156 -3.88003 12.3
      vertex -0.123304 -1.64539 12.3
      vertex -0.602812 -1.53594 12.3
    endloop
  endfacet
  facet normal 0 0 1
    outer loop
      vertex -0.123304 -1.64539 12.3
      vertex -0.740156 -3.88003 12.3
      vertex -0.248022 -3.94221 12.3
    endloop
  endfacet
  facet normal 0 0 1
    outer loop
      vertex -2.11652 -3.33509 12.3
      vertex -0.602812 -1.53594 12.3
      vertex -1.02876 -1.29002 12.3
    endloop
  endfacet
  facet normal 0 0 1
    outer loop
      vertex -0.602812 -1.53594 12.3
      vertex -1.22062 -3.75667 12.3
      vertex -0.740156 -3.88003 12.3
    endloop
  endfacet
  facet normal 0 0 1
    outer loop
      vertex -2.87943 -2.70396 12.3
      vertex -1.02876 -1.29002 12.3
      vertex -1.36329 -0.929478 12.3
    endloop
  endfacet
  facet normal 0 0 1
    outer loop
      vertex -3.46141 -1.90293 12.3
      vertex -1.36329 -0.929478 12.3
      vertex -1.57669 -0.486345 12.3
    endloop
  endfacet
  facet normal 0 0 1
    outer loop
      vertex -3.91885 -0.495066 12.3
      vertex -1.57669 -0.486345 12.3
      vertex -1.65 0 12.3
    endloop
  endfacet
  facet normal 0 0 1
    outer loop
      vertex -0.602812 -1.53594 12.3
      vertex -1.68183 -3.57407 12.3
      vertex -1.22062 -3.75667 12.3
    endloop
  endfacet
  facet normal 0 0 1
    outer loop
      vertex -1.02876 1.29002 12.3
      vertex -2.87943 2.70396 12.3
      vertex -1.36329 0.929478 12.3
    endloop
  endfacet
  facet normal -0 0 1
    outer loop
      vertex -3.19562 2.32175 12.3
      vertex -1.36329 0.929478 12.3
      vertex -2.87943 2.70396 12.3
    endloop
  endfacet
  facet normal 0 0 1
    outer loop
      vertex -0.602812 -1.53594 12.3
      vertex -2.11652 -3.33509 12.3
      vertex -1.68183 -3.57407 12.3
    endloop
  endfacet
  facet normal -0 0 1
    outer loop
      vertex -3.46141 1.90293 12.3
      vertex -1.36329 0.929478 12.3
      vertex -3.19562 2.32175 12.3
    endloop
  endfacet
  facet normal 0 0 1
    outer loop
      vertex -1.02876 -1.29002 12.3
      vertex -2.51782 -3.04353 12.3
      vertex -2.11652 -3.33509 12.3
    endloop
  endfacet
  facet normal 0 0 1
    outer loop
      vertex -1.36329 0.929478 12.3
      vertex -3.46141 1.90293 12.3
      vertex -1.57669 0.486345 12.3
    endloop
  endfacet
  facet normal 0 0 1
    outer loop
      vertex -1.02876 -1.29002 12.3
      vertex -2.87943 -2.70396 12.3
      vertex -2.51782 -3.04353 12.3
    endloop
  endfacet
  facet normal -0 0 1
    outer loop
      vertex -3.67262 1.45409 12.3
      vertex -1.57669 0.486345 12.3
      vertex -3.46141 1.90293 12.3
    endloop
  endfacet
  facet normal 0 0 1
    outer loop
      vertex -1.36329 -0.929478 12.3
      vertex -3.19562 -2.32175 12.3
      vertex -2.87943 -2.70396 12.3
    endloop
  endfacet
  facet normal -0 0 1
    outer loop
      vertex -3.8259 0.982325 12.3
      vertex -1.57669 0.486345 12.3
      vertex -3.67262 1.45409 12.3
    endloop
  endfacet
  facet normal 0 0 1
    outer loop
      vertex -1.36329 -0.929478 12.3
      vertex -3.46141 -1.90293 12.3
      vertex -3.19562 -2.32175 12.3
    endloop
  endfacet
  facet normal -0 0 1
    outer loop
      vertex -3.91885 0.495066 12.3
      vertex -1.57669 0.486345 12.3
      vertex -3.8259 0.982325 12.3
    endloop
  endfacet
  facet normal 0 0 1
    outer loop
      vertex -1.57669 -0.486345 12.3
      vertex -3.67262 -1.45409 12.3
      vertex -3.46141 -1.90293 12.3
    endloop
  endfacet
  facet normal 0 0 1
    outer loop
      vertex -1.57669 0.486345 12.3
      vertex -3.91885 0.495066 12.3
      vertex -1.65 0 12.3
    endloop
  endfacet
  facet normal 0 0 1
    outer loop
      vertex -1.57669 -0.486345 12.3
      vertex -3.8259 -0.982325 12.3
      vertex -3.67262 -1.45409 12.3
    endloop
  endfacet
  facet normal 0 0 1
    outer loop
      vertex -3.95 0 12.3
      vertex -1.65 0 12.3
      vertex -3.91885 0.495066 12.3
    endloop
  endfacet
  facet normal 0 0 1
    outer loop
      vertex -1.57669 -0.486345 12.3
      vertex -3.91885 -0.495066 12.3
      vertex -3.8259 -0.982325 12.3
    endloop
  endfacet
  facet normal 0 0 1
    outer loop
      vertex -1.65 0 12.3
      vertex -3.95 0 12.3
      vertex -3.91885 -0.495066 12.3
    endloop
  endfacet
  facet normal -0.587785 -0.809017 0
    outer loop
      vertex -2.51782 -3.04353 0
      vertex -2.11652 -3.33509 12.3
      vertex -2.51782 -3.04353 12.3
    endloop
  endfacet
  facet normal -0.587785 -0.809017 -0
    outer loop
      vertex -2.11652 -3.33509 12.3
      vertex -2.51782 -3.04353 0
      vertex -2.11652 -3.33509 0
    endloop
  endfacet
  facet normal 0.368125 -0.929776 0
    outer loop
      vertex 1.22062 -3.75667 0
      vertex 1.68183 -3.57407 12.3
      vertex 1.22062 -3.75667 12.3
    endloop
  endfacet
  facet normal 0.368125 -0.929776 0
    outer loop
      vertex 1.68183 -3.57407 12.3
      vertex 1.22062 -3.75667 0
      vertex 1.68183 -3.57407 0
    endloop
  endfacet
  facet normal 0.844329 -0.535826 0
    outer loop
      vertex 3.19562 -2.32175 12.3
      vertex 3.46141 -1.90293 0
      vertex 3.46141 -1.90293 12.3
    endloop
  endfacet
  facet normal 0.844329 -0.535826 0
    outer loop
      vertex 3.46141 -1.90293 0
      vertex 3.19562 -2.32175 12.3
      vertex 3.19562 -2.32175 0
    endloop
  endfacet
  facet normal -0.481754 -0.876307 0
    outer loop
      vertex -2.11652 -3.33509 0
      vertex -1.68183 -3.57407 12.3
      vertex -2.11652 -3.33509 12.3
    endloop
  endfacet
  facet normal -0.481754 -0.876307 -0
    outer loop
      vertex -1.68183 -3.57407 12.3
      vertex -2.11652 -3.33509 0
      vertex -1.68183 -3.57407 0
    endloop
  endfacet
  facet normal -0.248691 -0.968583 0
    outer loop
      vertex -1.22062 -3.75667 0
      vertex -0.740156 -3.88003 12.3
      vertex -1.22062 -3.75667 12.3
    endloop
  endfacet
  facet normal -0.248691 -0.968583 -0
    outer loop
      vertex -0.740156 -3.88003 12.3
      vertex -1.22062 -3.75667 0
      vertex -0.740156 -3.88003 0
    endloop
  endfacet
  facet normal -0.770513 0.637424 0
    outer loop
      vertex -3.19562 2.32175 0
      vertex -2.87943 2.70396 12.3
      vertex -2.87943 2.70396 0
    endloop
  endfacet
  facet normal -0.770513 0.637424 0
    outer loop
      vertex -2.87943 2.70396 12.3
      vertex -3.19562 2.32175 0
      vertex -3.19562 2.32175 12.3
    endloop
  endfacet
  facet normal 0.125333 -0.992115 0
    outer loop
      vertex 0.248022 -3.94221 0
      vertex 0.740156 -3.88003 12.3
      vertex 0.248022 -3.94221 12.3
    endloop
  endfacet
  facet normal 0.125333 -0.992115 0
    outer loop
      vertex 0.740156 -3.88003 12.3
      vertex 0.248022 -3.94221 0
      vertex 0.740156 -3.88003 0
    endloop
  endfacet
  facet normal -0.998027 -0.0627907 0
    outer loop
      vertex -3.91885 -0.495066 0
      vertex -3.95 0 12.3
      vertex -3.95 0 0
    endloop
  endfacet
  facet normal -0.998027 -0.0627907 0
    outer loop
      vertex -3.95 0 12.3
      vertex -3.91885 -0.495066 0
      vertex -3.91885 -0.495066 12.3
    endloop
  endfacet
  facet normal -0.770513 -0.637424 0
    outer loop
      vertex -2.87943 -2.70396 0
      vertex -3.19562 -2.32175 12.3
      vertex -3.19562 -2.32175 0
    endloop
  endfacet
  facet normal -0.770513 -0.637424 0
    outer loop
      vertex -3.19562 -2.32175 12.3
      vertex -2.87943 -2.70396 0
      vertex -2.87943 -2.70396 12.3
    endloop
  endfacet
  facet normal 0.684547 0.728969 -0
    outer loop
      vertex 2.87943 2.70396 0
      vertex 2.51782 3.04353 12.3
      vertex 2.87943 2.70396 12.3
    endloop
  endfacet
  facet normal 0.684547 0.728969 0
    outer loop
      vertex 2.51782 3.04353 12.3
      vertex 2.87943 2.70396 0
      vertex 2.51782 3.04353 0
    endloop
  endfacet
  facet normal -0.998027 0.0627907 0
    outer loop
      vertex -3.95 0 0
      vertex -3.91885 0.495066 12.3
      vertex -3.91885 0.495066 0
    endloop
  endfacet
  facet normal -0.998027 0.0627907 0
    outer loop
      vertex -3.91885 0.495066 12.3
      vertex -3.95 0 0
      vertex -3.95 0 12.3
    endloop
  endfacet
  facet normal 0.481754 -0.876307 0
    outer loop
      vertex 1.68183 -3.57407 0
      vertex 2.11652 -3.33509 12.3
      vertex 1.68183 -3.57407 12.3
    endloop
  endfacet
  facet normal 0.481754 -0.876307 0
    outer loop
      vertex 2.11652 -3.33509 12.3
      vertex 1.68183 -3.57407 0
      vertex 2.11652 -3.33509 0
    endloop
  endfacet
  facet normal -0.844329 -0.535826 0
    outer loop
      vertex -3.19562 -2.32175 0
      vertex -3.46141 -1.90293 12.3
      vertex -3.46141 -1.90293 0
    endloop
  endfacet
  facet normal -0.844329 -0.535826 0
    outer loop
      vertex -3.46141 -1.90293 12.3
      vertex -3.19562 -2.32175 0
      vertex -3.19562 -2.32175 12.3
    endloop
  endfacet
  facet normal 0.770513 -0.637424 0
    outer loop
      vertex 2.87943 -2.70396 12.3
      vertex 3.19562 -2.32175 0
      vertex 3.19562 -2.32175 12.3
    endloop
  endfacet
  facet normal 0.770513 -0.637424 0
    outer loop
      vertex 3.19562 -2.32175 0
      vertex 2.87943 -2.70396 12.3
      vertex 2.87943 -2.70396 0
    endloop
  endfacet
  facet normal 0 -1 0
    outer loop
      vertex -0.248022 -3.94221 0
      vertex 0.248022 -3.94221 12.3
      vertex -0.248022 -3.94221 12.3
    endloop
  endfacet
  facet normal 0 -1 -0
    outer loop
      vertex 0.248022 -3.94221 12.3
      vertex -0.248022 -3.94221 0
      vertex 0.248022 -3.94221 0
    endloop
  endfacet
  facet normal 0.684547 -0.728969 0
    outer loop
      vertex 2.51782 -3.04353 0
      vertex 2.87943 -2.70396 12.3
      vertex 2.51782 -3.04353 12.3
    endloop
  endfacet
  facet normal 0.684547 -0.728969 0
    outer loop
      vertex 2.87943 -2.70396 12.3
      vertex 2.51782 -3.04353 0
      vertex 2.87943 -2.70396 0
    endloop
  endfacet
  facet normal -0.951057 0.309017 0
    outer loop
      vertex -3.8259 0.982325 0
      vertex -3.67262 1.45409 12.3
      vertex -3.67262 1.45409 0
    endloop
  endfacet
  facet normal -0.951057 0.309017 0
    outer loop
      vertex -3.67262 1.45409 12.3
      vertex -3.8259 0.982325 0
      vertex -3.8259 0.982325 12.3
    endloop
  endfacet
  facet normal -0.951057 -0.309017 0
    outer loop
      vertex -3.67262 -1.45409 0
      vertex -3.8259 -0.982325 12.3
      vertex -3.8259 -0.982325 0
    endloop
  endfacet
  facet normal -0.951057 -0.309017 0
    outer loop
      vertex -3.8259 -0.982325 12.3
      vertex -3.67262 -1.45409 0
      vertex -3.67262 -1.45409 12.3
    endloop
  endfacet
  facet normal -0.844329 0.535826 0
    outer loop
      vertex -3.46141 1.90293 0
      vertex -3.19562 2.32175 12.3
      vertex -3.19562 2.32175 0
    endloop
  endfacet
  facet normal -0.844329 0.535826 0
    outer loop
      vertex -3.19562 2.32175 12.3
      vertex -3.46141 1.90293 0
      vertex -3.46141 1.90293 12.3
    endloop
  endfacet
  facet normal 0.770513 0.637424 0
    outer loop
      vertex 3.19562 2.32175 12.3
      vertex 2.87943 2.70396 0
      vertex 2.87943 2.70396 12.3
    endloop
  endfacet
  facet normal 0.770513 0.637424 0
    outer loop
      vertex 2.87943 2.70396 0
      vertex 3.19562 2.32175 12.3
      vertex 3.19562 2.32175 0
    endloop
  endfacet
  facet normal -0.904827 0.42578 0
    outer loop
      vertex -3.67262 1.45409 0
      vertex -3.46141 1.90293 12.3
      vertex -3.46141 1.90293 0
    endloop
  endfacet
  facet normal -0.904827 0.42578 0
    outer loop
      vertex -3.46141 1.90293 12.3
      vertex -3.67262 1.45409 0
      vertex -3.67262 1.45409 12.3
    endloop
  endfacet
  facet normal 0.984808 -0.173649 0
    outer loop
      vertex -1.4 0 6.3
      vertex -1.31557 0.478827 -2.8
      vertex -1.31557 0.478827 6.3
    endloop
  endfacet
  facet normal 0.984808 -0.173649 0
    outer loop
      vertex -1.31557 0.478827 -2.8
      vertex -1.4 0 6.3
      vertex -1.4 0 -2.8
    endloop
  endfacet
  facet normal 0.866026 -0.499999 0
    outer loop
      vertex -1.31557 0.478827 6.3
      vertex -1.07246 0.899902 -2.8
      vertex -1.07246 0.899902 6.3
    endloop
  endfacet
  facet normal 0.866026 -0.499999 0
    outer loop
      vertex -1.07246 0.899902 -2.8
      vertex -1.31557 0.478827 6.3
      vertex -1.31557 0.478827 -2.8
    endloop
  endfacet
  facet normal 0.342021 0.939692 -0
    outer loop
      vertex -0.243107 -1.37873 -2.8
      vertex -0.7 -1.21243 6.3
      vertex -0.243107 -1.37873 6.3
    endloop
  endfacet
  facet normal 0.342021 0.939692 0
    outer loop
      vertex -0.7 -1.21243 6.3
      vertex -0.243107 -1.37873 -2.8
      vertex -0.7 -1.21243 -2.8
    endloop
  endfacet
  facet normal -0.984808 -0.173649 0
    outer loop
      vertex 1.4 0 -2.8
      vertex 1.31557 0.478827 6.3
      vertex 1.31557 0.478827 -2.8
    endloop
  endfacet
  facet normal -0.984808 -0.173649 0
    outer loop
      vertex 1.31557 0.478827 6.3
      vertex 1.4 0 -2.8
      vertex 1.4 0 6.3
    endloop
  endfacet
  facet normal -0.342021 0.939692 0
    outer loop
      vertex 0.7 -1.21243 -2.8
      vertex 0.243107 -1.37873 6.3
      vertex 0.7 -1.21243 6.3
    endloop
  endfacet
  facet normal -0.342021 0.939692 0
    outer loop
      vertex 0.243107 -1.37873 6.3
      vertex 0.7 -1.21243 -2.8
      vertex 0.243107 -1.37873 -2.8
    endloop
  endfacet
  facet normal 0.642787 -0.766045 0
    outer loop
      vertex -1.07246 0.899902 -2.8
      vertex -0.7 1.21243 6.3
      vertex -1.07246 0.899902 6.3
    endloop
  endfacet
  facet normal 0.642787 -0.766045 0
    outer loop
      vertex -0.7 1.21243 6.3
      vertex -1.07246 0.899902 -2.8
      vertex -0.7 1.21243 -2.8
    endloop
  endfacet
  facet normal -0.866026 -0.499999 0
    outer loop
      vertex 1.31557 0.478827 -2.8
      vertex 1.07246 0.899902 6.3
      vertex 1.07246 0.899902 -2.8
    endloop
  endfacet
  facet normal -0.866026 -0.499999 0
    outer loop
      vertex 1.07246 0.899902 6.3
      vertex 1.31557 0.478827 -2.8
      vertex 1.31557 0.478827 6.3
    endloop
  endfacet
  facet normal 0.642787 0.766045 -0
    outer loop
      vertex -0.7 -1.21243 -2.8
      vertex -1.07246 -0.899902 6.3
      vertex -0.7 -1.21243 6.3
    endloop
  endfacet
  facet normal 0.642787 0.766045 0
    outer loop
      vertex -1.07246 -0.899902 6.3
      vertex -0.7 -1.21243 -2.8
      vertex -1.07246 -0.899902 -2.8
    endloop
  endfacet
  facet normal -0.984808 0.173649 0
    outer loop
      vertex 1.31557 -0.478827 -2.8
      vertex 1.4 0 6.3
      vertex 1.4 0 -2.8
    endloop
  endfacet
  facet normal -0.984808 0.173649 0
    outer loop
      vertex 1.4 0 6.3
      vertex 1.31557 -0.478827 -2.8
      vertex 1.31557 -0.478827 6.3
    endloop
  endfacet
  facet normal 0.866026 0.499999 0
    outer loop
      vertex -1.07246 -0.899902 6.3
      vertex -1.31557 -0.478827 -2.8
      vertex -1.31557 -0.478827 6.3
    endloop
  endfacet
  facet normal 0.866026 0.499999 0
    outer loop
      vertex -1.31557 -0.478827 -2.8
      vertex -1.07246 -0.899902 6.3
      vertex -1.07246 -0.899902 -2.8
    endloop
  endfacet
  facet normal 0.342021 -0.939692 0
    outer loop
      vertex -0.7 1.21243 -2.8
      vertex -0.243107 1.37873 6.3
      vertex -0.7 1.21243 6.3
    endloop
  endfacet
  facet normal 0.342021 -0.939692 0
    outer loop
      vertex -0.243107 1.37873 6.3
      vertex -0.7 1.21243 -2.8
      vertex -0.243107 1.37873 -2.8
    endloop
  endfacet
  facet normal -0.342021 -0.939692 0
    outer loop
      vertex 0.243107 1.37873 -2.8
      vertex 0.7 1.21243 6.3
      vertex 0.243107 1.37873 6.3
    endloop
  endfacet
  facet normal -0.342021 -0.939692 -0
    outer loop
      vertex 0.7 1.21243 6.3
      vertex 0.243107 1.37873 -2.8
      vertex 0.7 1.21243 -2.8
    endloop
  endfacet
  facet normal 0 -1 0
    outer loop
      vertex -0.243107 1.37873 -2.8
      vertex 0.243107 1.37873 6.3
      vertex -0.243107 1.37873 6.3
    endloop
  endfacet
  facet normal 0 -1 -0
    outer loop
      vertex 0.243107 1.37873 6.3
      vertex -0.243107 1.37873 -2.8
      vertex 0.243107 1.37873 -2.8
    endloop
  endfacet
  facet normal 0 1 -0
    outer loop
      vertex 0.243107 -1.37873 -2.8
      vertex -0.243107 -1.37873 6.3
      vertex 0.243107 -1.37873 6.3
    endloop
  endfacet
  facet normal 0 1 0
    outer loop
      vertex -0.243107 -1.37873 6.3
      vertex 0.243107 -1.37873 -2.8
      vertex -0.243107 -1.37873 -2.8
    endloop
  endfacet
  facet normal -0.642787 0.766045 0
    outer loop
      vertex 1.07246 -0.899902 -2.8
      vertex 0.7 -1.21243 6.3
      vertex 1.07246 -0.899902 6.3
    endloop
  endfacet
  facet normal -0.642787 0.766045 0
    outer loop
      vertex 0.7 -1.21243 6.3
      vertex 1.07246 -0.899902 -2.8
      vertex 0.7 -1.21243 -2.8
    endloop
  endfacet
  facet normal -0.642787 -0.766045 0
    outer loop
      vertex 0.7 1.21243 -2.8
      vertex 1.07246 0.899902 6.3
      vertex 0.7 1.21243 6.3
    endloop
  endfacet
  facet normal -0.642787 -0.766045 -0
    outer loop
      vertex 1.07246 0.899902 6.3
      vertex 0.7 1.21243 -2.8
      vertex 1.07246 0.899902 -2.8
    endloop
  endfacet
  facet normal -0.866026 0.499999 0
    outer loop
      vertex 1.07246 -0.899902 -2.8
      vertex 1.31557 -0.478827 6.3
      vertex 1.31557 -0.478827 -2.8
    endloop
  endfacet
  facet normal -0.866026 0.499999 0
    outer loop
      vertex 1.31557 -0.478827 6.3
      vertex 1.07246 -0.899902 -2.8
      vertex 1.07246 -0.899902 6.3
    endloop
  endfacet
  facet normal 0.984808 0.173649 0
    outer loop
      vertex -1.31557 -0.478827 6.3
      vertex -1.4 0 -2.8
      vertex -1.4 0 6.3
    endloop
  endfacet
  facet normal 0.984808 0.173649 0
    outer loop
      vertex -1.4 0 -2.8
      vertex -1.31557 -0.478827 6.3
      vertex -1.31557 -0.478827 -2.8
    endloop
  endfacet
  facet normal -0.0747309 0.997204 0
    outer loop
      vertex 0.367159 -1.60863 6.3
      vertex -0.123304 -1.64539 12.3
      vertex 0.367159 -1.60863 12.3
    endloop
  endfacet
  facet normal -0.0747309 0.997204 0
    outer loop
      vertex -0.123304 -1.64539 12.3
      vertex 0.367159 -1.60863 6.3
      vertex -0.123304 -1.64539 6.3
    endloop
  endfacet
  facet normal 0.900969 -0.433883 0
    outer loop
      vertex -1.57669 0.486345 12.3
      vertex -1.36329 0.929478 6.3
      vertex -1.36329 0.929478 12.3
    endloop
  endfacet
  facet normal 0.900969 -0.433883 0
    outer loop
      vertex -1.36329 0.929478 6.3
      vertex -1.57669 0.486345 12.3
      vertex -1.57669 0.486345 6.3
    endloop
  endfacet
  facet normal 0.988831 -0.149043 0
    outer loop
      vertex -1.65 0 12.3
      vertex -1.57669 0.486345 6.3
      vertex -1.57669 0.486345 12.3
    endloop
  endfacet
  facet normal 0.988831 -0.149043 0
    outer loop
      vertex -1.57669 0.486345 6.3
      vertex -1.65 0 12.3
      vertex -1.65 0 6.3
    endloop
  endfacet
  facet normal 0.733052 -0.680172 0
    outer loop
      vertex -1.36329 0.929478 12.3
      vertex -1.02876 1.29002 6.3
      vertex -1.02876 1.29002 12.3
    endloop
  endfacet
  facet normal 0.733052 -0.680172 0
    outer loop
      vertex -1.02876 1.29002 6.3
      vertex -1.36329 0.929478 12.3
      vertex -1.36329 0.929478 6.3
    endloop
  endfacet
  facet normal -0.0747309 -0.997204 0
    outer loop
      vertex -0.123304 1.64539 6.3
      vertex 0.367159 1.60863 12.3
      vertex -0.123304 1.64539 12.3
    endloop
  endfacet
  facet normal -0.0747309 -0.997204 -0
    outer loop
      vertex 0.367159 1.60863 12.3
      vertex -0.123304 1.64539 6.3
      vertex 0.367159 1.60863 6.3
    endloop
  endfacet
  facet normal -0.365339 0.930874 0
    outer loop
      vertex 0.825 -1.42894 6.3
      vertex 0.367159 -1.60863 12.3
      vertex 0.825 -1.42894 12.3
    endloop
  endfacet
  facet normal -0.365339 0.930874 0
    outer loop
      vertex 0.367159 -1.60863 12.3
      vertex 0.825 -1.42894 6.3
      vertex 0.367159 -1.60863 6.3
    endloop
  endfacet
  facet normal 0.499999 0.866026 -0
    outer loop
      vertex -0.602812 -1.53594 6.3
      vertex -1.02876 -1.29002 12.3
      vertex -0.602812 -1.53594 12.3
    endloop
  endfacet
  facet normal 0.499999 0.866026 0
    outer loop
      vertex -1.02876 -1.29002 12.3
      vertex -0.602812 -1.53594 6.3
      vertex -1.02876 -1.29002 6.3
    endloop
  endfacet
  facet normal 0.222521 -0.974928 0
    outer loop
      vertex -0.602812 1.53594 6.3
      vertex -0.123304 1.64539 12.3
      vertex -0.602812 1.53594 12.3
    endloop
  endfacet
  facet normal 0.222521 -0.974928 0
    outer loop
      vertex -0.123304 1.64539 12.3
      vertex -0.602812 1.53594 6.3
      vertex -0.123304 1.64539 6.3
    endloop
  endfacet
  facet normal 0.733052 0.680172 0
    outer loop
      vertex -1.02876 -1.29002 12.3
      vertex -1.36329 -0.929478 6.3
      vertex -1.36329 -0.929478 12.3
    endloop
  endfacet
  facet normal 0.733052 0.680172 0
    outer loop
      vertex -1.36329 -0.929478 6.3
      vertex -1.02876 -1.29002 12.3
      vertex -1.02876 -1.29002 6.3
    endloop
  endfacet
  facet normal -0.826238 0.563321 0
    outer loop
      vertex 1.20953 -1.12228 6.3
      vertex 1.4866 -0.715908 12.3
      vertex 1.4866 -0.715908 6.3
    endloop
  endfacet
  facet normal -0.826238 0.563321 0
    outer loop
      vertex 1.4866 -0.715908 12.3
      vertex 1.20953 -1.12228 6.3
      vertex 1.20953 -1.12228 12.3
    endloop
  endfacet
  facet normal -0.62349 -0.781831 0
    outer loop
      vertex 0.825 1.42894 6.3
      vertex 1.20953 1.12228 12.3
      vertex 0.825 1.42894 12.3
    endloop
  endfacet
  facet normal -0.62349 -0.781831 -0
    outer loop
      vertex 1.20953 1.12228 12.3
      vertex 0.825 1.42894 6.3
      vertex 1.20953 1.12228 6.3
    endloop
  endfacet
  facet normal -0.62349 0.781831 0
    outer loop
      vertex 1.20953 -1.12228 6.3
      vertex 0.825 -1.42894 12.3
      vertex 1.20953 -1.12228 12.3
    endloop
  endfacet
  facet normal -0.62349 0.781831 0
    outer loop
      vertex 0.825 -1.42894 12.3
      vertex 1.20953 -1.12228 6.3
      vertex 0.825 -1.42894 6.3
    endloop
  endfacet
  facet normal 0.900969 0.433883 0
    outer loop
      vertex -1.36329 -0.929478 12.3
      vertex -1.57669 -0.486345 6.3
      vertex -1.57669 -0.486345 12.3
    endloop
  endfacet
  facet normal 0.900969 0.433883 0
    outer loop
      vertex -1.57669 -0.486345 6.3
      vertex -1.36329 -0.929478 12.3
      vertex -1.36329 -0.929478 6.3
    endloop
  endfacet
  facet normal -0.955573 -0.294756 0
    outer loop
      vertex 1.63157 0.245919 6.3
      vertex 1.4866 0.715908 12.3
      vertex 1.4866 0.715908 6.3
    endloop
  endfacet
  facet normal -0.955573 -0.294756 0
    outer loop
      vertex 1.4866 0.715908 12.3
      vertex 1.63157 0.245919 6.3
      vertex 1.63157 0.245919 12.3
    endloop
  endfacet
  facet normal -0.826238 -0.563321 0
    outer loop
      vertex 1.4866 0.715908 6.3
      vertex 1.20953 1.12228 12.3
      vertex 1.20953 1.12228 6.3
    endloop
  endfacet
  facet normal -0.826238 -0.563321 0
    outer loop
      vertex 1.20953 1.12228 12.3
      vertex 1.4866 0.715908 6.3
      vertex 1.4866 0.715908 12.3
    endloop
  endfacet
  facet normal -0.365339 -0.930874 0
    outer loop
      vertex 0.367159 1.60863 6.3
      vertex 0.825 1.42894 12.3
      vertex 0.367159 1.60863 12.3
    endloop
  endfacet
  facet normal -0.365339 -0.930874 -0
    outer loop
      vertex 0.825 1.42894 12.3
      vertex 0.367159 1.60863 6.3
      vertex 0.825 1.42894 6.3
    endloop
  endfacet
  facet normal 0.222521 0.974928 -0
    outer loop
      vertex -0.123304 -1.64539 6.3
      vertex -0.602812 -1.53594 12.3
      vertex -0.123304 -1.64539 12.3
    endloop
  endfacet
  facet normal 0.222521 0.974928 0
    outer loop
      vertex -0.602812 -1.53594 12.3
      vertex -0.123304 -1.64539 6.3
      vertex -0.602812 -1.53594 6.3
    endloop
  endfacet
  facet normal 0.499999 -0.866026 0
    outer loop
      vertex -1.02876 1.29002 6.3
      vertex -0.602812 1.53594 12.3
      vertex -1.02876 1.29002 12.3
    endloop
  endfacet
  facet normal 0.499999 -0.866026 0
    outer loop
      vertex -0.602812 1.53594 12.3
      vertex -1.02876 1.29002 6.3
      vertex -0.602812 1.53594 6.3
    endloop
  endfacet
  facet normal -0.955573 0.294756 0
    outer loop
      vertex 1.4866 -0.715908 6.3
      vertex 1.63157 -0.245919 12.3
      vertex 1.63157 -0.245919 6.3
    endloop
  endfacet
  facet normal -0.955573 0.294756 0
    outer loop
      vertex 1.63157 -0.245919 12.3
      vertex 1.4866 -0.715908 6.3
      vertex 1.4866 -0.715908 12.3
    endloop
  endfacet
  facet normal -0 0 1
    outer loop
      vertex 1.31557 0.478827 6.3
      vertex 1.63157 0.245919 6.3
      vertex 1.4866 0.715908 6.3
    endloop
  endfacet
  facet normal 0 0 1
    outer loop
      vertex 1.63157 0.245919 6.3
      vertex 1.4 0 6.3
      vertex 1.63157 -0.245919 6.3
    endloop
  endfacet
  facet normal 0 0 1
    outer loop
      vertex 1.31557 -0.478827 6.3
      vertex 1.63157 -0.245919 6.3
      vertex 1.4 0 6.3
    endloop
  endfacet
  facet normal 0 0 1
    outer loop
      vertex 1.63157 0.245919 6.3
      vertex 1.31557 0.478827 6.3
      vertex 1.4 0 6.3
    endloop
  endfacet
  facet normal -0 0 1
    outer loop
      vertex 1.07246 0.899902 6.3
      vertex 1.4866 0.715908 6.3
      vertex 1.20953 1.12228 6.3
    endloop
  endfacet
  facet normal 0 0 1
    outer loop
      vertex 1.4866 0.715908 6.3
      vertex 1.07246 0.899902 6.3
      vertex 1.31557 0.478827 6.3
    endloop
  endfacet
  facet normal -0 0 1
    outer loop
      vertex 0.7 1.21243 6.3
      vertex 1.20953 1.12228 6.3
      vertex 0.825 1.42894 6.3
    endloop
  endfacet
  facet normal 0 0 1
    outer loop
      vertex 1.20953 1.12228 6.3
      vertex 0.7 1.21243 6.3
      vertex 1.07246 0.899902 6.3
    endloop
  endfacet
  facet normal 0 0 1
    outer loop
      vertex 0.367159 1.60863 6.3
      vertex 0.7 1.21243 6.3
      vertex 0.825 1.42894 6.3
    endloop
  endfacet
  facet normal 0 0 1
    outer loop
      vertex 0.367159 1.60863 6.3
      vertex 0.243107 1.37873 6.3
      vertex 0.7 1.21243 6.3
    endloop
  endfacet
  facet normal 0 0 1
    outer loop
      vertex -0.123304 1.64539 6.3
      vertex 0.243107 1.37873 6.3
      vertex 0.367159 1.60863 6.3
    endloop
  endfacet
  facet normal 0 0 1
    outer loop
      vertex -0.123304 1.64539 6.3
      vertex -0.243107 1.37873 6.3
      vertex 0.243107 1.37873 6.3
    endloop
  endfacet
  facet normal -0 0 1
    outer loop
      vertex -0.602812 1.53594 6.3
      vertex -0.243107 1.37873 6.3
      vertex -0.123304 1.64539 6.3
    endloop
  endfacet
  facet normal 0 0 1
    outer loop
      vertex -0.602812 1.53594 6.3
      vertex -0.7 1.21243 6.3
      vertex -0.243107 1.37873 6.3
    endloop
  endfacet
  facet normal -0 0 1
    outer loop
      vertex -1.02876 1.29002 6.3
      vertex -0.7 1.21243 6.3
      vertex -0.602812 1.53594 6.3
    endloop
  endfacet
  facet normal 0 0 1
    outer loop
      vertex -1.02876 1.29002 6.3
      vertex -1.07246 0.899902 6.3
      vertex -0.7 1.21243 6.3
    endloop
  endfacet
  facet normal -0 0 1
    outer loop
      vertex -1.36329 0.929478 6.3
      vertex -1.07246 0.899902 6.3
      vertex -1.02876 1.29002 6.3
    endloop
  endfacet
  facet normal 0 0 1
    outer loop
      vertex -1.07246 0.899902 6.3
      vertex -1.36329 0.929478 6.3
      vertex -1.31557 0.478827 6.3
    endloop
  endfacet
  facet normal -0 0 1
    outer loop
      vertex -1.57669 0.486345 6.3
      vertex -1.31557 0.478827 6.3
      vertex -1.36329 0.929478 6.3
    endloop
  endfacet
  facet normal 0 0 1
    outer loop
      vertex -1.31557 0.478827 6.3
      vertex -1.57669 0.486345 6.3
      vertex -1.4 0 6.3
    endloop
  endfacet
  facet normal 0 0 1
    outer loop
      vertex 1.63157 -0.245919 6.3
      vertex 1.31557 -0.478827 6.3
      vertex 1.4866 -0.715908 6.3
    endloop
  endfacet
  facet normal 0 0 1
    outer loop
      vertex 1.07246 -0.899902 6.3
      vertex 1.4866 -0.715908 6.3
      vertex 1.31557 -0.478827 6.3
    endloop
  endfacet
  facet normal 0 0 1
    outer loop
      vertex 1.4866 -0.715908 6.3
      vertex 1.07246 -0.899902 6.3
      vertex 1.20953 -1.12228 6.3
    endloop
  endfacet
  facet normal 0 0 1
    outer loop
      vertex 0.7 -1.21243 6.3
      vertex 1.20953 -1.12228 6.3
      vertex 1.07246 -0.899902 6.3
    endloop
  endfacet
  facet normal 0 0 1
    outer loop
      vertex 1.20953 -1.12228 6.3
      vertex 0.7 -1.21243 6.3
      vertex 0.825 -1.42894 6.3
    endloop
  endfacet
  facet normal 0 0 1
    outer loop
      vertex 0.7 -1.21243 6.3
      vertex 0.367159 -1.60863 6.3
      vertex 0.825 -1.42894 6.3
    endloop
  endfacet
  facet normal -0 0 1
    outer loop
      vertex 0.243107 -1.37873 6.3
      vertex 0.367159 -1.60863 6.3
      vertex 0.7 -1.21243 6.3
    endloop
  endfacet
  facet normal 0 0 1
    outer loop
      vertex 0.243107 -1.37873 6.3
      vertex -0.123304 -1.64539 6.3
      vertex 0.367159 -1.60863 6.3
    endloop
  endfacet
  facet normal -0 0 1
    outer loop
      vertex -0.243107 -1.37873 6.3
      vertex -0.123304 -1.64539 6.3
      vertex 0.243107 -1.37873 6.3
    endloop
  endfacet
  facet normal 0 0 1
    outer loop
      vertex -0.243107 -1.37873 6.3
      vertex -0.602812 -1.53594 6.3
      vertex -0.123304 -1.64539 6.3
    endloop
  endfacet
  facet normal 0 0 1
    outer loop
      vertex -0.7 -1.21243 6.3
      vertex -0.602812 -1.53594 6.3
      vertex -0.243107 -1.37873 6.3
    endloop
  endfacet
  facet normal 0 0 1
    outer loop
      vertex -0.7 -1.21243 6.3
      vertex -1.02876 -1.29002 6.3
      vertex -0.602812 -1.53594 6.3
    endloop
  endfacet
  facet normal 0 0 1
    outer loop
      vertex -1.07246 -0.899902 6.3
      vertex -1.02876 -1.29002 6.3
      vertex -0.7 -1.21243 6.3
    endloop
  endfacet
  facet normal 0 0 1
    outer loop
      vertex -1.36329 -0.929478 6.3
      vertex -1.07246 -0.899902 6.3
      vertex -1.31557 -0.478827 6.3
    endloop
  endfacet
  facet normal 0 0 1
    outer loop
      vertex -1.07246 -0.899902 6.3
      vertex -1.36329 -0.929478 6.3
      vertex -1.02876 -1.29002 6.3
    endloop
  endfacet
  facet normal 0 0 1
    outer loop
      vertex -1.57669 -0.486345 6.3
      vertex -1.31557 -0.478827 6.3
      vertex -1.4 0 6.3
    endloop
  endfacet
  facet normal 0 0 1
    outer loop
      vertex -1.65 0 6.3
      vertex -1.4 0 6.3
      vertex -1.57669 0.486345 6.3
    endloop
  endfacet
  facet normal 0 0 1
    outer loop
      vertex -1.31557 -0.478827 6.3
      vertex -1.57669 -0.486345 6.3
      vertex -1.36329 -0.929478 6.3
    endloop
  endfacet
  facet normal 0 0 1
    outer loop
      vertex -1.4 0 6.3
      vertex -1.65 0 6.3
      vertex -1.57669 -0.486345 6.3
    endloop
  endfacet
  facet normal -1 0 0
    outer loop
      vertex 1.63157 -0.245919 6.3
      vertex 1.63157 0.245919 12.3
      vertex 1.63157 0.245919 6.3
    endloop
  endfacet
  facet normal -1 -0 0
    outer loop
      vertex 1.63157 0.245919 12.3
      vertex 1.63157 -0.245919 6.3
      vertex 1.63157 -0.245919 12.3
    endloop
  endfacet
  facet normal 0.988831 0.149043 0
    outer loop
      vertex -1.57669 -0.486345 12.3
      vertex -1.65 0 6.3
      vertex -1.65 0 12.3
    endloop
  endfacet
  facet normal 0.988831 0.149043 0
    outer loop
      vertex -1.65 0 6.3
      vertex -1.57669 -0.486345 12.3
      vertex -1.57669 -0.486345 6.3
    endloop
  endfacet
  facet normal 0 1 -0
    outer loop
      vertex 1.75 -3.03109 -6
      vertex -1.75 -3.03109 -2.8
      vertex 1.75 -3.03109 -2.8
    endloop
  endfacet
  facet normal 0 1 0
    outer loop
      vertex -1.75 -3.03109 -2.8
      vertex 1.75 -3.03109 -6
      vertex -1.75 -3.03109 -6
    endloop
  endfacet
  facet normal -0.866025 0.5 0
    outer loop
      vertex 1.75 -3.03109 -6
      vertex 3.5 0 -2.8
      vertex 3.5 0 -6
    endloop
  endfacet
  facet normal -0.866025 0.5 0
    outer loop
      vertex 3.5 0 -2.8
      vertex 1.75 -3.03109 -6
      vertex 1.75 -3.03109 -2.8
    endloop
  endfacet
  facet normal 0 -1 0
    outer loop
      vertex -1.75 3.03109 -6
      vertex 1.75 3.03109 -2.8
      vertex -1.75 3.03109 -2.8
    endloop
  endfacet
  facet normal 0 -1 -0
    outer loop
      vertex 1.75 3.03109 -2.8
      vertex -1.75 3.03109 -6
      vertex 1.75 3.03109 -6
    endloop
  endfacet
  facet normal -0.866025 -0.5 0
    outer loop
      vertex 3.5 0 -6
      vertex 1.75 3.03109 -2.8
      vertex 1.75 3.03109 -6
    endloop
  endfacet
  facet normal -0.866025 -0.5 0
    outer loop
      vertex 1.75 3.03109 -2.8
      vertex 3.5 0 -6
      vertex 3.5 0 -2.8
    endloop
  endfacet
  facet normal 0.866025 -0.5 0
    outer loop
      vertex -3.5 0 -2.8
      vertex -1.75 3.03109 -6
      vertex -1.75 3.03109 -2.8
    endloop
  endfacet
  facet normal 0.866025 -0.5 0
    outer loop
      vertex -1.75 3.03109 -6
      vertex -3.5 0 -2.8
      vertex -3.5 0 -6
    endloop
  endfacet
  facet normal 0.866025 0.5 0
    outer loop
      vertex -1.75 -3.03109 -2.8
      vertex -3.5 0 -6
      vertex -3.5 0 -2.8
    endloop
  endfacet
  facet normal 0.866025 0.5 0
    outer loop
      vertex -3.5 0 -6
      vertex -1.75 -3.03109 -2.8
      vertex -1.75 -3.03109 -6
    endloop
  endfacet
  facet normal 0 0 -1
    outer loop
      vertex 1.31557 -0.478827 -2.8
      vertex 3.5 0 -2.8
      vertex 1.75 -3.03109 -2.8
    endloop
  endfacet
  facet normal 0 0 -1
    outer loop
      vertex 1.31557 0.478827 -2.8
      vertex 3.5 0 -2.8
      vertex 1.4 0 -2.8
    endloop
  endfacet
  facet normal -0 0 -1
    outer loop
      vertex 3.5 0 -2.8
      vertex 1.31557 -0.478827 -2.8
      vertex 1.4 0 -2.8
    endloop
  endfacet
  facet normal 0 0 -1
    outer loop
      vertex 1.75 -3.03109 -2.8
      vertex 1.07246 -0.899902 -2.8
      vertex 1.31557 -0.478827 -2.8
    endloop
  endfacet
  facet normal 0 0 -1
    outer loop
      vertex 1.75 -3.03109 -2.8
      vertex 0.7 -1.21243 -2.8
      vertex 1.07246 -0.899902 -2.8
    endloop
  endfacet
  facet normal 0 0 -1
    outer loop
      vertex 1.75 -3.03109 -2.8
      vertex 0.243107 -1.37873 -2.8
      vertex 0.7 -1.21243 -2.8
    endloop
  endfacet
  facet normal 0 0 -1
    outer loop
      vertex 1.75 -3.03109 -2.8
      vertex -0.243107 -1.37873 -2.8
      vertex 0.243107 -1.37873 -2.8
    endloop
  endfacet
  facet normal 0 0 -1
    outer loop
      vertex -1.75 -3.03109 -2.8
      vertex -0.243107 -1.37873 -2.8
      vertex 1.75 -3.03109 -2.8
    endloop
  endfacet
  facet normal -0 0 -1
    outer loop
      vertex -0.243107 -1.37873 -2.8
      vertex -1.75 -3.03109 -2.8
      vertex -0.7 -1.21243 -2.8
    endloop
  endfacet
  facet normal 0 0 -1
    outer loop
      vertex -1.75 -3.03109 -2.8
      vertex -1.07246 -0.899902 -2.8
      vertex -0.7 -1.21243 -2.8
    endloop
  endfacet
  facet normal 0 0 -1
    outer loop
      vertex -1.75 -3.03109 -2.8
      vertex -1.31557 -0.478827 -2.8
      vertex -1.07246 -0.899902 -2.8
    endloop
  endfacet
  facet normal 0 0 -1
    outer loop
      vertex -3.5 0 -2.8
      vertex -1.31557 -0.478827 -2.8
      vertex -1.75 -3.03109 -2.8
    endloop
  endfacet
  facet normal 0 0 -1
    outer loop
      vertex -1.31557 -0.478827 -2.8
      vertex -3.5 0 -2.8
      vertex -1.4 0 -2.8
    endloop
  endfacet
  facet normal 0 0 -1
    outer loop
      vertex -1.4 0 -2.8
      vertex -3.5 0 -2.8
      vertex -1.75 3.03109 -2.8
    endloop
  endfacet
  facet normal 0 0 -1
    outer loop
      vertex 3.5 0 -2.8
      vertex 1.31557 0.478827 -2.8
      vertex 1.75 3.03109 -2.8
    endloop
  endfacet
  facet normal 0 0 -1
    outer loop
      vertex 1.07246 0.899902 -2.8
      vertex 1.75 3.03109 -2.8
      vertex 1.31557 0.478827 -2.8
    endloop
  endfacet
  facet normal 0 0 -1
    outer loop
      vertex 0.7 1.21243 -2.8
      vertex 1.75 3.03109 -2.8
      vertex 1.07246 0.899902 -2.8
    endloop
  endfacet
  facet normal 0 0 -1
    outer loop
      vertex 0.243107 1.37873 -2.8
      vertex 1.75 3.03109 -2.8
      vertex 0.7 1.21243 -2.8
    endloop
  endfacet
  facet normal 0 0 -1
    outer loop
      vertex -0.243107 1.37873 -2.8
      vertex 1.75 3.03109 -2.8
      vertex 0.243107 1.37873 -2.8
    endloop
  endfacet
  facet normal 0 0 -1
    outer loop
      vertex -1.75 3.03109 -2.8
      vertex -0.243107 1.37873 -2.8
      vertex -0.7 1.21243 -2.8
    endloop
  endfacet
  facet normal 0 0 -1
    outer loop
      vertex -0.243107 1.37873 -2.8
      vertex -1.75 3.03109 -2.8
      vertex 1.75 3.03109 -2.8
    endloop
  endfacet
  facet normal 0 0 -1
    outer loop
      vertex -1.07246 0.899902 -2.8
      vertex -1.75 3.03109 -2.8
      vertex -0.7 1.21243 -2.8
    endloop
  endfacet
  facet normal 0 0 -1
    outer loop
      vertex -1.31557 0.478827 -2.8
      vertex -1.75 3.03109 -2.8
      vertex -1.07246 0.899902 -2.8
    endloop
  endfacet
  facet normal 0 0 -1
    outer loop
      vertex -1.75 3.03109 -2.8
      vertex -1.31557 0.478827 -2.8
      vertex -1.4 0 -2.8
    endloop
  endfacet
endsolid OpenSCAD_Model
