solid OpenSCAD_Model
  facet normal 0 -1 0
    outer loop
      vertex -3.475 -6.01888 -6
      vertex 3.475 -6.01888 0
      vertex -3.475 -6.01888 0
    endloop
  endfacet
  facet normal 0 -1 -0
    outer loop
      vertex 3.475 -6.01888 0
      vertex -3.475 -6.01888 -6
      vertex 3.475 -6.01888 -6
    endloop
  endfacet
  facet normal 0.866025 -0.5 0
    outer loop
      vertex 3.475 -6.01888 0
      vertex 6.95 0 -6
      vertex 6.95 0 0
    endloop
  endfacet
  facet normal 0.866025 -0.5 0
    outer loop
      vertex 6.95 0 -6
      vertex 3.475 -6.01888 0
      vertex 3.475 -6.01888 -6
    endloop
  endfacet
  facet normal 0 1 -0
    outer loop
      vertex 3.475 6.01888 -6
      vertex -3.475 6.01888 0
      vertex 3.475 6.01888 0
    endloop
  endfacet
  facet normal 0 1 0
    outer loop
      vertex -3.475 6.01888 0
      vertex 3.475 6.01888 -6
      vertex -3.475 6.01888 -6
    endloop
  endfacet
  facet normal 0.866025 0.5 0
    outer loop
      vertex 6.95 0 0
      vertex 3.475 6.01888 -6
      vertex 3.475 6.01888 0
    endloop
  endfacet
  facet normal 0.866025 0.5 0
    outer loop
      vertex 3.475 6.01888 -6
      vertex 6.95 0 0
      vertex 6.95 0 -6
    endloop
  endfacet
  facet normal -0.866025 0.5 0
    outer loop
      vertex -6.95 0 -6
      vertex -3.475 6.01888 0
      vertex -3.475 6.01888 -6
    endloop
  endfacet
  facet normal -0.866025 0.5 0
    outer loop
      vertex -3.475 6.01888 0
      vertex -6.95 0 -6
      vertex -6.95 0 0
    endloop
  endfacet
  facet normal -0.866025 -0.5 0
    outer loop
      vertex -3.475 -6.01888 -6
      vertex -6.95 0 0
      vertex -6.95 0 -6
    endloop
  endfacet
  facet normal -0.866025 -0.5 0
    outer loop
      vertex -6.95 0 0
      vertex -3.475 -6.01888 -6
      vertex -3.475 -6.01888 0
    endloop
  endfacet
  facet normal 0 0 1
    outer loop
      vertex 6.95 0 0
      vertex 3.91885 0.495066 0
      vertex 3.95 0 0
    endloop
  endfacet
  facet normal 0 0 1
    outer loop
      vertex 6.95 0 0
      vertex 3.8259 0.982325 0
      vertex 3.91885 0.495066 0
    endloop
  endfacet
  facet normal 0 0 1
    outer loop
      vertex 6.95 0 0
      vertex 3.67262 1.45409 0
      vertex 3.8259 0.982325 0
    endloop
  endfacet
  facet normal -0 0 1
    outer loop
      vertex 3.46141 1.90293 0
      vertex 6.95 0 0
      vertex 3.475 6.01888 0
    endloop
  endfacet
  facet normal 0 0 1
    outer loop
      vertex 6.95 0 0
      vertex 3.46141 1.90293 0
      vertex 3.67262 1.45409 0
    endloop
  endfacet
  facet normal 0 0 1
    outer loop
      vertex 3.475 6.01888 0
      vertex 3.19562 2.32175 0
      vertex 3.46141 1.90293 0
    endloop
  endfacet
  facet normal 0 0 1
    outer loop
      vertex 3.475 6.01888 0
      vertex 2.87943 2.70396 0
      vertex 3.19562 2.32175 0
    endloop
  endfacet
  facet normal 0 0 1
    outer loop
      vertex 3.475 6.01888 0
      vertex 2.51782 3.04353 0
      vertex 2.87943 2.70396 0
    endloop
  endfacet
  facet normal 0 0 1
    outer loop
      vertex 3.475 6.01888 0
      vertex 2.11652 3.33509 0
      vertex 2.51782 3.04353 0
    endloop
  endfacet
  facet normal 0 0 1
    outer loop
      vertex 3.475 6.01888 0
      vertex 1.68183 3.57407 0
      vertex 2.11652 3.33509 0
    endloop
  endfacet
  facet normal 0 0 1
    outer loop
      vertex 3.475 6.01888 0
      vertex 1.22062 3.75667 0
      vertex 1.68183 3.57407 0
    endloop
  endfacet
  facet normal 0 0 1
    outer loop
      vertex 3.475 6.01888 0
      vertex 0.740156 3.88003 0
      vertex 1.22062 3.75667 0
    endloop
  endfacet
  facet normal 0 0 1
    outer loop
      vertex 3.475 6.01888 0
      vertex 0.248022 3.94221 0
      vertex 0.740156 3.88003 0
    endloop
  endfacet
  facet normal 0 0 1
    outer loop
      vertex 3.475 6.01888 0
      vertex -0.248022 3.94221 0
      vertex 0.248022 3.94221 0
    endloop
  endfacet
  facet normal -0 0 1
    outer loop
      vertex -3.475 6.01888 0
      vertex -0.248022 3.94221 0
      vertex 3.475 6.01888 0
    endloop
  endfacet
  facet normal 0 0 1
    outer loop
      vertex -0.248022 3.94221 0
      vertex -3.475 6.01888 0
      vertex -0.740156 3.88003 0
    endloop
  endfacet
  facet normal 0 0 1
    outer loop
      vertex -0.740156 3.88003 0
      vertex -3.475 6.01888 0
      vertex -1.22062 3.75667 0
    endloop
  endfacet
  facet normal 0 0 1
    outer loop
      vertex -1.22062 3.75667 0
      vertex -3.475 6.01888 0
      vertex -1.68183 3.57407 0
    endloop
  endfacet
  facet normal 0 0 1
    outer loop
      vertex -3.475 6.01888 0
      vertex -2.11652 3.33509 0
      vertex -1.68183 3.57407 0
    endloop
  endfacet
  facet normal 0 0 1
    outer loop
      vertex -3.475 6.01888 0
      vertex -2.51782 3.04353 0
      vertex -2.11652 3.33509 0
    endloop
  endfacet
  facet normal 0 0 1
    outer loop
      vertex -3.475 6.01888 0
      vertex -2.87943 2.70396 0
      vertex -2.51782 3.04353 0
    endloop
  endfacet
  facet normal 0 0 1
    outer loop
      vertex -3.475 6.01888 0
      vertex -3.19562 2.32175 0
      vertex -2.87943 2.70396 0
    endloop
  endfacet
  facet normal 0 0 1
    outer loop
      vertex -3.475 6.01888 0
      vertex -3.46141 1.90293 0
      vertex -3.19562 2.32175 0
    endloop
  endfacet
  facet normal 0 0 1
    outer loop
      vertex -6.95 0 0
      vertex -3.46141 1.90293 0
      vertex -3.475 6.01888 0
    endloop
  endfacet
  facet normal 0 0 1
    outer loop
      vertex -3.46141 1.90293 0
      vertex -6.95 0 0
      vertex -3.67262 1.45409 0
    endloop
  endfacet
  facet normal 0 0 1
    outer loop
      vertex -3.67262 1.45409 0
      vertex -6.95 0 0
      vertex -3.8259 0.982325 0
    endloop
  endfacet
  facet normal 0 0 1
    outer loop
      vertex -3.91885 0.495066 0
      vertex -6.95 0 0
      vertex -3.95 0 0
    endloop
  endfacet
  facet normal 0 0 1
    outer loop
      vertex -3.8259 0.982325 0
      vertex -6.95 0 0
      vertex -3.91885 0.495066 0
    endloop
  endfacet
  facet normal 0 0 1
    outer loop
      vertex 3.91885 -0.495066 0
      vertex 6.95 0 0
      vertex 3.95 0 0
    endloop
  endfacet
  facet normal 0 0 1
    outer loop
      vertex 3.8259 -0.982325 0
      vertex 6.95 0 0
      vertex 3.91885 -0.495066 0
    endloop
  endfacet
  facet normal 0 0 1
    outer loop
      vertex 3.67262 -1.45409 0
      vertex 6.95 0 0
      vertex 3.8259 -0.982325 0
    endloop
  endfacet
  facet normal 0 0 1
    outer loop
      vertex 3.46141 -1.90293 0
      vertex 6.95 0 0
      vertex 3.67262 -1.45409 0
    endloop
  endfacet
  facet normal 0 0 1
    outer loop
      vertex 6.95 0 0
      vertex 3.46141 -1.90293 0
      vertex 3.475 -6.01888 0
    endloop
  endfacet
  facet normal -0 0 1
    outer loop
      vertex 3.19562 -2.32175 0
      vertex 3.475 -6.01888 0
      vertex 3.46141 -1.90293 0
    endloop
  endfacet
  facet normal -0 0 1
    outer loop
      vertex 2.87943 -2.70396 0
      vertex 3.475 -6.01888 0
      vertex 3.19562 -2.32175 0
    endloop
  endfacet
  facet normal -0 0 1
    outer loop
      vertex 2.51782 -3.04353 0
      vertex 3.475 -6.01888 0
      vertex 2.87943 -2.70396 0
    endloop
  endfacet
  facet normal -0 0 1
    outer loop
      vertex 2.11652 -3.33509 0
      vertex 3.475 -6.01888 0
      vertex 2.51782 -3.04353 0
    endloop
  endfacet
  facet normal -0 0 1
    outer loop
      vertex 1.68183 -3.57407 0
      vertex 3.475 -6.01888 0
      vertex 2.11652 -3.33509 0
    endloop
  endfacet
  facet normal -0 0 1
    outer loop
      vertex 1.22062 -3.75667 0
      vertex 3.475 -6.01888 0
      vertex 1.68183 -3.57407 0
    endloop
  endfacet
  facet normal -0 0 1
    outer loop
      vertex 0.740156 -3.88003 0
      vertex 3.475 -6.01888 0
      vertex 1.22062 -3.75667 0
    endloop
  endfacet
  facet normal -0 0 1
    outer loop
      vertex 0.248022 -3.94221 0
      vertex 3.475 -6.01888 0
      vertex 0.740156 -3.88003 0
    endloop
  endfacet
  facet normal -0 0 1
    outer loop
      vertex -0.248022 -3.94221 0
      vertex 3.475 -6.01888 0
      vertex 0.248022 -3.94221 0
    endloop
  endfacet
  facet normal 0 0 1
    outer loop
      vertex -3.475 -6.01888 0
      vertex -0.248022 -3.94221 0
      vertex -0.740156 -3.88003 0
    endloop
  endfacet
  facet normal 0 0 1
    outer loop
      vertex -3.475 -6.01888 0
      vertex -0.740156 -3.88003 0
      vertex -1.22062 -3.75667 0
    endloop
  endfacet
  facet normal 0 0 1
    outer loop
      vertex -3.475 -6.01888 0
      vertex -1.22062 -3.75667 0
      vertex -1.68183 -3.57407 0
    endloop
  endfacet
  facet normal 0 0 1
    outer loop
      vertex -0.248022 -3.94221 0
      vertex -3.475 -6.01888 0
      vertex 3.475 -6.01888 0
    endloop
  endfacet
  facet normal 0 0 1
    outer loop
      vertex -2.11652 -3.33509 0
      vertex -3.475 -6.01888 0
      vertex -1.68183 -3.57407 0
    endloop
  endfacet
  facet normal 0 0 1
    outer loop
      vertex -2.51782 -3.04353 0
      vertex -3.475 -6.01888 0
      vertex -2.11652 -3.33509 0
    endloop
  endfacet
  facet normal 0 0 1
    outer loop
      vertex -2.87943 -2.70396 0
      vertex -3.475 -6.01888 0
      vertex -2.51782 -3.04353 0
    endloop
  endfacet
  facet normal 0 0 1
    outer loop
      vertex -3.19562 -2.32175 0
      vertex -3.475 -6.01888 0
      vertex -2.87943 -2.70396 0
    endloop
  endfacet
  facet normal 0 0 1
    outer loop
      vertex -3.46141 -1.90293 0
      vertex -3.475 -6.01888 0
      vertex -3.19562 -2.32175 0
    endloop
  endfacet
  facet normal 0 0 1
    outer loop
      vertex -6.95 0 0
      vertex -3.46141 -1.90293 0
      vertex -3.67262 -1.45409 0
    endloop
  endfacet
  facet normal 0 0 1
    outer loop
      vertex -6.95 0 0
      vertex -3.67262 -1.45409 0
      vertex -3.8259 -0.982325 0
    endloop
  endfacet
  facet normal 0 0 1
    outer loop
      vertex -6.95 0 0
      vertex -3.8259 -0.982325 0
      vertex -3.91885 -0.495066 0
    endloop
  endfacet
  facet normal 0 0 1
    outer loop
      vertex -3.46141 -1.90293 0
      vertex -6.95 0 0
      vertex -3.475 -6.01888 0
    endloop
  endfacet
  facet normal -0 0 1
    outer loop
      vertex -6.95 0 0
      vertex -3.91885 -0.495066 0
      vertex -3.95 0 0
    endloop
  endfacet
  facet normal 0 0 -1
    outer loop
      vertex 3.475 -6.01888 -6
      vertex 4.2 0 -6
      vertex 6.95 0 -6
    endloop
  endfacet
  facet normal 0 0 -1
    outer loop
      vertex 3.475 -6.01888 -6
      vertex 2.1 -3.63731 -6
      vertex 4.2 0 -6
    endloop
  endfacet
  facet normal 0 0 -1
    outer loop
      vertex 3.475 -6.01888 -6
      vertex -2.1 -3.63731 -6
      vertex 2.1 -3.63731 -6
    endloop
  endfacet
  facet normal 0 0 -1
    outer loop
      vertex -3.475 -6.01888 -6
      vertex -2.1 -3.63731 -6
      vertex 3.475 -6.01888 -6
    endloop
  endfacet
  facet normal 0 0 -1
    outer loop
      vertex -3.475 -6.01888 -6
      vertex -4.2 0 -6
      vertex -2.1 -3.63731 -6
    endloop
  endfacet
  facet normal -0 -0 -1
    outer loop
      vertex -4.2 0 -6
      vertex -3.475 -6.01888 -6
      vertex -6.95 0 -6
    endloop
  endfacet
  facet normal 0 0 -1
    outer loop
      vertex 4.2 0 -6
      vertex 3.475 6.01888 -6
      vertex 6.95 0 -6
    endloop
  endfacet
  facet normal 0 0 -1
    outer loop
      vertex 2.1 3.63731 -6
      vertex 3.475 6.01888 -6
      vertex 4.2 0 -6
    endloop
  endfacet
  facet normal 0 0 -1
    outer loop
      vertex -2.1 3.63731 -6
      vertex 3.475 6.01888 -6
      vertex 2.1 3.63731 -6
    endloop
  endfacet
  facet normal 0 0 -1
    outer loop
      vertex -2.1 3.63731 -6
      vertex -3.475 6.01888 -6
      vertex 3.475 6.01888 -6
    endloop
  endfacet
  facet normal 0 0 -1
    outer loop
      vertex -4.2 0 -6
      vertex -3.475 6.01888 -6
      vertex -2.1 3.63731 -6
    endloop
  endfacet
  facet normal 0 0 -1
    outer loop
      vertex -3.475 6.01888 -6
      vertex -4.2 0 -6
      vertex -6.95 0 -6
    endloop
  endfacet
  facet normal 0.248691 0.968583 -0
    outer loop
      vertex 1.22062 3.75667 0
      vertex 0.740156 3.88003 12.3
      vertex 1.22062 3.75667 12.3
    endloop
  endfacet
  facet normal 0.248691 0.968583 0
    outer loop
      vertex 0.740156 3.88003 12.3
      vertex 1.22062 3.75667 0
      vertex 0.740156 3.88003 0
    endloop
  endfacet
  facet normal 0.982287 0.187382 0
    outer loop
      vertex 3.91885 0.495066 12.3
      vertex 3.8259 0.982325 0
      vertex 3.8259 0.982325 12.3
    endloop
  endfacet
  facet normal 0.982287 0.187382 0
    outer loop
      vertex 3.8259 0.982325 0
      vertex 3.91885 0.495066 12.3
      vertex 3.91885 0.495066 0
    endloop
  endfacet
  facet normal 0.998027 0.0627907 0
    outer loop
      vertex 3.95 0 12.3
      vertex 3.91885 0.495066 0
      vertex 3.91885 0.495066 12.3
    endloop
  endfacet
  facet normal 0.998027 0.0627907 0
    outer loop
      vertex 3.91885 0.495066 0
      vertex 3.95 0 12.3
      vertex 3.95 0 0
    endloop
  endfacet
  facet normal 0.951057 0.309017 0
    outer loop
      vertex 3.8259 0.982325 12.3
      vertex 3.67262 1.45409 0
      vertex 3.67262 1.45409 12.3
    endloop
  endfacet
  facet normal 0.951057 0.309017 0
    outer loop
      vertex 3.67262 1.45409 0
      vertex 3.8259 0.982325 12.3
      vertex 3.8259 0.982325 0
    endloop
  endfacet
  facet normal -0.684547 -0.728969 0
    outer loop
      vertex -2.87943 -2.70396 0
      vertex -2.51782 -3.04353 12.3
      vertex -2.87943 -2.70396 12.3
    endloop
  endfacet
  facet normal -0.684547 -0.728969 -0
    outer loop
      vertex -2.51782 -3.04353 12.3
      vertex -2.87943 -2.70396 0
      vertex -2.51782 -3.04353 0
    endloop
  endfacet
  facet normal 0.982287 -0.187382 0
    outer loop
      vertex 3.8259 -0.982325 12.3
      vertex 3.91885 -0.495066 0
      vertex 3.91885 -0.495066 12.3
    endloop
  endfacet
  facet normal 0.982287 -0.187382 0
    outer loop
      vertex 3.91885 -0.495066 0
      vertex 3.8259 -0.982325 12.3
      vertex 3.8259 -0.982325 0
    endloop
  endfacet
  facet normal 0.368125 0.929776 -0
    outer loop
      vertex 1.68183 3.57407 0
      vertex 1.22062 3.75667 12.3
      vertex 1.68183 3.57407 12.3
    endloop
  endfacet
  facet normal 0.368125 0.929776 0
    outer loop
      vertex 1.22062 3.75667 12.3
      vertex 1.68183 3.57407 0
      vertex 1.22062 3.75667 0
    endloop
  endfacet
  facet normal 0.125333 0.992115 -0
    outer loop
      vertex 0.740156 3.88003 0
      vertex 0.248022 3.94221 12.3
      vertex 0.740156 3.88003 12.3
    endloop
  endfacet
  facet normal 0.125333 0.992115 0
    outer loop
      vertex 0.248022 3.94221 12.3
      vertex 0.740156 3.88003 0
      vertex 0.248022 3.94221 0
    endloop
  endfacet
  facet normal 0.481754 0.876307 -0
    outer loop
      vertex 2.11652 3.33509 0
      vertex 1.68183 3.57407 12.3
      vertex 2.11652 3.33509 12.3
    endloop
  endfacet
  facet normal 0.481754 0.876307 0
    outer loop
      vertex 1.68183 3.57407 12.3
      vertex 2.11652 3.33509 0
      vertex 1.68183 3.57407 0
    endloop
  endfacet
  facet normal 0 1 -0
    outer loop
      vertex 0.248022 3.94221 0
      vertex -0.248022 3.94221 12.3
      vertex 0.248022 3.94221 12.3
    endloop
  endfacet
  facet normal 0 1 0
    outer loop
      vertex -0.248022 3.94221 12.3
      vertex 0.248022 3.94221 0
      vertex -0.248022 3.94221 0
    endloop
  endfacet
  facet normal 0.844329 0.535826 0
    outer loop
      vertex 3.46141 1.90293 12.3
      vertex 3.19562 2.32175 0
      vertex 3.19562 2.32175 12.3
    endloop
  endfacet
  facet normal 0.844329 0.535826 0
    outer loop
      vertex 3.19562 2.32175 0
      vertex 3.46141 1.90293 12.3
      vertex 3.46141 1.90293 0
    endloop
  endfacet
  facet normal 0.904827 0.42578 0
    outer loop
      vertex 3.67262 1.45409 12.3
      vertex 3.46141 1.90293 0
      vertex 3.46141 1.90293 12.3
    endloop
  endfacet
  facet normal 0.904827 0.42578 0
    outer loop
      vertex 3.46141 1.90293 0
      vertex 3.67262 1.45409 12.3
      vertex 3.67262 1.45409 0
    endloop
  endfacet
  facet normal -0.125333 0.992115 0
    outer loop
      vertex -0.248022 3.94221 0
      vertex -0.740156 3.88003 12.3
      vertex -0.248022 3.94221 12.3
    endloop
  endfacet
  facet normal -0.125333 0.992115 0
    outer loop
      vertex -0.740156 3.88003 12.3
      vertex -0.248022 3.94221 0
      vertex -0.740156 3.88003 0
    endloop
  endfacet
  facet normal -0.481754 0.876307 0
    outer loop
      vertex -1.68183 3.57407 0
      vertex -2.11652 3.33509 12.3
      vertex -1.68183 3.57407 12.3
    endloop
  endfacet
  facet normal -0.481754 0.876307 0
    outer loop
      vertex -2.11652 3.33509 12.3
      vertex -1.68183 3.57407 0
      vertex -2.11652 3.33509 0
    endloop
  endfacet
  facet normal 0.951057 -0.309017 0
    outer loop
      vertex 3.67262 -1.45409 12.3
      vertex 3.8259 -0.982325 0
      vertex 3.8259 -0.982325 12.3
    endloop
  endfacet
  facet normal 0.951057 -0.309017 0
    outer loop
      vertex 3.8259 -0.982325 0
      vertex 3.67262 -1.45409 12.3
      vertex 3.67262 -1.45409 0
    endloop
  endfacet
  facet normal -0.904827 -0.42578 0
    outer loop
      vertex -3.46141 -1.90293 0
      vertex -3.67262 -1.45409 12.3
      vertex -3.67262 -1.45409 0
    endloop
  endfacet
  facet normal -0.904827 -0.42578 0
    outer loop
      vertex -3.67262 -1.45409 12.3
      vertex -3.46141 -1.90293 0
      vertex -3.46141 -1.90293 12.3
    endloop
  endfacet
  facet normal -0.684547 0.728969 0
    outer loop
      vertex -2.51782 3.04353 0
      vertex -2.87943 2.70396 12.3
      vertex -2.51782 3.04353 12.3
    endloop
  endfacet
  facet normal -0.684547 0.728969 0
    outer loop
      vertex -2.87943 2.70396 12.3
      vertex -2.51782 3.04353 0
      vertex -2.87943 2.70396 0
    endloop
  endfacet
  facet normal 0.904827 -0.42578 0
    outer loop
      vertex 3.46141 -1.90293 12.3
      vertex 3.67262 -1.45409 0
      vertex 3.67262 -1.45409 12.3
    endloop
  endfacet
  facet normal 0.904827 -0.42578 0
    outer loop
      vertex 3.67262 -1.45409 0
      vertex 3.46141 -1.90293 12.3
      vertex 3.46141 -1.90293 0
    endloop
  endfacet
  facet normal -0.587785 0.809017 0
    outer loop
      vertex -2.11652 3.33509 0
      vertex -2.51782 3.04353 12.3
      vertex -2.11652 3.33509 12.3
    endloop
  endfacet
  facet normal -0.587785 0.809017 0
    outer loop
      vertex -2.51782 3.04353 12.3
      vertex -2.11652 3.33509 0
      vertex -2.51782 3.04353 0
    endloop
  endfacet
  facet normal 0.248691 -0.968583 0
    outer loop
      vertex 0.740156 -3.88003 0
      vertex 1.22062 -3.75667 12.3
      vertex 0.740156 -3.88003 12.3
    endloop
  endfacet
  facet normal 0.248691 -0.968583 0
    outer loop
      vertex 1.22062 -3.75667 12.3
      vertex 0.740156 -3.88003 0
      vertex 1.22062 -3.75667 0
    endloop
  endfacet
  facet normal -0.982287 0.187382 0
    outer loop
      vertex -3.91885 0.495066 0
      vertex -3.8259 0.982325 12.3
      vertex -3.8259 0.982325 0
    endloop
  endfacet
  facet normal -0.982287 0.187382 0
    outer loop
      vertex -3.8259 0.982325 12.3
      vertex -3.91885 0.495066 0
      vertex -3.91885 0.495066 12.3
    endloop
  endfacet
  facet normal -0.982287 -0.187382 0
    outer loop
      vertex -3.8259 -0.982325 0
      vertex -3.91885 -0.495066 12.3
      vertex -3.91885 -0.495066 0
    endloop
  endfacet
  facet normal -0.982287 -0.187382 0
    outer loop
      vertex -3.91885 -0.495066 12.3
      vertex -3.8259 -0.982325 0
      vertex -3.8259 -0.982325 12.3
    endloop
  endfacet
  facet normal -0.368125 0.929776 0
    outer loop
      vertex -1.22062 3.75667 0
      vertex -1.68183 3.57407 12.3
      vertex -1.22062 3.75667 12.3
    endloop
  endfacet
  facet normal -0.368125 0.929776 0
    outer loop
      vertex -1.68183 3.57407 12.3
      vertex -1.22062 3.75667 0
      vertex -1.68183 3.57407 0
    endloop
  endfacet
  facet normal -0.368125 -0.929776 0
    outer loop
      vertex -1.68183 -3.57407 0
      vertex -1.22062 -3.75667 12.3
      vertex -1.68183 -3.57407 12.3
    endloop
  endfacet
  facet normal -0.368125 -0.929776 -0
    outer loop
      vertex -1.22062 -3.75667 12.3
      vertex -1.68183 -3.57407 0
      vertex -1.22062 -3.75667 0
    endloop
  endfacet
  facet normal 0.587785 0.809017 -0
    outer loop
      vertex 2.51782 3.04353 0
      vertex 2.11652 3.33509 12.3
      vertex 2.51782 3.04353 12.3
    endloop
  endfacet
  facet normal 0.587785 0.809017 0
    outer loop
      vertex 2.11652 3.33509 12.3
      vertex 2.51782 3.04353 0
      vertex 2.11652 3.33509 0
    endloop
  endfacet
  facet normal -0.125333 -0.992115 0
    outer loop
      vertex -0.740156 -3.88003 0
      vertex -0.248022 -3.94221 12.3
      vertex -0.740156 -3.88003 12.3
    endloop
  endfacet
  facet normal -0.125333 -0.992115 -0
    outer loop
      vertex -0.248022 -3.94221 12.3
      vertex -0.740156 -3.88003 0
      vertex -0.248022 -3.94221 0
    endloop
  endfacet
  facet normal -0.248691 0.968583 0
    outer loop
      vertex -0.740156 3.88003 0
      vertex -1.22062 3.75667 12.3
      vertex -0.740156 3.88003 12.3
    endloop
  endfacet
  facet normal -0.248691 0.968583 0
    outer loop
      vertex -1.22062 3.75667 12.3
      vertex -0.740156 3.88003 0
      vertex -1.22062 3.75667 0
    endloop
  endfacet
  facet normal 0.998027 -0.0627907 0
    outer loop
      vertex 3.91885 -0.495066 12.3
      vertex 3.95 0 0
      vertex 3.95 0 12.3
    endloop
  endfacet
  facet normal 0.998027 -0.0627907 0
    outer loop
      vertex 3.95 0 0
      vertex 3.91885 -0.495066 12.3
      vertex 3.91885 -0.495066 0
    endloop
  endfacet
  facet normal 0.587785 -0.809017 0
    outer loop
      vertex 2.11652 -3.33509 0
      vertex 2.51782 -3.04353 12.3
      vertex 2.11652 -3.33509 12.3
    endloop
  endfacet
  facet normal 0.587785 -0.809017 0
    outer loop
      vertex 2.51782 -3.04353 12.3
      vertex 2.11652 -3.33509 0
      vertex 2.51782 -3.04353 0
    endloop
  endfacet
  facet normal 0 0 1
    outer loop
      vertex 2.05 0 12.3
      vertex 3.95 0 12.3
      vertex 3.91885 0.495066 12.3
    endloop
  endfacet
  facet normal 0 0 1
    outer loop
      vertex 1.99043 0.490597 12.3
      vertex 3.91885 0.495066 12.3
      vertex 3.8259 0.982325 12.3
    endloop
  endfacet
  facet normal 0 0 1
    outer loop
      vertex 3.95 0 12.3
      vertex 2.05 0 12.3
      vertex 3.91885 -0.495066 12.3
    endloop
  endfacet
  facet normal 0 0 1
    outer loop
      vertex 1.99043 0.490597 12.3
      vertex 3.8259 0.982325 12.3
      vertex 3.67262 1.45409 12.3
    endloop
  endfacet
  facet normal -0 0 1
    outer loop
      vertex 1.99043 -0.490597 12.3
      vertex 3.91885 -0.495066 12.3
      vertex 2.05 0 12.3
    endloop
  endfacet
  facet normal 0 0 1
    outer loop
      vertex 1.81518 0.952682 12.3
      vertex 3.67262 1.45409 12.3
      vertex 3.46141 1.90293 12.3
    endloop
  endfacet
  facet normal 0 0 1
    outer loop
      vertex 3.91885 -0.495066 12.3
      vertex 1.99043 -0.490597 12.3
      vertex 3.8259 -0.982325 12.3
    endloop
  endfacet
  facet normal 0 0 1
    outer loop
      vertex 1.81518 0.952682 12.3
      vertex 3.46141 1.90293 12.3
      vertex 3.19562 2.32175 12.3
    endloop
  endfacet
  facet normal 0 0 1
    outer loop
      vertex 3.8259 -0.982325 12.3
      vertex 1.99043 -0.490597 12.3
      vertex 3.67262 -1.45409 12.3
    endloop
  endfacet
  facet normal 0 0 1
    outer loop
      vertex 1.53445 1.3594 12.3
      vertex 3.19562 2.32175 12.3
      vertex 2.87943 2.70396 12.3
    endloop
  endfacet
  facet normal -0 0 1
    outer loop
      vertex 1.81518 -0.952682 12.3
      vertex 3.67262 -1.45409 12.3
      vertex 1.99043 -0.490597 12.3
    endloop
  endfacet
  facet normal 0 0 1
    outer loop
      vertex 1.53445 1.3594 12.3
      vertex 2.87943 2.70396 12.3
      vertex 2.51782 3.04353 12.3
    endloop
  endfacet
  facet normal 0 0 1
    outer loop
      vertex 3.67262 -1.45409 12.3
      vertex 1.81518 -0.952682 12.3
      vertex 3.46141 -1.90293 12.3
    endloop
  endfacet
  facet normal 0 0 1
    outer loop
      vertex 1.16453 1.68712 12.3
      vertex 2.51782 3.04353 12.3
      vertex 2.11652 3.33509 12.3
    endloop
  endfacet
  facet normal 0 0 1
    outer loop
      vertex 3.46141 -1.90293 12.3
      vertex 1.81518 -0.952682 12.3
      vertex 3.19562 -2.32175 12.3
    endloop
  endfacet
  facet normal -0 0 1
    outer loop
      vertex 1.53445 -1.3594 12.3
      vertex 3.19562 -2.32175 12.3
      vertex 1.81518 -0.952682 12.3
    endloop
  endfacet
  facet normal 0 0 1
    outer loop
      vertex 3.91885 0.495066 12.3
      vertex 1.99043 0.490597 12.3
      vertex 2.05 0 12.3
    endloop
  endfacet
  facet normal 0 0 1
    outer loop
      vertex 3.67262 1.45409 12.3
      vertex 1.81518 0.952682 12.3
      vertex 1.99043 0.490597 12.3
    endloop
  endfacet
  facet normal 0 0 1
    outer loop
      vertex 1.16453 1.68712 12.3
      vertex 2.11652 3.33509 12.3
      vertex 1.68183 3.57407 12.3
    endloop
  endfacet
  facet normal 0 0 1
    outer loop
      vertex 3.19562 2.32175 12.3
      vertex 1.53445 1.3594 12.3
      vertex 1.81518 0.952682 12.3
    endloop
  endfacet
  facet normal 0 0 1
    outer loop
      vertex 0.726939 1.91678 12.3
      vertex 1.68183 3.57407 12.3
      vertex 1.22062 3.75667 12.3
    endloop
  endfacet
  facet normal 0 0 1
    outer loop
      vertex 2.51782 3.04353 12.3
      vertex 1.16453 1.68712 12.3
      vertex 1.53445 1.3594 12.3
    endloop
  endfacet
  facet normal 0 0 1
    outer loop
      vertex 0.726939 1.91678 12.3
      vertex 1.22062 3.75667 12.3
      vertex 0.740156 3.88003 12.3
    endloop
  endfacet
  facet normal 0 0 1
    outer loop
      vertex 1.68183 3.57407 12.3
      vertex 0.726939 1.91678 12.3
      vertex 1.16453 1.68712 12.3
    endloop
  endfacet
  facet normal 0 0 1
    outer loop
      vertex 0.2471 2.03505 12.3
      vertex 0.740156 3.88003 12.3
      vertex 0.248022 3.94221 12.3
    endloop
  endfacet
  facet normal 0 0 1
    outer loop
      vertex 0.740156 3.88003 12.3
      vertex 0.2471 2.03505 12.3
      vertex 0.726939 1.91678 12.3
    endloop
  endfacet
  facet normal 0 0 1
    outer loop
      vertex 0.248022 3.94221 12.3
      vertex -0.2471 2.03505 12.3
      vertex 0.2471 2.03505 12.3
    endloop
  endfacet
  facet normal -0 0 1
    outer loop
      vertex -0.248022 3.94221 12.3
      vertex -0.2471 2.03505 12.3
      vertex 0.248022 3.94221 12.3
    endloop
  endfacet
  facet normal -0 0 1
    outer loop
      vertex -0.740156 3.88003 12.3
      vertex -0.2471 2.03505 12.3
      vertex -0.248022 3.94221 12.3
    endloop
  endfacet
  facet normal 0 0 1
    outer loop
      vertex -0.2471 2.03505 12.3
      vertex -0.740156 3.88003 12.3
      vertex -0.726939 1.91678 12.3
    endloop
  endfacet
  facet normal -0 0 1
    outer loop
      vertex -1.22062 3.75667 12.3
      vertex -0.726939 1.91678 12.3
      vertex -0.740156 3.88003 12.3
    endloop
  endfacet
  facet normal -0 0 1
    outer loop
      vertex -1.68183 3.57407 12.3
      vertex -0.726939 1.91678 12.3
      vertex -1.22062 3.75667 12.3
    endloop
  endfacet
  facet normal 0 0 1
    outer loop
      vertex -0.726939 1.91678 12.3
      vertex -1.68183 3.57407 12.3
      vertex -1.16453 1.68712 12.3
    endloop
  endfacet
  facet normal -0 0 1
    outer loop
      vertex -2.11652 3.33509 12.3
      vertex -1.16453 1.68712 12.3
      vertex -1.68183 3.57407 12.3
    endloop
  endfacet
  facet normal -0 0 1
    outer loop
      vertex -2.51782 3.04353 12.3
      vertex -1.16453 1.68712 12.3
      vertex -2.11652 3.33509 12.3
    endloop
  endfacet
  facet normal 0 0 1
    outer loop
      vertex -1.16453 1.68712 12.3
      vertex -2.51782 3.04353 12.3
      vertex -1.53445 1.3594 12.3
    endloop
  endfacet
  facet normal -0 0 1
    outer loop
      vertex -2.87943 2.70396 12.3
      vertex -1.53445 1.3594 12.3
      vertex -2.51782 3.04353 12.3
    endloop
  endfacet
  facet normal -0 0 1
    outer loop
      vertex -3.19562 2.32175 12.3
      vertex -1.53445 1.3594 12.3
      vertex -2.87943 2.70396 12.3
    endloop
  endfacet
  facet normal 0 0 1
    outer loop
      vertex 3.19562 -2.32175 12.3
      vertex 1.53445 -1.3594 12.3
      vertex 2.87943 -2.70396 12.3
    endloop
  endfacet
  facet normal 0 0 1
    outer loop
      vertex 2.87943 -2.70396 12.3
      vertex 1.53445 -1.3594 12.3
      vertex 2.51782 -3.04353 12.3
    endloop
  endfacet
  facet normal -0 0 1
    outer loop
      vertex 1.16453 -1.68712 12.3
      vertex 2.51782 -3.04353 12.3
      vertex 1.53445 -1.3594 12.3
    endloop
  endfacet
  facet normal 0 0 1
    outer loop
      vertex 2.51782 -3.04353 12.3
      vertex 1.16453 -1.68712 12.3
      vertex 2.11652 -3.33509 12.3
    endloop
  endfacet
  facet normal 0 0 1
    outer loop
      vertex 2.11652 -3.33509 12.3
      vertex 1.16453 -1.68712 12.3
      vertex 1.68183 -3.57407 12.3
    endloop
  endfacet
  facet normal -0 0 1
    outer loop
      vertex 0.726939 -1.91678 12.3
      vertex 1.68183 -3.57407 12.3
      vertex 1.16453 -1.68712 12.3
    endloop
  endfacet
  facet normal 0 0 1
    outer loop
      vertex 1.68183 -3.57407 12.3
      vertex 0.726939 -1.91678 12.3
      vertex 1.22062 -3.75667 12.3
    endloop
  endfacet
  facet normal 0 0 1
    outer loop
      vertex 1.22062 -3.75667 12.3
      vertex 0.726939 -1.91678 12.3
      vertex 0.740156 -3.88003 12.3
    endloop
  endfacet
  facet normal -0 0 1
    outer loop
      vertex 0.2471 -2.03505 12.3
      vertex 0.740156 -3.88003 12.3
      vertex 0.726939 -1.91678 12.3
    endloop
  endfacet
  facet normal 0 0 1
    outer loop
      vertex 0.740156 -3.88003 12.3
      vertex 0.2471 -2.03505 12.3
      vertex 0.248022 -3.94221 12.3
    endloop
  endfacet
  facet normal -0 0 1
    outer loop
      vertex -0.2471 -2.03505 12.3
      vertex 0.248022 -3.94221 12.3
      vertex 0.2471 -2.03505 12.3
    endloop
  endfacet
  facet normal 0 0 1
    outer loop
      vertex -0.2471 -2.03505 12.3
      vertex -0.248022 -3.94221 12.3
      vertex 0.248022 -3.94221 12.3
    endloop
  endfacet
  facet normal 0 0 1
    outer loop
      vertex -0.740156 -3.88003 12.3
      vertex -0.2471 -2.03505 12.3
      vertex -0.726939 -1.91678 12.3
    endloop
  endfacet
  facet normal 0 0 1
    outer loop
      vertex -0.2471 -2.03505 12.3
      vertex -0.740156 -3.88003 12.3
      vertex -0.248022 -3.94221 12.3
    endloop
  endfacet
  facet normal 0 0 1
    outer loop
      vertex -1.68183 -3.57407 12.3
      vertex -0.726939 -1.91678 12.3
      vertex -1.16453 -1.68712 12.3
    endloop
  endfacet
  facet normal 0 0 1
    outer loop
      vertex -0.726939 -1.91678 12.3
      vertex -1.22062 -3.75667 12.3
      vertex -0.740156 -3.88003 12.3
    endloop
  endfacet
  facet normal 0 0 1
    outer loop
      vertex -2.51782 -3.04353 12.3
      vertex -1.16453 -1.68712 12.3
      vertex -1.53445 -1.3594 12.3
    endloop
  endfacet
  facet normal 0 0 1
    outer loop
      vertex -0.726939 -1.91678 12.3
      vertex -1.68183 -3.57407 12.3
      vertex -1.22062 -3.75667 12.3
    endloop
  endfacet
  facet normal 0 0 1
    outer loop
      vertex -3.19562 -2.32175 12.3
      vertex -1.53445 -1.3594 12.3
      vertex -1.81518 -0.952682 12.3
    endloop
  endfacet
  facet normal 0 0 1
    outer loop
      vertex -3.67262 -1.45409 12.3
      vertex -1.81518 -0.952682 12.3
      vertex -1.99043 -0.490597 12.3
    endloop
  endfacet
  facet normal 0 0 1
    outer loop
      vertex -3.91885 -0.495066 12.3
      vertex -1.99043 -0.490597 12.3
      vertex -2.05 0 12.3
    endloop
  endfacet
  facet normal 0 0 1
    outer loop
      vertex -1.16453 -1.68712 12.3
      vertex -2.11652 -3.33509 12.3
      vertex -1.68183 -3.57407 12.3
    endloop
  endfacet
  facet normal 0 0 1
    outer loop
      vertex -1.53445 1.3594 12.3
      vertex -3.19562 2.32175 12.3
      vertex -1.81518 0.952682 12.3
    endloop
  endfacet
  facet normal -0 0 1
    outer loop
      vertex -3.46141 1.90293 12.3
      vertex -1.81518 0.952682 12.3
      vertex -3.19562 2.32175 12.3
    endloop
  endfacet
  facet normal 0 0 1
    outer loop
      vertex -1.16453 -1.68712 12.3
      vertex -2.51782 -3.04353 12.3
      vertex -2.11652 -3.33509 12.3
    endloop
  endfacet
  facet normal -0 0 1
    outer loop
      vertex -3.67262 1.45409 12.3
      vertex -1.81518 0.952682 12.3
      vertex -3.46141 1.90293 12.3
    endloop
  endfacet
  facet normal 0 0 1
    outer loop
      vertex -1.53445 -1.3594 12.3
      vertex -2.87943 -2.70396 12.3
      vertex -2.51782 -3.04353 12.3
    endloop
  endfacet
  facet normal 0 0 1
    outer loop
      vertex -1.81518 0.952682 12.3
      vertex -3.67262 1.45409 12.3
      vertex -1.99043 0.490597 12.3
    endloop
  endfacet
  facet normal 0 0 1
    outer loop
      vertex -1.53445 -1.3594 12.3
      vertex -3.19562 -2.32175 12.3
      vertex -2.87943 -2.70396 12.3
    endloop
  endfacet
  facet normal -0 0 1
    outer loop
      vertex -3.8259 0.982325 12.3
      vertex -1.99043 0.490597 12.3
      vertex -3.67262 1.45409 12.3
    endloop
  endfacet
  facet normal 0 0 1
    outer loop
      vertex -1.81518 -0.952682 12.3
      vertex -3.46141 -1.90293 12.3
      vertex -3.19562 -2.32175 12.3
    endloop
  endfacet
  facet normal -0 0 1
    outer loop
      vertex -3.91885 0.495066 12.3
      vertex -1.99043 0.490597 12.3
      vertex -3.8259 0.982325 12.3
    endloop
  endfacet
  facet normal 0 0 1
    outer loop
      vertex -1.81518 -0.952682 12.3
      vertex -3.67262 -1.45409 12.3
      vertex -3.46141 -1.90293 12.3
    endloop
  endfacet
  facet normal 0 0 1
    outer loop
      vertex -1.99043 0.490597 12.3
      vertex -3.91885 0.495066 12.3
      vertex -2.05 0 12.3
    endloop
  endfacet
  facet normal 0 0 1
    outer loop
      vertex -1.99043 -0.490597 12.3
      vertex -3.8259 -0.982325 12.3
      vertex -3.67262 -1.45409 12.3
    endloop
  endfacet
  facet normal 0 0 1
    outer loop
      vertex -3.95 0 12.3
      vertex -2.05 0 12.3
      vertex -3.91885 0.495066 12.3
    endloop
  endfacet
  facet normal 0 0 1
    outer loop
      vertex -1.99043 -0.490597 12.3
      vertex -3.91885 -0.495066 12.3
      vertex -3.8259 -0.982325 12.3
    endloop
  endfacet
  facet normal 0 0 1
    outer loop
      vertex -2.05 0 12.3
      vertex -3.95 0 12.3
      vertex -3.91885 -0.495066 12.3
    endloop
  endfacet
  facet normal -0.587785 -0.809017 0
    outer loop
      vertex -2.51782 -3.04353 0
      vertex -2.11652 -3.33509 12.3
      vertex -2.51782 -3.04353 12.3
    endloop
  endfacet
  facet normal -0.587785 -0.809017 -0
    outer loop
      vertex -2.11652 -3.33509 12.3
      vertex -2.51782 -3.04353 0
      vertex -2.11652 -3.33509 0
    endloop
  endfacet
  facet normal 0.368125 -0.929776 0
    outer loop
      vertex 1.22062 -3.75667 0
      vertex 1.68183 -3.57407 12.3
      vertex 1.22062 -3.75667 12.3
    endloop
  endfacet
  facet normal 0.368125 -0.929776 0
    outer loop
      vertex 1.68183 -3.57407 12.3
      vertex 1.22062 -3.75667 0
      vertex 1.68183 -3.57407 0
    endloop
  endfacet
  facet normal 0.844329 -0.535826 0
    outer loop
      vertex 3.19562 -2.32175 12.3
      vertex 3.46141 -1.90293 0
      vertex 3.46141 -1.90293 12.3
    endloop
  endfacet
  facet normal 0.844329 -0.535826 0
    outer loop
      vertex 3.46141 -1.90293 0
      vertex 3.19562 -2.32175 12.3
      vertex 3.19562 -2.32175 0
    endloop
  endfacet
  facet normal -0.481754 -0.876307 0
    outer loop
      vertex -2.11652 -3.33509 0
      vertex -1.68183 -3.57407 12.3
      vertex -2.11652 -3.33509 12.3
    endloop
  endfacet
  facet normal -0.481754 -0.876307 -0
    outer loop
      vertex -1.68183 -3.57407 12.3
      vertex -2.11652 -3.33509 0
      vertex -1.68183 -3.57407 0
    endloop
  endfacet
  facet normal -0.248691 -0.968583 0
    outer loop
      vertex -1.22062 -3.75667 0
      vertex -0.740156 -3.88003 12.3
      vertex -1.22062 -3.75667 12.3
    endloop
  endfacet
  facet normal -0.248691 -0.968583 -0
    outer loop
      vertex -0.740156 -3.88003 12.3
      vertex -1.22062 -3.75667 0
      vertex -0.740156 -3.88003 0
    endloop
  endfacet
  facet normal -0.770513 0.637424 0
    outer loop
      vertex -3.19562 2.32175 0
      vertex -2.87943 2.70396 12.3
      vertex -2.87943 2.70396 0
    endloop
  endfacet
  facet normal -0.770513 0.637424 0
    outer loop
      vertex -2.87943 2.70396 12.3
      vertex -3.19562 2.32175 0
      vertex -3.19562 2.32175 12.3
    endloop
  endfacet
  facet normal 0.125333 -0.992115 0
    outer loop
      vertex 0.248022 -3.94221 0
      vertex 0.740156 -3.88003 12.3
      vertex 0.248022 -3.94221 12.3
    endloop
  endfacet
  facet normal 0.125333 -0.992115 0
    outer loop
      vertex 0.740156 -3.88003 12.3
      vertex 0.248022 -3.94221 0
      vertex 0.740156 -3.88003 0
    endloop
  endfacet
  facet normal -0.998027 -0.0627907 0
    outer loop
      vertex -3.91885 -0.495066 0
      vertex -3.95 0 12.3
      vertex -3.95 0 0
    endloop
  endfacet
  facet normal -0.998027 -0.0627907 0
    outer loop
      vertex -3.95 0 12.3
      vertex -3.91885 -0.495066 0
      vertex -3.91885 -0.495066 12.3
    endloop
  endfacet
  facet normal -0.770513 -0.637424 0
    outer loop
      vertex -2.87943 -2.70396 0
      vertex -3.19562 -2.32175 12.3
      vertex -3.19562 -2.32175 0
    endloop
  endfacet
  facet normal -0.770513 -0.637424 0
    outer loop
      vertex -3.19562 -2.32175 12.3
      vertex -2.87943 -2.70396 0
      vertex -2.87943 -2.70396 12.3
    endloop
  endfacet
  facet normal 0.684547 0.728969 -0
    outer loop
      vertex 2.87943 2.70396 0
      vertex 2.51782 3.04353 12.3
      vertex 2.87943 2.70396 12.3
    endloop
  endfacet
  facet normal 0.684547 0.728969 0
    outer loop
      vertex 2.51782 3.04353 12.3
      vertex 2.87943 2.70396 0
      vertex 2.51782 3.04353 0
    endloop
  endfacet
  facet normal -0.998027 0.0627907 0
    outer loop
      vertex -3.95 0 0
      vertex -3.91885 0.495066 12.3
      vertex -3.91885 0.495066 0
    endloop
  endfacet
  facet normal -0.998027 0.0627907 0
    outer loop
      vertex -3.91885 0.495066 12.3
      vertex -3.95 0 0
      vertex -3.95 0 12.3
    endloop
  endfacet
  facet normal 0.481754 -0.876307 0
    outer loop
      vertex 1.68183 -3.57407 0
      vertex 2.11652 -3.33509 12.3
      vertex 1.68183 -3.57407 12.3
    endloop
  endfacet
  facet normal 0.481754 -0.876307 0
    outer loop
      vertex 2.11652 -3.33509 12.3
      vertex 1.68183 -3.57407 0
      vertex 2.11652 -3.33509 0
    endloop
  endfacet
  facet normal -0.844329 -0.535826 0
    outer loop
      vertex -3.19562 -2.32175 0
      vertex -3.46141 -1.90293 12.3
      vertex -3.46141 -1.90293 0
    endloop
  endfacet
  facet normal -0.844329 -0.535826 0
    outer loop
      vertex -3.46141 -1.90293 12.3
      vertex -3.19562 -2.32175 0
      vertex -3.19562 -2.32175 12.3
    endloop
  endfacet
  facet normal 0.770513 -0.637424 0
    outer loop
      vertex 2.87943 -2.70396 12.3
      vertex 3.19562 -2.32175 0
      vertex 3.19562 -2.32175 12.3
    endloop
  endfacet
  facet normal 0.770513 -0.637424 0
    outer loop
      vertex 3.19562 -2.32175 0
      vertex 2.87943 -2.70396 12.3
      vertex 2.87943 -2.70396 0
    endloop
  endfacet
  facet normal 0 -1 0
    outer loop
      vertex -0.248022 -3.94221 0
      vertex 0.248022 -3.94221 12.3
      vertex -0.248022 -3.94221 12.3
    endloop
  endfacet
  facet normal 0 -1 -0
    outer loop
      vertex 0.248022 -3.94221 12.3
      vertex -0.248022 -3.94221 0
      vertex 0.248022 -3.94221 0
    endloop
  endfacet
  facet normal 0.684547 -0.728969 0
    outer loop
      vertex 2.51782 -3.04353 0
      vertex 2.87943 -2.70396 12.3
      vertex 2.51782 -3.04353 12.3
    endloop
  endfacet
  facet normal 0.684547 -0.728969 0
    outer loop
      vertex 2.87943 -2.70396 12.3
      vertex 2.51782 -3.04353 0
      vertex 2.87943 -2.70396 0
    endloop
  endfacet
  facet normal -0.951057 0.309017 0
    outer loop
      vertex -3.8259 0.982325 0
      vertex -3.67262 1.45409 12.3
      vertex -3.67262 1.45409 0
    endloop
  endfacet
  facet normal -0.951057 0.309017 0
    outer loop
      vertex -3.67262 1.45409 12.3
      vertex -3.8259 0.982325 0
      vertex -3.8259 0.982325 12.3
    endloop
  endfacet
  facet normal -0.951057 -0.309017 0
    outer loop
      vertex -3.67262 -1.45409 0
      vertex -3.8259 -0.982325 12.3
      vertex -3.8259 -0.982325 0
    endloop
  endfacet
  facet normal -0.951057 -0.309017 0
    outer loop
      vertex -3.8259 -0.982325 12.3
      vertex -3.67262 -1.45409 0
      vertex -3.67262 -1.45409 12.3
    endloop
  endfacet
  facet normal -0.844329 0.535826 0
    outer loop
      vertex -3.46141 1.90293 0
      vertex -3.19562 2.32175 12.3
      vertex -3.19562 2.32175 0
    endloop
  endfacet
  facet normal -0.844329 0.535826 0
    outer loop
      vertex -3.19562 2.32175 12.3
      vertex -3.46141 1.90293 0
      vertex -3.46141 1.90293 12.3
    endloop
  endfacet
  facet normal 0.770513 0.637424 0
    outer loop
      vertex 3.19562 2.32175 12.3
      vertex 2.87943 2.70396 0
      vertex 2.87943 2.70396 12.3
    endloop
  endfacet
  facet normal 0.770513 0.637424 0
    outer loop
      vertex 2.87943 2.70396 0
      vertex 3.19562 2.32175 12.3
      vertex 3.19562 2.32175 0
    endloop
  endfacet
  facet normal -0.904827 0.42578 0
    outer loop
      vertex -3.67262 1.45409 0
      vertex -3.46141 1.90293 12.3
      vertex -3.46141 1.90293 0
    endloop
  endfacet
  facet normal -0.904827 0.42578 0
    outer loop
      vertex -3.46141 1.90293 12.3
      vertex -3.67262 1.45409 0
      vertex -3.67262 1.45409 12.3
    endloop
  endfacet
  facet normal -0.92388 -0.382683 0
    outer loop
      vertex 1.83526 0.491755 -1.8
      vertex 1.64545 0.95 6.3
      vertex 1.64545 0.95 -1.8
    endloop
  endfacet
  facet normal -0.92388 -0.382683 0
    outer loop
      vertex 1.64545 0.95 6.3
      vertex 1.83526 0.491755 -1.8
      vertex 1.83526 0.491755 6.3
    endloop
  endfacet
  facet normal 0.793353 -0.608762 0
    outer loop
      vertex -1.64545 0.95 6.3
      vertex -1.3435 1.3435 -1.8
      vertex -1.3435 1.3435 6.3
    endloop
  endfacet
  facet normal 0.793353 -0.608762 0
    outer loop
      vertex -1.3435 1.3435 -1.8
      vertex -1.64545 0.95 6.3
      vertex -1.64545 0.95 -1.8
    endloop
  endfacet
  facet normal 0.991445 -0.130527 0
    outer loop
      vertex -1.9 0 6.3
      vertex -1.83526 0.491755 -1.8
      vertex -1.83526 0.491755 6.3
    endloop
  endfacet
  facet normal 0.991445 -0.130527 0
    outer loop
      vertex -1.83526 0.491755 -1.8
      vertex -1.9 0 6.3
      vertex -1.9 0 -1.8
    endloop
  endfacet
  facet normal 0.130527 0.991445 1.59849e-17
    outer loop
      vertex 2.21661e-15 -1.9 -1.8
      vertex -0.491755 -1.83526 6.3
      vertex 1.22465e-15 -1.9 6.3
    endloop
  endfacet
  facet normal 0.130527 0.991445 0
    outer loop
      vertex -0.491755 -1.83526 6.3
      vertex 2.21661e-15 -1.9 -1.8
      vertex -0.491755 -1.83526 -1.8
    endloop
  endfacet
  facet normal -0.608762 0.793353 0
    outer loop
      vertex 1.3435 -1.3435 -1.8
      vertex 0.95 -1.64545 6.3
      vertex 1.3435 -1.3435 6.3
    endloop
  endfacet
  facet normal -0.608762 0.793353 0
    outer loop
      vertex 0.95 -1.64545 6.3
      vertex 1.3435 -1.3435 -1.8
      vertex 0.95 -1.64545 -1.8
    endloop
  endfacet
  facet normal 0.92388 0.382683 0
    outer loop
      vertex -1.64545 -0.95 6.3
      vertex -1.83526 -0.491755 -1.8
      vertex -1.83526 -0.491755 6.3
    endloop
  endfacet
  facet normal 0.92388 0.382683 0
    outer loop
      vertex -1.83526 -0.491755 -1.8
      vertex -1.64545 -0.95 6.3
      vertex -1.64545 -0.95 -1.8
    endloop
  endfacet
  facet normal 0.92388 -0.382683 0
    outer loop
      vertex -1.83526 0.491755 6.3
      vertex -1.64545 0.95 -1.8
      vertex -1.64545 0.95 6.3
    endloop
  endfacet
  facet normal 0.92388 -0.382683 0
    outer loop
      vertex -1.64545 0.95 -1.8
      vertex -1.83526 0.491755 6.3
      vertex -1.83526 0.491755 -1.8
    endloop
  endfacet
  facet normal -0.793353 0.608762 0
    outer loop
      vertex 1.3435 -1.3435 -1.8
      vertex 1.64545 -0.95 6.3
      vertex 1.64545 -0.95 -1.8
    endloop
  endfacet
  facet normal -0.793353 0.608762 0
    outer loop
      vertex 1.64545 -0.95 6.3
      vertex 1.3435 -1.3435 -1.8
      vertex 1.3435 -1.3435 6.3
    endloop
  endfacet
  facet normal 0.793353 0.608762 0
    outer loop
      vertex -1.3435 -1.3435 6.3
      vertex -1.64545 -0.95 -1.8
      vertex -1.64545 -0.95 6.3
    endloop
  endfacet
  facet normal 0.793353 0.608762 0
    outer loop
      vertex -1.64545 -0.95 -1.8
      vertex -1.3435 -1.3435 6.3
      vertex -1.3435 -1.3435 -1.8
    endloop
  endfacet
  facet normal -0.608762 -0.793353 0
    outer loop
      vertex 0.95 1.64545 -1.8
      vertex 1.3435 1.3435 6.3
      vertex 0.95 1.64545 6.3
    endloop
  endfacet
  facet normal -0.608762 -0.793353 -0
    outer loop
      vertex 1.3435 1.3435 6.3
      vertex 0.95 1.64545 -1.8
      vertex 1.3435 1.3435 -1.8
    endloop
  endfacet
  facet normal 0.608762 0.793353 -0
    outer loop
      vertex -0.95 -1.64545 -1.8
      vertex -1.3435 -1.3435 6.3
      vertex -0.95 -1.64545 6.3
    endloop
  endfacet
  facet normal 0.608762 0.793353 0
    outer loop
      vertex -1.3435 -1.3435 6.3
      vertex -0.95 -1.64545 -1.8
      vertex -1.3435 -1.3435 -1.8
    endloop
  endfacet
  facet normal -0.793353 -0.608762 0
    outer loop
      vertex 1.64545 0.95 -1.8
      vertex 1.3435 1.3435 6.3
      vertex 1.3435 1.3435 -1.8
    endloop
  endfacet
  facet normal -0.793353 -0.608762 0
    outer loop
      vertex 1.3435 1.3435 6.3
      vertex 1.64545 0.95 -1.8
      vertex 1.64545 0.95 6.3
    endloop
  endfacet
  facet normal 0.382683 -0.92388 0
    outer loop
      vertex -0.95 1.64545 -1.8
      vertex -0.491755 1.83526 6.3
      vertex -0.95 1.64545 6.3
    endloop
  endfacet
  facet normal 0.382683 -0.92388 0
    outer loop
      vertex -0.491755 1.83526 6.3
      vertex -0.95 1.64545 -1.8
      vertex -0.491755 1.83526 -1.8
    endloop
  endfacet
  facet normal -0.130527 -0.991445 -1.59849e-17
    outer loop
      vertex 2.21661e-15 1.9 -1.8
      vertex 0.491755 1.83526 6.3
      vertex 1.22465e-15 1.9 6.3
    endloop
  endfacet
  facet normal -0.130527 -0.991445 -0
    outer loop
      vertex 0.491755 1.83526 6.3
      vertex 2.21661e-15 1.9 -1.8
      vertex 0.491755 1.83526 -1.8
    endloop
  endfacet
  facet normal 0.130527 -0.991445 0
    outer loop
      vertex -0.491755 1.83526 -1.8
      vertex 1.22465e-15 1.9 6.3
      vertex -0.491755 1.83526 6.3
    endloop
  endfacet
  facet normal 0.130527 -0.991445 1.59849e-17
    outer loop
      vertex 1.22465e-15 1.9 6.3
      vertex -0.491755 1.83526 -1.8
      vertex 2.21661e-15 1.9 -1.8
    endloop
  endfacet
  facet normal -0.382683 0.92388 0
    outer loop
      vertex 0.95 -1.64545 -1.8
      vertex 0.491755 -1.83526 6.3
      vertex 0.95 -1.64545 6.3
    endloop
  endfacet
  facet normal -0.382683 0.92388 0
    outer loop
      vertex 0.491755 -1.83526 6.3
      vertex 0.95 -1.64545 -1.8
      vertex 0.491755 -1.83526 -1.8
    endloop
  endfacet
  facet normal -0.382683 -0.92388 0
    outer loop
      vertex 0.491755 1.83526 -1.8
      vertex 0.95 1.64545 6.3
      vertex 0.491755 1.83526 6.3
    endloop
  endfacet
  facet normal -0.382683 -0.92388 -0
    outer loop
      vertex 0.95 1.64545 6.3
      vertex 0.491755 1.83526 -1.8
      vertex 0.95 1.64545 -1.8
    endloop
  endfacet
  facet normal -0.991445 -0.130527 0
    outer loop
      vertex 1.9 0 -1.8
      vertex 1.83526 0.491755 6.3
      vertex 1.83526 0.491755 -1.8
    endloop
  endfacet
  facet normal -0.991445 -0.130527 0
    outer loop
      vertex 1.83526 0.491755 6.3
      vertex 1.9 0 -1.8
      vertex 1.9 0 6.3
    endloop
  endfacet
  facet normal -0.991445 0.130527 0
    outer loop
      vertex 1.83526 -0.491755 -1.8
      vertex 1.9 0 6.3
      vertex 1.9 0 -1.8
    endloop
  endfacet
  facet normal -0.991445 0.130527 0
    outer loop
      vertex 1.9 0 6.3
      vertex 1.83526 -0.491755 -1.8
      vertex 1.83526 -0.491755 6.3
    endloop
  endfacet
  facet normal 0.608762 -0.793353 0
    outer loop
      vertex -1.3435 1.3435 -1.8
      vertex -0.95 1.64545 6.3
      vertex -1.3435 1.3435 6.3
    endloop
  endfacet
  facet normal 0.608762 -0.793353 0
    outer loop
      vertex -0.95 1.64545 6.3
      vertex -1.3435 1.3435 -1.8
      vertex -0.95 1.64545 -1.8
    endloop
  endfacet
  facet normal -0.130527 0.991445 0
    outer loop
      vertex 0.491755 -1.83526 -1.8
      vertex 1.22465e-15 -1.9 6.3
      vertex 0.491755 -1.83526 6.3
    endloop
  endfacet
  facet normal -0.130527 0.991445 -1.59849e-17
    outer loop
      vertex 1.22465e-15 -1.9 6.3
      vertex 0.491755 -1.83526 -1.8
      vertex 2.21661e-15 -1.9 -1.8
    endloop
  endfacet
  facet normal 0.382683 0.92388 -0
    outer loop
      vertex -0.491755 -1.83526 -1.8
      vertex -0.95 -1.64545 6.3
      vertex -0.491755 -1.83526 6.3
    endloop
  endfacet
  facet normal 0.382683 0.92388 0
    outer loop
      vertex -0.95 -1.64545 6.3
      vertex -0.491755 -1.83526 -1.8
      vertex -0.95 -1.64545 -1.8
    endloop
  endfacet
  facet normal -0.92388 0.382683 0
    outer loop
      vertex 1.64545 -0.95 -1.8
      vertex 1.83526 -0.491755 6.3
      vertex 1.83526 -0.491755 -1.8
    endloop
  endfacet
  facet normal -0.92388 0.382683 0
    outer loop
      vertex 1.83526 -0.491755 6.3
      vertex 1.64545 -0.95 -1.8
      vertex 1.64545 -0.95 6.3
    endloop
  endfacet
  facet normal 0.991445 0.130527 0
    outer loop
      vertex -1.83526 -0.491755 6.3
      vertex -1.9 0 -1.8
      vertex -1.9 0 6.3
    endloop
  endfacet
  facet normal 0.991445 0.130527 0
    outer loop
      vertex -1.9 0 -1.8
      vertex -1.83526 -0.491755 6.3
      vertex -1.83526 -0.491755 -1.8
    endloop
  endfacet
  facet normal 0.992709 0.120537 0
    outer loop
      vertex -1.99043 -0.490597 12.3
      vertex -2.05 0 6.3
      vertex -2.05 0 12.3
    endloop
  endfacet
  facet normal 0.992709 0.120537 0
    outer loop
      vertex -2.05 0 6.3
      vertex -1.99043 -0.490597 12.3
      vertex -1.99043 -0.490597 6.3
    endloop
  endfacet
  facet normal 0.935017 -0.354604 0
    outer loop
      vertex -1.99043 0.490597 12.3
      vertex -1.81518 0.952682 6.3
      vertex -1.81518 0.952682 12.3
    endloop
  endfacet
  facet normal 0.935017 -0.354604 0
    outer loop
      vertex -1.81518 0.952682 6.3
      vertex -1.99043 0.490597 12.3
      vertex -1.99043 0.490597 6.3
    endloop
  endfacet
  facet normal 0.992709 -0.120537 0
    outer loop
      vertex -2.05 0 12.3
      vertex -1.99043 0.490597 6.3
      vertex -1.99043 0.490597 12.3
    endloop
  endfacet
  facet normal 0.992709 -0.120537 0
    outer loop
      vertex -1.99043 0.490597 6.3
      vertex -2.05 0 12.3
      vertex -2.05 0 6.3
    endloop
  endfacet
  facet normal -0.464722 0.885457 0
    outer loop
      vertex 1.16453 -1.68712 6.3
      vertex 0.726939 -1.91678 12.3
      vertex 1.16453 -1.68712 12.3
    endloop
  endfacet
  facet normal -0.464722 0.885457 0
    outer loop
      vertex 0.726939 -1.91678 12.3
      vertex 1.16453 -1.68712 6.3
      vertex 0.726939 -1.91678 6.3
    endloop
  endfacet
  facet normal -0.992709 0.120537 0
    outer loop
      vertex 1.99043 -0.490597 6.3
      vertex 2.05 0 12.3
      vertex 2.05 0 6.3
    endloop
  endfacet
  facet normal -0.992709 0.120537 0
    outer loop
      vertex 2.05 0 12.3
      vertex 1.99043 -0.490597 6.3
      vertex 1.99043 -0.490597 12.3
    endloop
  endfacet
  facet normal -0.822983 -0.568065 0
    outer loop
      vertex 1.81518 0.952682 6.3
      vertex 1.53445 1.3594 12.3
      vertex 1.53445 1.3594 6.3
    endloop
  endfacet
  facet normal -0.822983 -0.568065 0
    outer loop
      vertex 1.53445 1.3594 12.3
      vertex 1.81518 0.952682 6.3
      vertex 1.81518 0.952682 12.3
    endloop
  endfacet
  facet normal -0.663123 -0.74851 0
    outer loop
      vertex 1.16453 1.68712 6.3
      vertex 1.53445 1.3594 12.3
      vertex 1.16453 1.68712 12.3
    endloop
  endfacet
  facet normal -0.663123 -0.74851 -0
    outer loop
      vertex 1.53445 1.3594 12.3
      vertex 1.16453 1.68712 6.3
      vertex 1.53445 1.3594 6.3
    endloop
  endfacet
  facet normal -0.239316 -0.970942 0
    outer loop
      vertex 0.2471 2.03505 6.3
      vertex 0.726939 1.91678 12.3
      vertex 0.2471 2.03505 12.3
    endloop
  endfacet
  facet normal -0.239316 -0.970942 -0
    outer loop
      vertex 0.726939 1.91678 12.3
      vertex 0.2471 2.03505 6.3
      vertex 0.726939 1.91678 6.3
    endloop
  endfacet
  facet normal 0 0 1
    outer loop
      vertex 1.9 0 6.3
      vertex 2.05 0 6.3
      vertex 1.99043 0.490597 6.3
    endloop
  endfacet
  facet normal 0 0 1
    outer loop
      vertex 2.05 0 6.3
      vertex 1.9 0 6.3
      vertex 1.99043 -0.490597 6.3
    endloop
  endfacet
  facet normal 0 0 1
    outer loop
      vertex 1.99043 0.490597 6.3
      vertex 1.83526 0.491755 6.3
      vertex 1.9 0 6.3
    endloop
  endfacet
  facet normal 0 0 1
    outer loop
      vertex 1.81518 0.952682 6.3
      vertex 1.83526 0.491755 6.3
      vertex 1.99043 0.490597 6.3
    endloop
  endfacet
  facet normal 0 0 1
    outer loop
      vertex 1.81518 0.952682 6.3
      vertex 1.64545 0.95 6.3
      vertex 1.83526 0.491755 6.3
    endloop
  endfacet
  facet normal 0 0 1
    outer loop
      vertex 1.53445 1.3594 6.3
      vertex 1.64545 0.95 6.3
      vertex 1.81518 0.952682 6.3
    endloop
  endfacet
  facet normal 0 0 1
    outer loop
      vertex 1.53445 1.3594 6.3
      vertex 1.3435 1.3435 6.3
      vertex 1.64545 0.95 6.3
    endloop
  endfacet
  facet normal 0 0 1
    outer loop
      vertex 1.16453 1.68712 6.3
      vertex 1.3435 1.3435 6.3
      vertex 1.53445 1.3594 6.3
    endloop
  endfacet
  facet normal 0 0 1
    outer loop
      vertex 1.16453 1.68712 6.3
      vertex 0.95 1.64545 6.3
      vertex 1.3435 1.3435 6.3
    endloop
  endfacet
  facet normal 0 0 1
    outer loop
      vertex 0.726939 1.91678 6.3
      vertex 0.95 1.64545 6.3
      vertex 1.16453 1.68712 6.3
    endloop
  endfacet
  facet normal 0 0 1
    outer loop
      vertex 0.726939 1.91678 6.3
      vertex 0.491755 1.83526 6.3
      vertex 0.95 1.64545 6.3
    endloop
  endfacet
  facet normal 0 0 1
    outer loop
      vertex 0.2471 2.03505 6.3
      vertex 0.491755 1.83526 6.3
      vertex 0.726939 1.91678 6.3
    endloop
  endfacet
  facet normal 0 0 1
    outer loop
      vertex 0.2471 2.03505 6.3
      vertex 1.22465e-15 1.9 6.3
      vertex 0.491755 1.83526 6.3
    endloop
  endfacet
  facet normal -0 0 1
    outer loop
      vertex -0.2471 2.03505 6.3
      vertex 1.22465e-15 1.9 6.3
      vertex 0.2471 2.03505 6.3
    endloop
  endfacet
  facet normal 0 0 1
    outer loop
      vertex -0.2471 2.03505 6.3
      vertex -0.491755 1.83526 6.3
      vertex 1.22465e-15 1.9 6.3
    endloop
  endfacet
  facet normal -0 0 1
    outer loop
      vertex -0.726939 1.91678 6.3
      vertex -0.491755 1.83526 6.3
      vertex -0.2471 2.03505 6.3
    endloop
  endfacet
  facet normal 0 0 1
    outer loop
      vertex -0.726939 1.91678 6.3
      vertex -0.95 1.64545 6.3
      vertex -0.491755 1.83526 6.3
    endloop
  endfacet
  facet normal -0 0 1
    outer loop
      vertex -1.16453 1.68712 6.3
      vertex -0.95 1.64545 6.3
      vertex -0.726939 1.91678 6.3
    endloop
  endfacet
  facet normal 0 0 1
    outer loop
      vertex -1.16453 1.68712 6.3
      vertex -1.3435 1.3435 6.3
      vertex -0.95 1.64545 6.3
    endloop
  endfacet
  facet normal -0 0 1
    outer loop
      vertex -1.53445 1.3594 6.3
      vertex -1.3435 1.3435 6.3
      vertex -1.16453 1.68712 6.3
    endloop
  endfacet
  facet normal 0 0 1
    outer loop
      vertex -1.53445 1.3594 6.3
      vertex -1.64545 0.95 6.3
      vertex -1.3435 1.3435 6.3
    endloop
  endfacet
  facet normal -0 0 1
    outer loop
      vertex -1.81518 0.952682 6.3
      vertex -1.64545 0.95 6.3
      vertex -1.53445 1.3594 6.3
    endloop
  endfacet
  facet normal 0 0 1
    outer loop
      vertex -1.81518 0.952682 6.3
      vertex -1.83526 0.491755 6.3
      vertex -1.64545 0.95 6.3
    endloop
  endfacet
  facet normal 0 0 1
    outer loop
      vertex -1.99043 0.490597 6.3
      vertex -1.83526 0.491755 6.3
      vertex -1.81518 0.952682 6.3
    endloop
  endfacet
  facet normal 0 0 1
    outer loop
      vertex -1.83526 0.491755 6.3
      vertex -1.99043 0.490597 6.3
      vertex -1.9 0 6.3
    endloop
  endfacet
  facet normal 0 0 1
    outer loop
      vertex 1.83526 -0.491755 6.3
      vertex 1.99043 -0.490597 6.3
      vertex 1.9 0 6.3
    endloop
  endfacet
  facet normal -0 0 1
    outer loop
      vertex 1.83526 -0.491755 6.3
      vertex 1.81518 -0.952682 6.3
      vertex 1.99043 -0.490597 6.3
    endloop
  endfacet
  facet normal -0 0 1
    outer loop
      vertex 1.64545 -0.95 6.3
      vertex 1.81518 -0.952682 6.3
      vertex 1.83526 -0.491755 6.3
    endloop
  endfacet
  facet normal 0 0 1
    outer loop
      vertex 1.64545 -0.95 6.3
      vertex 1.53445 -1.3594 6.3
      vertex 1.81518 -0.952682 6.3
    endloop
  endfacet
  facet normal -0 0 1
    outer loop
      vertex 1.3435 -1.3435 6.3
      vertex 1.53445 -1.3594 6.3
      vertex 1.64545 -0.95 6.3
    endloop
  endfacet
  facet normal 0 0 1
    outer loop
      vertex 1.3435 -1.3435 6.3
      vertex 1.16453 -1.68712 6.3
      vertex 1.53445 -1.3594 6.3
    endloop
  endfacet
  facet normal -0 0 1
    outer loop
      vertex 0.95 -1.64545 6.3
      vertex 1.16453 -1.68712 6.3
      vertex 1.3435 -1.3435 6.3
    endloop
  endfacet
  facet normal 0 0 1
    outer loop
      vertex 0.95 -1.64545 6.3
      vertex 0.726939 -1.91678 6.3
      vertex 1.16453 -1.68712 6.3
    endloop
  endfacet
  facet normal -0 0 1
    outer loop
      vertex 0.491755 -1.83526 6.3
      vertex 0.726939 -1.91678 6.3
      vertex 0.95 -1.64545 6.3
    endloop
  endfacet
  facet normal 0 0 1
    outer loop
      vertex 0.491755 -1.83526 6.3
      vertex 0.2471 -2.03505 6.3
      vertex 0.726939 -1.91678 6.3
    endloop
  endfacet
  facet normal -0 0 1
    outer loop
      vertex 1.22465e-15 -1.9 6.3
      vertex 0.2471 -2.03505 6.3
      vertex 0.491755 -1.83526 6.3
    endloop
  endfacet
  facet normal 0 0 1
    outer loop
      vertex 1.22465e-15 -1.9 6.3
      vertex -0.2471 -2.03505 6.3
      vertex 0.2471 -2.03505 6.3
    endloop
  endfacet
  facet normal 0 0 1
    outer loop
      vertex -0.491755 -1.83526 6.3
      vertex -0.2471 -2.03505 6.3
      vertex 1.22465e-15 -1.9 6.3
    endloop
  endfacet
  facet normal 0 0 1
    outer loop
      vertex -0.491755 -1.83526 6.3
      vertex -0.726939 -1.91678 6.3
      vertex -0.2471 -2.03505 6.3
    endloop
  endfacet
  facet normal 0 0 1
    outer loop
      vertex -0.95 -1.64545 6.3
      vertex -0.726939 -1.91678 6.3
      vertex -0.491755 -1.83526 6.3
    endloop
  endfacet
  facet normal 0 0 1
    outer loop
      vertex -0.95 -1.64545 6.3
      vertex -1.16453 -1.68712 6.3
      vertex -0.726939 -1.91678 6.3
    endloop
  endfacet
  facet normal 0 0 1
    outer loop
      vertex -1.3435 -1.3435 6.3
      vertex -1.16453 -1.68712 6.3
      vertex -0.95 -1.64545 6.3
    endloop
  endfacet
  facet normal 0 0 1
    outer loop
      vertex -1.3435 -1.3435 6.3
      vertex -1.53445 -1.3594 6.3
      vertex -1.16453 -1.68712 6.3
    endloop
  endfacet
  facet normal 0 0 1
    outer loop
      vertex -1.64545 -0.95 6.3
      vertex -1.53445 -1.3594 6.3
      vertex -1.3435 -1.3435 6.3
    endloop
  endfacet
  facet normal 0 0 1
    outer loop
      vertex -1.64545 -0.95 6.3
      vertex -1.81518 -0.952682 6.3
      vertex -1.53445 -1.3594 6.3
    endloop
  endfacet
  facet normal 0 0 1
    outer loop
      vertex -1.83526 -0.491755 6.3
      vertex -1.81518 -0.952682 6.3
      vertex -1.64545 -0.95 6.3
    endloop
  endfacet
  facet normal -0 0 1
    outer loop
      vertex -1.99043 -0.490597 6.3
      vertex -1.83526 -0.491755 6.3
      vertex -1.9 0 6.3
    endloop
  endfacet
  facet normal 0 0 1
    outer loop
      vertex -2.05 0 6.3
      vertex -1.9 0 6.3
      vertex -1.99043 0.490597 6.3
    endloop
  endfacet
  facet normal 0 0 1
    outer loop
      vertex -1.83526 -0.491755 6.3
      vertex -1.99043 -0.490597 6.3
      vertex -1.81518 -0.952682 6.3
    endloop
  endfacet
  facet normal 0 0 1
    outer loop
      vertex -1.9 0 6.3
      vertex -2.05 0 6.3
      vertex -1.99043 -0.490597 6.3
    endloop
  endfacet
  facet normal 0.239316 0.970942 -0
    outer loop
      vertex -0.2471 -2.03505 6.3
      vertex -0.726939 -1.91678 12.3
      vertex -0.2471 -2.03505 12.3
    endloop
  endfacet
  facet normal 0.239316 0.970942 0
    outer loop
      vertex -0.726939 -1.91678 12.3
      vertex -0.2471 -2.03505 6.3
      vertex -0.726939 -1.91678 6.3
    endloop
  endfacet
  facet normal 0 1 -0
    outer loop
      vertex 0.2471 -2.03505 6.3
      vertex -0.2471 -2.03505 12.3
      vertex 0.2471 -2.03505 12.3
    endloop
  endfacet
  facet normal 0 1 0
    outer loop
      vertex -0.2471 -2.03505 12.3
      vertex 0.2471 -2.03505 6.3
      vertex -0.2471 -2.03505 6.3
    endloop
  endfacet
  facet normal -0.464722 -0.885457 0
    outer loop
      vertex 0.726939 1.91678 6.3
      vertex 1.16453 1.68712 12.3
      vertex 0.726939 1.91678 12.3
    endloop
  endfacet
  facet normal -0.464722 -0.885457 -0
    outer loop
      vertex 1.16453 1.68712 12.3
      vertex 0.726939 1.91678 6.3
      vertex 1.16453 1.68712 6.3
    endloop
  endfacet
  facet normal -0.239316 0.970942 0
    outer loop
      vertex 0.726939 -1.91678 6.3
      vertex 0.2471 -2.03505 12.3
      vertex 0.726939 -1.91678 12.3
    endloop
  endfacet
  facet normal -0.239316 0.970942 0
    outer loop
      vertex 0.2471 -2.03505 12.3
      vertex 0.726939 -1.91678 6.3
      vertex 0.2471 -2.03505 6.3
    endloop
  endfacet
  facet normal 0 -1 0
    outer loop
      vertex -0.2471 2.03505 6.3
      vertex 0.2471 2.03505 12.3
      vertex -0.2471 2.03505 12.3
    endloop
  endfacet
  facet normal 0 -1 -0
    outer loop
      vertex 0.2471 2.03505 12.3
      vertex -0.2471 2.03505 6.3
      vertex 0.2471 2.03505 6.3
    endloop
  endfacet
  facet normal 0.464722 -0.885457 0
    outer loop
      vertex -1.16453 1.68712 6.3
      vertex -0.726939 1.91678 12.3
      vertex -1.16453 1.68712 12.3
    endloop
  endfacet
  facet normal 0.464722 -0.885457 0
    outer loop
      vertex -0.726939 1.91678 12.3
      vertex -1.16453 1.68712 6.3
      vertex -0.726939 1.91678 6.3
    endloop
  endfacet
  facet normal -0.663123 0.74851 0
    outer loop
      vertex 1.53445 -1.3594 6.3
      vertex 1.16453 -1.68712 12.3
      vertex 1.53445 -1.3594 12.3
    endloop
  endfacet
  facet normal -0.663123 0.74851 0
    outer loop
      vertex 1.16453 -1.68712 12.3
      vertex 1.53445 -1.3594 6.3
      vertex 1.16453 -1.68712 6.3
    endloop
  endfacet
  facet normal -0.935017 -0.354604 0
    outer loop
      vertex 1.99043 0.490597 6.3
      vertex 1.81518 0.952682 12.3
      vertex 1.81518 0.952682 6.3
    endloop
  endfacet
  facet normal -0.935017 -0.354604 0
    outer loop
      vertex 1.81518 0.952682 12.3
      vertex 1.99043 0.490597 6.3
      vertex 1.99043 0.490597 12.3
    endloop
  endfacet
  facet normal -0.935017 0.354604 0
    outer loop
      vertex 1.81518 -0.952682 6.3
      vertex 1.99043 -0.490597 12.3
      vertex 1.99043 -0.490597 6.3
    endloop
  endfacet
  facet normal -0.935017 0.354604 0
    outer loop
      vertex 1.99043 -0.490597 12.3
      vertex 1.81518 -0.952682 6.3
      vertex 1.81518 -0.952682 12.3
    endloop
  endfacet
  facet normal 0.935017 0.354604 0
    outer loop
      vertex -1.81518 -0.952682 12.3
      vertex -1.99043 -0.490597 6.3
      vertex -1.99043 -0.490597 12.3
    endloop
  endfacet
  facet normal 0.935017 0.354604 0
    outer loop
      vertex -1.99043 -0.490597 6.3
      vertex -1.81518 -0.952682 12.3
      vertex -1.81518 -0.952682 6.3
    endloop
  endfacet
  facet normal 0.663123 -0.74851 0
    outer loop
      vertex -1.53445 1.3594 6.3
      vertex -1.16453 1.68712 12.3
      vertex -1.53445 1.3594 12.3
    endloop
  endfacet
  facet normal 0.663123 -0.74851 0
    outer loop
      vertex -1.16453 1.68712 12.3
      vertex -1.53445 1.3594 6.3
      vertex -1.16453 1.68712 6.3
    endloop
  endfacet
  facet normal 0.239316 -0.970942 0
    outer loop
      vertex -0.726939 1.91678 6.3
      vertex -0.2471 2.03505 12.3
      vertex -0.726939 1.91678 12.3
    endloop
  endfacet
  facet normal 0.239316 -0.970942 0
    outer loop
      vertex -0.2471 2.03505 12.3
      vertex -0.726939 1.91678 6.3
      vertex -0.2471 2.03505 6.3
    endloop
  endfacet
  facet normal -0.822983 0.568065 0
    outer loop
      vertex 1.53445 -1.3594 6.3
      vertex 1.81518 -0.952682 12.3
      vertex 1.81518 -0.952682 6.3
    endloop
  endfacet
  facet normal -0.822983 0.568065 0
    outer loop
      vertex 1.81518 -0.952682 12.3
      vertex 1.53445 -1.3594 6.3
      vertex 1.53445 -1.3594 12.3
    endloop
  endfacet
  facet normal -0.992709 -0.120537 0
    outer loop
      vertex 2.05 0 6.3
      vertex 1.99043 0.490597 12.3
      vertex 1.99043 0.490597 6.3
    endloop
  endfacet
  facet normal -0.992709 -0.120537 0
    outer loop
      vertex 1.99043 0.490597 12.3
      vertex 2.05 0 6.3
      vertex 2.05 0 12.3
    endloop
  endfacet
  facet normal 0.464722 0.885457 -0
    outer loop
      vertex -0.726939 -1.91678 6.3
      vertex -1.16453 -1.68712 12.3
      vertex -0.726939 -1.91678 12.3
    endloop
  endfacet
  facet normal 0.464722 0.885457 0
    outer loop
      vertex -1.16453 -1.68712 12.3
      vertex -0.726939 -1.91678 6.3
      vertex -1.16453 -1.68712 6.3
    endloop
  endfacet
  facet normal 0.822983 -0.568065 0
    outer loop
      vertex -1.81518 0.952682 12.3
      vertex -1.53445 1.3594 6.3
      vertex -1.53445 1.3594 12.3
    endloop
  endfacet
  facet normal 0.822983 -0.568065 0
    outer loop
      vertex -1.53445 1.3594 6.3
      vertex -1.81518 0.952682 12.3
      vertex -1.81518 0.952682 6.3
    endloop
  endfacet
  facet normal 0.663123 0.74851 -0
    outer loop
      vertex -1.16453 -1.68712 6.3
      vertex -1.53445 -1.3594 12.3
      vertex -1.16453 -1.68712 12.3
    endloop
  endfacet
  facet normal 0.663123 0.74851 0
    outer loop
      vertex -1.53445 -1.3594 12.3
      vertex -1.16453 -1.68712 6.3
      vertex -1.53445 -1.3594 6.3
    endloop
  endfacet
  facet normal 0.822983 0.568065 0
    outer loop
      vertex -1.53445 -1.3594 12.3
      vertex -1.81518 -0.952682 6.3
      vertex -1.81518 -0.952682 12.3
    endloop
  endfacet
  facet normal 0.822983 0.568065 0
    outer loop
      vertex -1.81518 -0.952682 6.3
      vertex -1.53445 -1.3594 12.3
      vertex -1.53445 -1.3594 6.3
    endloop
  endfacet
  facet normal 0 1 -0
    outer loop
      vertex 2.1 -3.63731 -6
      vertex -2.1 -3.63731 -1.8
      vertex 2.1 -3.63731 -1.8
    endloop
  endfacet
  facet normal 0 1 0
    outer loop
      vertex -2.1 -3.63731 -1.8
      vertex 2.1 -3.63731 -6
      vertex -2.1 -3.63731 -6
    endloop
  endfacet
  facet normal -0.866025 0.5 0
    outer loop
      vertex 2.1 -3.63731 -6
      vertex 4.2 0 -1.8
      vertex 4.2 0 -6
    endloop
  endfacet
  facet normal -0.866025 0.5 0
    outer loop
      vertex 4.2 0 -1.8
      vertex 2.1 -3.63731 -6
      vertex 2.1 -3.63731 -1.8
    endloop
  endfacet
  facet normal 0 -1 0
    outer loop
      vertex -2.1 3.63731 -6
      vertex 2.1 3.63731 -1.8
      vertex -2.1 3.63731 -1.8
    endloop
  endfacet
  facet normal 0 -1 -0
    outer loop
      vertex 2.1 3.63731 -1.8
      vertex -2.1 3.63731 -6
      vertex 2.1 3.63731 -6
    endloop
  endfacet
  facet normal -0.866025 -0.5 0
    outer loop
      vertex 4.2 0 -6
      vertex 2.1 3.63731 -1.8
      vertex 2.1 3.63731 -6
    endloop
  endfacet
  facet normal -0.866025 -0.5 0
    outer loop
      vertex 2.1 3.63731 -1.8
      vertex 4.2 0 -6
      vertex 4.2 0 -1.8
    endloop
  endfacet
  facet normal 0.866025 -0.5 0
    outer loop
      vertex -4.2 0 -1.8
      vertex -2.1 3.63731 -6
      vertex -2.1 3.63731 -1.8
    endloop
  endfacet
  facet normal 0.866025 -0.5 0
    outer loop
      vertex -2.1 3.63731 -6
      vertex -4.2 0 -1.8
      vertex -4.2 0 -6
    endloop
  endfacet
  facet normal 0.866025 0.5 0
    outer loop
      vertex -2.1 -3.63731 -1.8
      vertex -4.2 0 -6
      vertex -4.2 0 -1.8
    endloop
  endfacet
  facet normal 0.866025 0.5 0
    outer loop
      vertex -4.2 0 -6
      vertex -2.1 -3.63731 -1.8
      vertex -2.1 -3.63731 -6
    endloop
  endfacet
  facet normal 0 0 -1
    outer loop
      vertex 1.64545 -0.95 -1.8
      vertex 4.2 0 -1.8
      vertex 2.1 -3.63731 -1.8
    endloop
  endfacet
  facet normal 0 0 -1
    outer loop
      vertex 1.83526 0.491755 -1.8
      vertex 4.2 0 -1.8
      vertex 1.9 0 -1.8
    endloop
  endfacet
  facet normal -0 0 -1
    outer loop
      vertex 4.2 0 -1.8
      vertex 1.83526 -0.491755 -1.8
      vertex 1.9 0 -1.8
    endloop
  endfacet
  facet normal 0 0 -1
    outer loop
      vertex 4.2 0 -1.8
      vertex 1.64545 -0.95 -1.8
      vertex 1.83526 -0.491755 -1.8
    endloop
  endfacet
  facet normal 0 0 -1
    outer loop
      vertex 2.1 -3.63731 -1.8
      vertex 1.3435 -1.3435 -1.8
      vertex 1.64545 -0.95 -1.8
    endloop
  endfacet
  facet normal 0 0 -1
    outer loop
      vertex 2.1 -3.63731 -1.8
      vertex 0.95 -1.64545 -1.8
      vertex 1.3435 -1.3435 -1.8
    endloop
  endfacet
  facet normal 0 0 -1
    outer loop
      vertex 2.1 -3.63731 -1.8
      vertex 0.491755 -1.83526 -1.8
      vertex 0.95 -1.64545 -1.8
    endloop
  endfacet
  facet normal 0 0 -1
    outer loop
      vertex 2.1 -3.63731 -1.8
      vertex 2.21661e-15 -1.9 -1.8
      vertex 0.491755 -1.83526 -1.8
    endloop
  endfacet
  facet normal 0 0 -1
    outer loop
      vertex -2.1 -3.63731 -1.8
      vertex 2.21661e-15 -1.9 -1.8
      vertex 2.1 -3.63731 -1.8
    endloop
  endfacet
  facet normal -0 0 -1
    outer loop
      vertex 2.21661e-15 -1.9 -1.8
      vertex -2.1 -3.63731 -1.8
      vertex -0.491755 -1.83526 -1.8
    endloop
  endfacet
  facet normal 0 0 -1
    outer loop
      vertex -1.64545 -0.95 -1.8
      vertex -4.2 0 -1.8
      vertex -1.83526 -0.491755 -1.8
    endloop
  endfacet
  facet normal 0 0 -1
    outer loop
      vertex -4.2 0 -1.8
      vertex -1.64545 -0.95 -1.8
      vertex -2.1 -3.63731 -1.8
    endloop
  endfacet
  facet normal -0 0 -1
    outer loop
      vertex -1.3435 -1.3435 -1.8
      vertex -2.1 -3.63731 -1.8
      vertex -1.64545 -0.95 -1.8
    endloop
  endfacet
  facet normal -0 0 -1
    outer loop
      vertex -0.95 -1.64545 -1.8
      vertex -2.1 -3.63731 -1.8
      vertex -1.3435 -1.3435 -1.8
    endloop
  endfacet
  facet normal -0 0 -1
    outer loop
      vertex -0.491755 -1.83526 -1.8
      vertex -2.1 -3.63731 -1.8
      vertex -0.95 -1.64545 -1.8
    endloop
  endfacet
  facet normal 0 0 -1
    outer loop
      vertex 1.64545 0.95 -1.8
      vertex 4.2 0 -1.8
      vertex 1.83526 0.491755 -1.8
    endloop
  endfacet
  facet normal 0 0 -1
    outer loop
      vertex 4.2 0 -1.8
      vertex 1.64545 0.95 -1.8
      vertex 2.1 3.63731 -1.8
    endloop
  endfacet
  facet normal 0 0 -1
    outer loop
      vertex 1.3435 1.3435 -1.8
      vertex 2.1 3.63731 -1.8
      vertex 1.64545 0.95 -1.8
    endloop
  endfacet
  facet normal 0 0 -1
    outer loop
      vertex 0.95 1.64545 -1.8
      vertex 2.1 3.63731 -1.8
      vertex 1.3435 1.3435 -1.8
    endloop
  endfacet
  facet normal 0 0 -1
    outer loop
      vertex 0.491755 1.83526 -1.8
      vertex 2.1 3.63731 -1.8
      vertex 0.95 1.64545 -1.8
    endloop
  endfacet
  facet normal 0 0 -1
    outer loop
      vertex 2.21661e-15 1.9 -1.8
      vertex 2.1 3.63731 -1.8
      vertex 0.491755 1.83526 -1.8
    endloop
  endfacet
  facet normal 0 0 -1
    outer loop
      vertex -2.1 3.63731 -1.8
      vertex 2.21661e-15 1.9 -1.8
      vertex -0.491755 1.83526 -1.8
    endloop
  endfacet
  facet normal 0 0 -1
    outer loop
      vertex -2.1 3.63731 -1.8
      vertex -0.491755 1.83526 -1.8
      vertex -0.95 1.64545 -1.8
    endloop
  endfacet
  facet normal 0 0 -1
    outer loop
      vertex 2.21661e-15 1.9 -1.8
      vertex -2.1 3.63731 -1.8
      vertex 2.1 3.63731 -1.8
    endloop
  endfacet
  facet normal 0 0 -1
    outer loop
      vertex -1.3435 1.3435 -1.8
      vertex -2.1 3.63731 -1.8
      vertex -0.95 1.64545 -1.8
    endloop
  endfacet
  facet normal 0 0 -1
    outer loop
      vertex -1.64545 0.95 -1.8
      vertex -2.1 3.63731 -1.8
      vertex -1.3435 1.3435 -1.8
    endloop
  endfacet
  facet normal 0 0 -1
    outer loop
      vertex -4.2 0 -1.8
      vertex -1.64545 0.95 -1.8
      vertex -1.83526 0.491755 -1.8
    endloop
  endfacet
  facet normal 0 0 -1
    outer loop
      vertex -4.2 0 -1.8
      vertex -1.83526 0.491755 -1.8
      vertex -1.9 0 -1.8
    endloop
  endfacet
  facet normal 0 0 -1
    outer loop
      vertex -1.83526 -0.491755 -1.8
      vertex -4.2 0 -1.8
      vertex -1.9 0 -1.8
    endloop
  endfacet
  facet normal -0 0 -1
    outer loop
      vertex -1.64545 0.95 -1.8
      vertex -4.2 0 -1.8
      vertex -2.1 3.63731 -1.8
    endloop
  endfacet
endsolid OpenSCAD_Model
