solid OpenSCAD_Model
  facet normal 0 -1 0
    outer loop
      vertex -3.475 -6.01888 -6
      vertex 3.475 -6.01888 0
      vertex -3.475 -6.01888 0
    endloop
  endfacet
  facet normal 0 -1 -0
    outer loop
      vertex 3.475 -6.01888 0
      vertex -3.475 -6.01888 -6
      vertex 3.475 -6.01888 -6
    endloop
  endfacet
  facet normal 0.866025 -0.5 0
    outer loop
      vertex 3.475 -6.01888 0
      vertex 6.95 0 -6
      vertex 6.95 0 0
    endloop
  endfacet
  facet normal 0.866025 -0.5 0
    outer loop
      vertex 6.95 0 -6
      vertex 3.475 -6.01888 0
      vertex 3.475 -6.01888 -6
    endloop
  endfacet
  facet normal 0 1 -0
    outer loop
      vertex 3.475 6.01888 -6
      vertex -3.475 6.01888 0
      vertex 3.475 6.01888 0
    endloop
  endfacet
  facet normal 0 1 0
    outer loop
      vertex -3.475 6.01888 0
      vertex 3.475 6.01888 -6
      vertex -3.475 6.01888 -6
    endloop
  endfacet
  facet normal 0.866025 0.5 0
    outer loop
      vertex 6.95 0 0
      vertex 3.475 6.01888 -6
      vertex 3.475 6.01888 0
    endloop
  endfacet
  facet normal 0.866025 0.5 0
    outer loop
      vertex 3.475 6.01888 -6
      vertex 6.95 0 0
      vertex 6.95 0 -6
    endloop
  endfacet
  facet normal -0.866025 0.5 0
    outer loop
      vertex -6.95 0 -6
      vertex -3.475 6.01888 0
      vertex -3.475 6.01888 -6
    endloop
  endfacet
  facet normal -0.866025 0.5 0
    outer loop
      vertex -3.475 6.01888 0
      vertex -6.95 0 -6
      vertex -6.95 0 0
    endloop
  endfacet
  facet normal -0.866025 -0.5 0
    outer loop
      vertex -3.475 -6.01888 -6
      vertex -6.95 0 0
      vertex -6.95 0 -6
    endloop
  endfacet
  facet normal -0.866025 -0.5 0
    outer loop
      vertex -6.95 0 0
      vertex -3.475 -6.01888 -6
      vertex -3.475 -6.01888 0
    endloop
  endfacet
  facet normal 0 0 1
    outer loop
      vertex 6.95 0 0
      vertex 3.81839 0.492327 0
      vertex 3.85 0 0
    endloop
  endfacet
  facet normal 0 0 1
    outer loop
      vertex 6.95 0 0
      vertex 3.72408 0.97657 0
      vertex 3.81839 0.492327 0
    endloop
  endfacet
  facet normal 0 0 1
    outer loop
      vertex 6.95 0 0
      vertex 3.56863 1.44478 0
      vertex 3.72408 0.97657 0
    endloop
  endfacet
  facet normal -0 0 1
    outer loop
      vertex 3.35458 1.88926 0
      vertex 6.95 0 0
      vertex 3.475 6.01888 0
    endloop
  endfacet
  facet normal 0 0 1
    outer loop
      vertex 6.95 0 0
      vertex 3.35458 1.88926 0
      vertex 3.56863 1.44478 0
    endloop
  endfacet
  facet normal 0 0 1
    outer loop
      vertex 3.475 6.01888 0
      vertex 3.08544 2.30272 0
      vertex 3.35458 1.88926 0
    endloop
  endfacet
  facet normal 0 0 1
    outer loop
      vertex 3.475 6.01888 0
      vertex 2.76564 2.67838 0
      vertex 3.08544 2.30272 0
    endloop
  endfacet
  facet normal 0 0 1
    outer loop
      vertex 3.475 6.01888 0
      vertex 2.40044 3.01005 0
      vertex 2.76564 2.67838 0
    endloop
  endfacet
  facet normal 0 0 1
    outer loop
      vertex 3.475 6.01888 0
      vertex 1.99581 3.2923 0
      vertex 2.40044 3.01005 0
    endloop
  endfacet
  facet normal 0 0 1
    outer loop
      vertex 3.475 6.01888 0
      vertex 1.55842 3.52049 0
      vertex 1.99581 3.2923 0
    endloop
  endfacet
  facet normal 0 0 1
    outer loop
      vertex 3.475 6.01888 0
      vertex 1.09543 3.69087 0
      vertex 1.55842 3.52049 0
    endloop
  endfacet
  facet normal 0 0 1
    outer loop
      vertex 3.475 6.01888 0
      vertex 0.614459 3.80065 0
      vertex 1.09543 3.69087 0
    endloop
  endfacet
  facet normal 0 0 1
    outer loop
      vertex 3.475 6.01888 0
      vertex 0.123398 3.84802 0
      vertex 0.614459 3.80065 0
    endloop
  endfacet
  facet normal -0 0 1
    outer loop
      vertex -3.475 6.01888 0
      vertex 0.123398 3.84802 0
      vertex 3.475 6.01888 0
    endloop
  endfacet
  facet normal 0 0 1
    outer loop
      vertex 0.123398 3.84802 0
      vertex -3.475 6.01888 0
      vertex -0.369688 3.83221 0
    endloop
  endfacet
  facet normal 0 0 1
    outer loop
      vertex -0.369688 3.83221 0
      vertex -3.475 6.01888 0
      vertex -0.856705 3.75347 0
    endloop
  endfacet
  facet normal 0 0 1
    outer loop
      vertex -0.856705 3.75347 0
      vertex -3.475 6.01888 0
      vertex -1.32965 3.6131 0
    endloop
  endfacet
  facet normal 0 0 1
    outer loop
      vertex -1.32965 3.6131 0
      vertex -3.475 6.01888 0
      vertex -1.78077 3.41341 0
    endloop
  endfacet
  facet normal 0 0 1
    outer loop
      vertex -3.475 6.01888 0
      vertex -2.20265 3.15766 0
      vertex -1.78077 3.41341 0
    endloop
  endfacet
  facet normal 0 0 1
    outer loop
      vertex -3.475 6.01888 0
      vertex -2.58836 2.85007 0
      vertex -2.20265 3.15766 0
    endloop
  endfacet
  facet normal 0 0 1
    outer loop
      vertex -3.475 6.01888 0
      vertex -2.93157 2.49568 0
      vertex -2.58836 2.85007 0
    endloop
  endfacet
  facet normal 0 0 1
    outer loop
      vertex -3.475 6.01888 0
      vertex -3.22664 2.10031 0
      vertex -2.93157 2.49568 0
    endloop
  endfacet
  facet normal 0 0 1
    outer loop
      vertex -6.95 0 0
      vertex -3.22664 2.10031 0
      vertex -3.475 6.01888 0
    endloop
  endfacet
  facet normal 0 0 1
    outer loop
      vertex -3.22664 2.10031 0
      vertex -6.95 0 0
      vertex -3.46873 1.67045 0
    endloop
  endfacet
  facet normal 0 0 1
    outer loop
      vertex -3.46873 1.67045 0
      vertex -6.95 0 0
      vertex -3.65386 1.21317 0
    endloop
  endfacet
  facet normal 0 0 1
    outer loop
      vertex -3.65386 1.21317 0
      vertex -6.95 0 0
      vertex -3.779 0.73596 0
    endloop
  endfacet
  facet normal 0 0 1
    outer loop
      vertex -3.84209 0.24667 0
      vertex -6.95 0 0
      vertex -3.84209 -0.24667 0
    endloop
  endfacet
  facet normal 0 0 1
    outer loop
      vertex -3.779 0.73596 0
      vertex -6.95 0 0
      vertex -3.84209 0.24667 0
    endloop
  endfacet
  facet normal 0 0 1
    outer loop
      vertex 3.81839 -0.492327 0
      vertex 6.95 0 0
      vertex 3.85 0 0
    endloop
  endfacet
  facet normal 0 0 1
    outer loop
      vertex 3.72408 -0.97657 0
      vertex 6.95 0 0
      vertex 3.81839 -0.492327 0
    endloop
  endfacet
  facet normal 0 0 1
    outer loop
      vertex 3.56863 -1.44478 0
      vertex 6.95 0 0
      vertex 3.72408 -0.97657 0
    endloop
  endfacet
  facet normal 0 0 1
    outer loop
      vertex 3.35458 -1.88926 0
      vertex 6.95 0 0
      vertex 3.56863 -1.44478 0
    endloop
  endfacet
  facet normal 0 0 1
    outer loop
      vertex 6.95 0 0
      vertex 3.35458 -1.88926 0
      vertex 3.475 -6.01888 0
    endloop
  endfacet
  facet normal -0 0 1
    outer loop
      vertex 3.08544 -2.30272 0
      vertex 3.475 -6.01888 0
      vertex 3.35458 -1.88926 0
    endloop
  endfacet
  facet normal -0 0 1
    outer loop
      vertex 2.76564 -2.67838 0
      vertex 3.475 -6.01888 0
      vertex 3.08544 -2.30272 0
    endloop
  endfacet
  facet normal -0 0 1
    outer loop
      vertex 2.40044 -3.01005 0
      vertex 3.475 -6.01888 0
      vertex 2.76564 -2.67838 0
    endloop
  endfacet
  facet normal -0 0 1
    outer loop
      vertex 1.99581 -3.2923 0
      vertex 3.475 -6.01888 0
      vertex 2.40044 -3.01005 0
    endloop
  endfacet
  facet normal -0 0 1
    outer loop
      vertex 1.55842 -3.52049 0
      vertex 3.475 -6.01888 0
      vertex 1.99581 -3.2923 0
    endloop
  endfacet
  facet normal -0 0 1
    outer loop
      vertex 1.09543 -3.69087 0
      vertex 3.475 -6.01888 0
      vertex 1.55842 -3.52049 0
    endloop
  endfacet
  facet normal -0 0 1
    outer loop
      vertex 0.614459 -3.80065 0
      vertex 3.475 -6.01888 0
      vertex 1.09543 -3.69087 0
    endloop
  endfacet
  facet normal -0 0 1
    outer loop
      vertex 0.123398 -3.84802 0
      vertex 3.475 -6.01888 0
      vertex 0.614459 -3.80065 0
    endloop
  endfacet
  facet normal 0 0 1
    outer loop
      vertex -3.475 -6.01888 0
      vertex 0.123398 -3.84802 0
      vertex -0.369688 -3.83221 0
    endloop
  endfacet
  facet normal 0 0 1
    outer loop
      vertex -3.475 -6.01888 0
      vertex -0.369688 -3.83221 0
      vertex -0.856705 -3.75347 0
    endloop
  endfacet
  facet normal 0 0 1
    outer loop
      vertex -3.475 -6.01888 0
      vertex -0.856705 -3.75347 0
      vertex -1.32965 -3.6131 0
    endloop
  endfacet
  facet normal 0 0 1
    outer loop
      vertex -3.475 -6.01888 0
      vertex -1.32965 -3.6131 0
      vertex -1.78077 -3.41341 0
    endloop
  endfacet
  facet normal 0 0 1
    outer loop
      vertex 0.123398 -3.84802 0
      vertex -3.475 -6.01888 0
      vertex 3.475 -6.01888 0
    endloop
  endfacet
  facet normal 0 0 1
    outer loop
      vertex -2.20265 -3.15766 0
      vertex -3.475 -6.01888 0
      vertex -1.78077 -3.41341 0
    endloop
  endfacet
  facet normal 0 0 1
    outer loop
      vertex -2.58836 -2.85007 0
      vertex -3.475 -6.01888 0
      vertex -2.20265 -3.15766 0
    endloop
  endfacet
  facet normal 0 0 1
    outer loop
      vertex -2.93157 -2.49568 0
      vertex -3.475 -6.01888 0
      vertex -2.58836 -2.85007 0
    endloop
  endfacet
  facet normal 0 0 1
    outer loop
      vertex -3.22664 -2.10031 0
      vertex -3.475 -6.01888 0
      vertex -2.93157 -2.49568 0
    endloop
  endfacet
  facet normal 0 0 1
    outer loop
      vertex -6.95 0 0
      vertex -3.22664 -2.10031 0
      vertex -3.46873 -1.67045 0
    endloop
  endfacet
  facet normal 0 0 1
    outer loop
      vertex -6.95 0 0
      vertex -3.46873 -1.67045 0
      vertex -3.65386 -1.21317 0
    endloop
  endfacet
  facet normal 0 0 1
    outer loop
      vertex -6.95 0 0
      vertex -3.65386 -1.21317 0
      vertex -3.779 -0.73596 0
    endloop
  endfacet
  facet normal 0 0 1
    outer loop
      vertex -6.95 0 0
      vertex -3.779 -0.73596 0
      vertex -3.84209 -0.24667 0
    endloop
  endfacet
  facet normal 0 0 1
    outer loop
      vertex -3.22664 -2.10031 0
      vertex -6.95 0 0
      vertex -3.475 -6.01888 0
    endloop
  endfacet
  facet normal 0 0 -1
    outer loop
      vertex 3.475 -6.01888 -6
      vertex 4.2 0 -6
      vertex 6.95 0 -6
    endloop
  endfacet
  facet normal 0 0 -1
    outer loop
      vertex 3.475 -6.01888 -6
      vertex 2.1 -3.63731 -6
      vertex 4.2 0 -6
    endloop
  endfacet
  facet normal 0 0 -1
    outer loop
      vertex 3.475 -6.01888 -6
      vertex -2.1 -3.63731 -6
      vertex 2.1 -3.63731 -6
    endloop
  endfacet
  facet normal 0 0 -1
    outer loop
      vertex -3.475 -6.01888 -6
      vertex -2.1 -3.63731 -6
      vertex 3.475 -6.01888 -6
    endloop
  endfacet
  facet normal 0 0 -1
    outer loop
      vertex -3.475 -6.01888 -6
      vertex -4.2 0 -6
      vertex -2.1 -3.63731 -6
    endloop
  endfacet
  facet normal -0 -0 -1
    outer loop
      vertex -4.2 0 -6
      vertex -3.475 -6.01888 -6
      vertex -6.95 0 -6
    endloop
  endfacet
  facet normal 0 0 -1
    outer loop
      vertex 4.2 0 -6
      vertex 3.475 6.01888 -6
      vertex 6.95 0 -6
    endloop
  endfacet
  facet normal 0 0 -1
    outer loop
      vertex 2.1 3.63731 -6
      vertex 3.475 6.01888 -6
      vertex 4.2 0 -6
    endloop
  endfacet
  facet normal 0 0 -1
    outer loop
      vertex -2.1 3.63731 -6
      vertex 3.475 6.01888 -6
      vertex 2.1 3.63731 -6
    endloop
  endfacet
  facet normal 0 0 -1
    outer loop
      vertex -2.1 3.63731 -6
      vertex -3.475 6.01888 -6
      vertex 3.475 6.01888 -6
    endloop
  endfacet
  facet normal 0 0 -1
    outer loop
      vertex -4.2 0 -6
      vertex -3.475 6.01888 -6
      vertex -2.1 3.63731 -6
    endloop
  endfacet
  facet normal 0 0 -1
    outer loop
      vertex -3.475 6.01888 -6
      vertex -4.2 0 -6
      vertex -6.95 0 -6
    endloop
  endfacet
  facet normal 0.981559 0.191158 0
    outer loop
      vertex 3.81839 0.492327 12.3
      vertex 3.72408 0.97657 0
      vertex 3.72408 0.97657 12.3
    endloop
  endfacet
  facet normal 0.981559 0.191158 0
    outer loop
      vertex 3.72408 0.97657 0
      vertex 3.81839 0.492327 12.3
      vertex 3.81839 0.492327 0
    endloop
  endfacet
  facet normal 0.997945 0.0640705 0
    outer loop
      vertex 3.85 0 12.3
      vertex 3.81839 0.492327 0
      vertex 3.81839 0.492327 12.3
    endloop
  endfacet
  facet normal 0.997945 0.0640705 0
    outer loop
      vertex 3.81839 0.492327 0
      vertex 3.85 0 12.3
      vertex 3.85 0 0
    endloop
  endfacet
  facet normal 0.949056 0.315108 0
    outer loop
      vertex 3.72408 0.97657 12.3
      vertex 3.56863 1.44478 0
      vertex 3.56863 1.44478 12.3
    endloop
  endfacet
  facet normal 0.949056 0.315108 0
    outer loop
      vertex 3.56863 1.44478 0
      vertex 3.72408 0.97657 12.3
      vertex 3.72408 0.97657 0
    endloop
  endfacet
  facet normal 0.672302 0.740277 -0
    outer loop
      vertex 2.76564 2.67838 0
      vertex 2.40044 3.01005 12.3
      vertex 2.76564 2.67838 12.3
    endloop
  endfacet
  facet normal 0.672302 0.740277 0
    outer loop
      vertex 2.40044 3.01005 12.3
      vertex 2.76564 2.67838 0
      vertex 2.40044 3.01005 0
    endloop
  endfacet
  facet normal 0.345365 0.938469 -0
    outer loop
      vertex 1.55842 3.52049 0
      vertex 1.09543 3.69087 12.3
      vertex 1.55842 3.52049 12.3
    endloop
  endfacet
  facet normal 0.345365 0.938469 0
    outer loop
      vertex 1.09543 3.69087 12.3
      vertex 1.55842 3.52049 0
      vertex 1.09543 3.69087 0
    endloop
  endfacet
  facet normal 0.462538 0.886599 -0
    outer loop
      vertex 1.99581 3.2923 0
      vertex 1.55842 3.52049 12.3
      vertex 1.99581 3.2923 12.3
    endloop
  endfacet
  facet normal 0.462538 0.886599 0
    outer loop
      vertex 1.55842 3.52049 12.3
      vertex 1.99581 3.2923 0
      vertex 1.55842 3.52049 0
    endloop
  endfacet
  facet normal -0.62349 0.781832 0
    outer loop
      vertex -2.20265 3.15766 0
      vertex -2.58836 2.85007 12.3
      vertex -2.20265 3.15766 12.3
    endloop
  endfacet
  facet normal -0.62349 0.781832 0
    outer loop
      vertex -2.58836 2.85007 12.3
      vertex -2.20265 3.15766 0
      vertex -2.58836 2.85007 0
    endloop
  endfacet
  facet normal -0.99179 -0.127878 0
    outer loop
      vertex -3.779 -0.73596 0
      vertex -3.84209 -0.24667 12.3
      vertex -3.84209 -0.24667 0
    endloop
  endfacet
  facet normal -0.99179 -0.127878 0
    outer loop
      vertex -3.84209 -0.24667 12.3
      vertex -3.779 -0.73596 0
      vertex -3.779 -0.73596 12.3
    endloop
  endfacet
  facet normal 0.838088 0.545535 0
    outer loop
      vertex 3.35458 1.88926 12.3
      vertex 3.08544 2.30272 0
      vertex 3.08544 2.30272 12.3
    endloop
  endfacet
  facet normal 0.838088 0.545535 0
    outer loop
      vertex 3.08544 2.30272 0
      vertex 3.35458 1.88926 12.3
      vertex 3.35458 1.88926 0
    endloop
  endfacet
  facet normal 0.900968 0.433885 0
    outer loop
      vertex 3.56863 1.44478 12.3
      vertex 3.35458 1.88926 0
      vertex 3.35458 1.88926 12.3
    endloop
  endfacet
  facet normal 0.900968 0.433885 0
    outer loop
      vertex 3.35458 1.88926 0
      vertex 3.56863 1.44478 12.3
      vertex 3.56863 1.44478 0
    endloop
  endfacet
  facet normal -0.159598 0.987182 0
    outer loop
      vertex -0.369688 3.83221 0
      vertex -0.856705 3.75347 12.3
      vertex -0.369688 3.83221 12.3
    endloop
  endfacet
  facet normal -0.159598 0.987182 0
    outer loop
      vertex -0.856705 3.75347 12.3
      vertex -0.369688 3.83221 0
      vertex -0.856705 3.75347 0
    endloop
  endfacet
  facet normal -0.967295 0.253655 0
    outer loop
      vertex -3.779 0.73596 0
      vertex -3.65386 1.21317 12.3
      vertex -3.65386 1.21317 0
    endloop
  endfacet
  facet normal -0.967295 0.253655 0
    outer loop
      vertex -3.65386 1.21317 12.3
      vertex -3.779 0.73596 0
      vertex -3.779 0.73596 12.3
    endloop
  endfacet
  facet normal 0.761446 -0.648228 0
    outer loop
      vertex 2.76564 -2.67838 12.3
      vertex 3.08544 -2.30272 0
      vertex 3.08544 -2.30272 12.3
    endloop
  endfacet
  facet normal 0.761446 -0.648228 0
    outer loop
      vertex 3.08544 -2.30272 0
      vertex 2.76564 -2.67838 12.3
      vertex 2.76564 -2.67838 0
    endloop
  endfacet
  facet normal -0.284528 -0.958668 0
    outer loop
      vertex -1.32965 -3.6131 0
      vertex -0.856705 -3.75347 12.3
      vertex -1.32965 -3.6131 12.3
    endloop
  endfacet
  facet normal -0.284528 -0.958668 -0
    outer loop
      vertex -0.856705 -3.75347 12.3
      vertex -1.32965 -3.6131 0
      vertex -0.856705 -3.75347 0
    endloop
  endfacet
  facet normal 0.981559 -0.191158 0
    outer loop
      vertex 3.72408 -0.97657 12.3
      vertex 3.81839 -0.492327 0
      vertex 3.81839 -0.492327 12.3
    endloop
  endfacet
  facet normal 0.981559 -0.191158 0
    outer loop
      vertex 3.81839 -0.492327 0
      vertex 3.72408 -0.97657 12.3
      vertex 3.72408 -0.97657 0
    endloop
  endfacet
  facet normal 0.222522 0.974928 -0
    outer loop
      vertex 1.09543 3.69087 0
      vertex 0.614459 3.80065 12.3
      vertex 1.09543 3.69087 12.3
    endloop
  endfacet
  facet normal 0.222522 0.974928 0
    outer loop
      vertex 0.614459 3.80065 12.3
      vertex 1.09543 3.69087 0
      vertex 0.614459 3.80065 0
    endloop
  endfacet
  facet normal 0.949056 -0.315108 0
    outer loop
      vertex 3.56863 -1.44478 12.3
      vertex 3.72408 -0.97657 0
      vertex 3.72408 -0.97657 12.3
    endloop
  endfacet
  facet normal 0.949056 -0.315108 0
    outer loop
      vertex 3.72408 -0.97657 0
      vertex 3.56863 -1.44478 12.3
      vertex 3.56863 -1.44478 0
    endloop
  endfacet
  facet normal 0.462538 -0.886599 0
    outer loop
      vertex 1.55842 -3.52049 0
      vertex 1.99581 -3.2923 12.3
      vertex 1.55842 -3.52049 12.3
    endloop
  endfacet
  facet normal 0.462538 -0.886599 0
    outer loop
      vertex 1.99581 -3.2923 12.3
      vertex 1.55842 -3.52049 0
      vertex 1.99581 -3.2923 0
    endloop
  endfacet
  facet normal -0.71835 0.695682 0
    outer loop
      vertex -2.93157 2.49568 0
      vertex -2.58836 2.85007 12.3
      vertex -2.58836 2.85007 0
    endloop
  endfacet
  facet normal -0.71835 0.695682 0
    outer loop
      vertex -2.58836 2.85007 12.3
      vertex -2.93157 2.49568 0
      vertex -2.93157 2.49568 12.3
    endloop
  endfacet
  facet normal -0.871318 0.490719 0
    outer loop
      vertex -3.46873 1.67045 0
      vertex -3.22664 2.10031 12.3
      vertex -3.22664 2.10031 0
    endloop
  endfacet
  facet normal -0.871318 0.490719 0
    outer loop
      vertex -3.22664 2.10031 12.3
      vertex -3.46873 1.67045 0
      vertex -3.46873 1.67045 12.3
    endloop
  endfacet
  facet normal -0.871318 -0.490719 0
    outer loop
      vertex -3.22664 -2.10031 0
      vertex -3.46873 -1.67045 12.3
      vertex -3.46873 -1.67045 0
    endloop
  endfacet
  facet normal -0.871318 -0.490719 0
    outer loop
      vertex -3.46873 -1.67045 12.3
      vertex -3.22664 -2.10031 0
      vertex -3.22664 -2.10031 12.3
    endloop
  endfacet
  facet normal 0 0 1
    outer loop
      vertex 2.05 0 12.3
      vertex 3.85 0 12.3
      vertex 3.81839 0.492327 12.3
    endloop
  endfacet
  facet normal 0 0 1
    outer loop
      vertex 1.99043 0.490597 12.3
      vertex 3.81839 0.492327 12.3
      vertex 3.72408 0.97657 12.3
    endloop
  endfacet
  facet normal 0 0 1
    outer loop
      vertex 3.85 0 12.3
      vertex 2.05 0 12.3
      vertex 3.81839 -0.492327 12.3
    endloop
  endfacet
  facet normal 0 0 1
    outer loop
      vertex 1.99043 0.490597 12.3
      vertex 3.72408 0.97657 12.3
      vertex 3.56863 1.44478 12.3
    endloop
  endfacet
  facet normal -0 0 1
    outer loop
      vertex 1.99043 -0.490597 12.3
      vertex 3.81839 -0.492327 12.3
      vertex 2.05 0 12.3
    endloop
  endfacet
  facet normal 0 0 1
    outer loop
      vertex 1.81518 0.952682 12.3
      vertex 3.56863 1.44478 12.3
      vertex 3.35458 1.88926 12.3
    endloop
  endfacet
  facet normal 0 0 1
    outer loop
      vertex 3.81839 -0.492327 12.3
      vertex 1.99043 -0.490597 12.3
      vertex 3.72408 -0.97657 12.3
    endloop
  endfacet
  facet normal 0 0 1
    outer loop
      vertex 1.81518 0.952682 12.3
      vertex 3.35458 1.88926 12.3
      vertex 3.08544 2.30272 12.3
    endloop
  endfacet
  facet normal 0 0 1
    outer loop
      vertex 3.72408 -0.97657 12.3
      vertex 1.99043 -0.490597 12.3
      vertex 3.56863 -1.44478 12.3
    endloop
  endfacet
  facet normal 0 0 1
    outer loop
      vertex 1.53445 1.3594 12.3
      vertex 3.08544 2.30272 12.3
      vertex 2.76564 2.67838 12.3
    endloop
  endfacet
  facet normal -0 0 1
    outer loop
      vertex 1.81518 -0.952682 12.3
      vertex 3.56863 -1.44478 12.3
      vertex 1.99043 -0.490597 12.3
    endloop
  endfacet
  facet normal 0 0 1
    outer loop
      vertex 1.53445 1.3594 12.3
      vertex 2.76564 2.67838 12.3
      vertex 2.40044 3.01005 12.3
    endloop
  endfacet
  facet normal 0 0 1
    outer loop
      vertex 3.56863 -1.44478 12.3
      vertex 1.81518 -0.952682 12.3
      vertex 3.35458 -1.88926 12.3
    endloop
  endfacet
  facet normal 0 0 1
    outer loop
      vertex 3.35458 -1.88926 12.3
      vertex 1.81518 -0.952682 12.3
      vertex 3.08544 -2.30272 12.3
    endloop
  endfacet
  facet normal 0 0 1
    outer loop
      vertex 1.16453 1.68712 12.3
      vertex 2.40044 3.01005 12.3
      vertex 1.99581 3.2923 12.3
    endloop
  endfacet
  facet normal 0 0 1
    outer loop
      vertex 3.81839 0.492327 12.3
      vertex 1.99043 0.490597 12.3
      vertex 2.05 0 12.3
    endloop
  endfacet
  facet normal 0 0 1
    outer loop
      vertex 3.56863 1.44478 12.3
      vertex 1.81518 0.952682 12.3
      vertex 1.99043 0.490597 12.3
    endloop
  endfacet
  facet normal 0 0 1
    outer loop
      vertex 1.16453 1.68712 12.3
      vertex 1.99581 3.2923 12.3
      vertex 1.55842 3.52049 12.3
    endloop
  endfacet
  facet normal 0 0 1
    outer loop
      vertex 3.08544 2.30272 12.3
      vertex 1.53445 1.3594 12.3
      vertex 1.81518 0.952682 12.3
    endloop
  endfacet
  facet normal 0 0 1
    outer loop
      vertex 2.40044 3.01005 12.3
      vertex 1.16453 1.68712 12.3
      vertex 1.53445 1.3594 12.3
    endloop
  endfacet
  facet normal 0 0 1
    outer loop
      vertex 0.726939 1.91678 12.3
      vertex 1.55842 3.52049 12.3
      vertex 1.09543 3.69087 12.3
    endloop
  endfacet
  facet normal 0 0 1
    outer loop
      vertex 1.55842 3.52049 12.3
      vertex 0.726939 1.91678 12.3
      vertex 1.16453 1.68712 12.3
    endloop
  endfacet
  facet normal 0 0 1
    outer loop
      vertex 0.2471 2.03505 12.3
      vertex 1.09543 3.69087 12.3
      vertex 0.614459 3.80065 12.3
    endloop
  endfacet
  facet normal 0 0 1
    outer loop
      vertex 1.09543 3.69087 12.3
      vertex 0.2471 2.03505 12.3
      vertex 0.726939 1.91678 12.3
    endloop
  endfacet
  facet normal 0 0 1
    outer loop
      vertex 0.123398 3.84802 12.3
      vertex 0.2471 2.03505 12.3
      vertex 0.614459 3.80065 12.3
    endloop
  endfacet
  facet normal 0 0 1
    outer loop
      vertex 0.123398 3.84802 12.3
      vertex -0.2471 2.03505 12.3
      vertex 0.2471 2.03505 12.3
    endloop
  endfacet
  facet normal -0 0 1
    outer loop
      vertex -0.369688 3.83221 12.3
      vertex -0.2471 2.03505 12.3
      vertex 0.123398 3.84802 12.3
    endloop
  endfacet
  facet normal -0 0 1
    outer loop
      vertex -0.856705 3.75347 12.3
      vertex -0.2471 2.03505 12.3
      vertex -0.369688 3.83221 12.3
    endloop
  endfacet
  facet normal 0 0 1
    outer loop
      vertex -0.2471 2.03505 12.3
      vertex -0.856705 3.75347 12.3
      vertex -0.726939 1.91678 12.3
    endloop
  endfacet
  facet normal -0 0 1
    outer loop
      vertex -1.32965 3.6131 12.3
      vertex -0.726939 1.91678 12.3
      vertex -0.856705 3.75347 12.3
    endloop
  endfacet
  facet normal -0 0 1
    outer loop
      vertex -1.78077 3.41341 12.3
      vertex -0.726939 1.91678 12.3
      vertex -1.32965 3.6131 12.3
    endloop
  endfacet
  facet normal 0 0 1
    outer loop
      vertex -0.726939 1.91678 12.3
      vertex -1.78077 3.41341 12.3
      vertex -1.16453 1.68712 12.3
    endloop
  endfacet
  facet normal -0 0 1
    outer loop
      vertex -2.20265 3.15766 12.3
      vertex -1.16453 1.68712 12.3
      vertex -1.78077 3.41341 12.3
    endloop
  endfacet
  facet normal -0 0 1
    outer loop
      vertex -2.58836 2.85007 12.3
      vertex -1.16453 1.68712 12.3
      vertex -2.20265 3.15766 12.3
    endloop
  endfacet
  facet normal 0 0 1
    outer loop
      vertex -1.16453 1.68712 12.3
      vertex -2.58836 2.85007 12.3
      vertex -1.53445 1.3594 12.3
    endloop
  endfacet
  facet normal -0 0 1
    outer loop
      vertex -2.93157 2.49568 12.3
      vertex -1.53445 1.3594 12.3
      vertex -2.58836 2.85007 12.3
    endloop
  endfacet
  facet normal -0 0 1
    outer loop
      vertex -3.22664 2.10031 12.3
      vertex -1.53445 1.3594 12.3
      vertex -2.93157 2.49568 12.3
    endloop
  endfacet
  facet normal -0 0 1
    outer loop
      vertex 1.53445 -1.3594 12.3
      vertex 3.08544 -2.30272 12.3
      vertex 1.81518 -0.952682 12.3
    endloop
  endfacet
  facet normal 0 0 1
    outer loop
      vertex 3.08544 -2.30272 12.3
      vertex 1.53445 -1.3594 12.3
      vertex 2.76564 -2.67838 12.3
    endloop
  endfacet
  facet normal 0 0 1
    outer loop
      vertex 2.76564 -2.67838 12.3
      vertex 1.53445 -1.3594 12.3
      vertex 2.40044 -3.01005 12.3
    endloop
  endfacet
  facet normal -0 0 1
    outer loop
      vertex 1.16453 -1.68712 12.3
      vertex 2.40044 -3.01005 12.3
      vertex 1.53445 -1.3594 12.3
    endloop
  endfacet
  facet normal 0 0 1
    outer loop
      vertex 2.40044 -3.01005 12.3
      vertex 1.16453 -1.68712 12.3
      vertex 1.99581 -3.2923 12.3
    endloop
  endfacet
  facet normal 0 0 1
    outer loop
      vertex 1.99581 -3.2923 12.3
      vertex 1.16453 -1.68712 12.3
      vertex 1.55842 -3.52049 12.3
    endloop
  endfacet
  facet normal -0 0 1
    outer loop
      vertex 0.726939 -1.91678 12.3
      vertex 1.55842 -3.52049 12.3
      vertex 1.16453 -1.68712 12.3
    endloop
  endfacet
  facet normal 0 0 1
    outer loop
      vertex 1.55842 -3.52049 12.3
      vertex 0.726939 -1.91678 12.3
      vertex 1.09543 -3.69087 12.3
    endloop
  endfacet
  facet normal -0 0 1
    outer loop
      vertex 0.2471 -2.03505 12.3
      vertex 1.09543 -3.69087 12.3
      vertex 0.726939 -1.91678 12.3
    endloop
  endfacet
  facet normal 0 0 1
    outer loop
      vertex 1.09543 -3.69087 12.3
      vertex 0.2471 -2.03505 12.3
      vertex 0.614459 -3.80065 12.3
    endloop
  endfacet
  facet normal 0 0 1
    outer loop
      vertex 0.2471 -2.03505 12.3
      vertex 0.123398 -3.84802 12.3
      vertex 0.614459 -3.80065 12.3
    endloop
  endfacet
  facet normal -0 0 1
    outer loop
      vertex -0.2471 -2.03505 12.3
      vertex 0.123398 -3.84802 12.3
      vertex 0.2471 -2.03505 12.3
    endloop
  endfacet
  facet normal 0 0 1
    outer loop
      vertex -0.2471 -2.03505 12.3
      vertex -0.369688 -3.83221 12.3
      vertex 0.123398 -3.84802 12.3
    endloop
  endfacet
  facet normal 0 0 1
    outer loop
      vertex -0.856705 -3.75347 12.3
      vertex -0.2471 -2.03505 12.3
      vertex -0.726939 -1.91678 12.3
    endloop
  endfacet
  facet normal 0 0 1
    outer loop
      vertex -0.2471 -2.03505 12.3
      vertex -0.856705 -3.75347 12.3
      vertex -0.369688 -3.83221 12.3
    endloop
  endfacet
  facet normal 0 0 1
    outer loop
      vertex -1.78077 -3.41341 12.3
      vertex -0.726939 -1.91678 12.3
      vertex -1.16453 -1.68712 12.3
    endloop
  endfacet
  facet normal 0 0 1
    outer loop
      vertex -0.726939 -1.91678 12.3
      vertex -1.32965 -3.6131 12.3
      vertex -0.856705 -3.75347 12.3
    endloop
  endfacet
  facet normal 0 0 1
    outer loop
      vertex -2.58836 -2.85007 12.3
      vertex -1.16453 -1.68712 12.3
      vertex -1.53445 -1.3594 12.3
    endloop
  endfacet
  facet normal 0 0 1
    outer loop
      vertex -0.726939 -1.91678 12.3
      vertex -1.78077 -3.41341 12.3
      vertex -1.32965 -3.6131 12.3
    endloop
  endfacet
  facet normal 0 0 1
    outer loop
      vertex -3.22664 -2.10031 12.3
      vertex -1.53445 -1.3594 12.3
      vertex -1.81518 -0.952682 12.3
    endloop
  endfacet
  facet normal 0 0 1
    outer loop
      vertex -3.65386 -1.21317 12.3
      vertex -1.81518 -0.952682 12.3
      vertex -1.99043 -0.490597 12.3
    endloop
  endfacet
  facet normal -0 0 1
    outer loop
      vertex -3.84209 -0.24667 12.3
      vertex -1.99043 -0.490597 12.3
      vertex -2.05 0 12.3
    endloop
  endfacet
  facet normal 0 0 1
    outer loop
      vertex -1.16453 -1.68712 12.3
      vertex -2.20265 -3.15766 12.3
      vertex -1.78077 -3.41341 12.3
    endloop
  endfacet
  facet normal 0 0 1
    outer loop
      vertex -1.53445 1.3594 12.3
      vertex -3.22664 2.10031 12.3
      vertex -1.81518 0.952682 12.3
    endloop
  endfacet
  facet normal -0 0 1
    outer loop
      vertex -3.46873 1.67045 12.3
      vertex -1.81518 0.952682 12.3
      vertex -3.22664 2.10031 12.3
    endloop
  endfacet
  facet normal 0 0 1
    outer loop
      vertex -1.16453 -1.68712 12.3
      vertex -2.58836 -2.85007 12.3
      vertex -2.20265 -3.15766 12.3
    endloop
  endfacet
  facet normal -0 0 1
    outer loop
      vertex -3.65386 1.21317 12.3
      vertex -1.81518 0.952682 12.3
      vertex -3.46873 1.67045 12.3
    endloop
  endfacet
  facet normal 0 0 1
    outer loop
      vertex -1.53445 -1.3594 12.3
      vertex -2.93157 -2.49568 12.3
      vertex -2.58836 -2.85007 12.3
    endloop
  endfacet
  facet normal 0 0 1
    outer loop
      vertex -1.81518 0.952682 12.3
      vertex -3.65386 1.21317 12.3
      vertex -1.99043 0.490597 12.3
    endloop
  endfacet
  facet normal 0 0 1
    outer loop
      vertex -1.53445 -1.3594 12.3
      vertex -3.22664 -2.10031 12.3
      vertex -2.93157 -2.49568 12.3
    endloop
  endfacet
  facet normal -0 0 1
    outer loop
      vertex -3.779 0.73596 12.3
      vertex -1.99043 0.490597 12.3
      vertex -3.65386 1.21317 12.3
    endloop
  endfacet
  facet normal 0 0 1
    outer loop
      vertex -1.81518 -0.952682 12.3
      vertex -3.46873 -1.67045 12.3
      vertex -3.22664 -2.10031 12.3
    endloop
  endfacet
  facet normal 0 0 1
    outer loop
      vertex -3.84209 0.24667 12.3
      vertex -1.99043 0.490597 12.3
      vertex -3.779 0.73596 12.3
    endloop
  endfacet
  facet normal 0 0 1
    outer loop
      vertex -1.81518 -0.952682 12.3
      vertex -3.65386 -1.21317 12.3
      vertex -3.46873 -1.67045 12.3
    endloop
  endfacet
  facet normal 0 0 1
    outer loop
      vertex -1.99043 0.490597 12.3
      vertex -3.84209 0.24667 12.3
      vertex -2.05 0 12.3
    endloop
  endfacet
  facet normal 0 0 1
    outer loop
      vertex -1.99043 -0.490597 12.3
      vertex -3.779 -0.73596 12.3
      vertex -3.65386 -1.21317 12.3
    endloop
  endfacet
  facet normal 0 0 1
    outer loop
      vertex -3.84209 -0.24667 12.3
      vertex -2.05 0 12.3
      vertex -3.84209 0.24667 12.3
    endloop
  endfacet
  facet normal 0 0 1
    outer loop
      vertex -1.99043 -0.490597 12.3
      vertex -3.84209 -0.24667 12.3
      vertex -3.779 -0.73596 12.3
    endloop
  endfacet
  facet normal 0.345365 -0.938469 0
    outer loop
      vertex 1.09543 -3.69087 0
      vertex 1.55842 -3.52049 12.3
      vertex 1.09543 -3.69087 12.3
    endloop
  endfacet
  facet normal 0.345365 -0.938469 0
    outer loop
      vertex 1.55842 -3.52049 12.3
      vertex 1.09543 -3.69087 0
      vertex 1.55842 -3.52049 0
    endloop
  endfacet
  facet normal -0.404782 0.914413 0
    outer loop
      vertex -1.32965 3.6131 0
      vertex -1.78077 3.41341 12.3
      vertex -1.32965 3.6131 12.3
    endloop
  endfacet
  facet normal -0.404782 0.914413 0
    outer loop
      vertex -1.78077 3.41341 12.3
      vertex -1.32965 3.6131 0
      vertex -1.78077 3.41341 0
    endloop
  endfacet
  facet normal -0.518394 0.855142 0
    outer loop
      vertex -1.78077 3.41341 0
      vertex -2.20265 3.15766 12.3
      vertex -1.78077 3.41341 12.3
    endloop
  endfacet
  facet normal -0.518394 0.855142 0
    outer loop
      vertex -2.20265 3.15766 12.3
      vertex -1.78077 3.41341 0
      vertex -2.20265 3.15766 0
    endloop
  endfacet
  facet normal 0.761446 0.648228 0
    outer loop
      vertex 3.08544 2.30272 12.3
      vertex 2.76564 2.67838 0
      vertex 2.76564 2.67838 12.3
    endloop
  endfacet
  facet normal 0.761446 0.648228 0
    outer loop
      vertex 2.76564 2.67838 0
      vertex 3.08544 2.30272 12.3
      vertex 3.08544 2.30272 0
    endloop
  endfacet
  facet normal -0.926917 -0.375266 0
    outer loop
      vertex -3.46873 -1.67045 0
      vertex -3.65386 -1.21317 12.3
      vertex -3.65386 -1.21317 0
    endloop
  endfacet
  facet normal -0.926917 -0.375266 0
    outer loop
      vertex -3.65386 -1.21317 12.3
      vertex -3.46873 -1.67045 0
      vertex -3.46873 -1.67045 12.3
    endloop
  endfacet
  facet normal -0.99179 0.127878 0
    outer loop
      vertex -3.84209 0.24667 0
      vertex -3.779 0.73596 12.3
      vertex -3.779 0.73596 0
    endloop
  endfacet
  facet normal -0.99179 0.127878 0
    outer loop
      vertex -3.779 0.73596 12.3
      vertex -3.84209 0.24667 0
      vertex -3.84209 0.24667 12.3
    endloop
  endfacet
  facet normal 0.997945 -0.0640705 0
    outer loop
      vertex 3.81839 -0.492327 12.3
      vertex 3.85 0 0
      vertex 3.85 0 12.3
    endloop
  endfacet
  facet normal 0.997945 -0.0640705 0
    outer loop
      vertex 3.85 0 0
      vertex 3.81839 -0.492327 12.3
      vertex 3.81839 -0.492327 0
    endloop
  endfacet
  facet normal -0.967295 -0.253655 0
    outer loop
      vertex -3.65386 -1.21317 0
      vertex -3.779 -0.73596 12.3
      vertex -3.779 -0.73596 0
    endloop
  endfacet
  facet normal -0.967295 -0.253655 0
    outer loop
      vertex -3.779 -0.73596 12.3
      vertex -3.65386 -1.21317 0
      vertex -3.65386 -1.21317 12.3
    endloop
  endfacet
  facet normal 0.572116 -0.820173 0
    outer loop
      vertex 1.99581 -3.2923 0
      vertex 2.40044 -3.01005 12.3
      vertex 1.99581 -3.2923 12.3
    endloop
  endfacet
  facet normal 0.572116 -0.820173 0
    outer loop
      vertex 2.40044 -3.01005 12.3
      vertex 1.99581 -3.2923 0
      vertex 2.40044 -3.01005 0
    endloop
  endfacet
  facet normal -0.284528 0.958668 0
    outer loop
      vertex -0.856705 3.75347 0
      vertex -1.32965 3.6131 12.3
      vertex -0.856705 3.75347 12.3
    endloop
  endfacet
  facet normal -0.284528 0.958668 0
    outer loop
      vertex -1.32965 3.6131 12.3
      vertex -0.856705 3.75347 0
      vertex -1.32965 3.6131 0
    endloop
  endfacet
  facet normal 0.222522 -0.974928 0
    outer loop
      vertex 0.614459 -3.80065 0
      vertex 1.09543 -3.69087 12.3
      vertex 0.614459 -3.80065 12.3
    endloop
  endfacet
  facet normal 0.222522 -0.974928 0
    outer loop
      vertex 1.09543 -3.69087 12.3
      vertex 0.614459 -3.80065 0
      vertex 1.09543 -3.69087 0
    endloop
  endfacet
  facet normal -0.801414 0.59811 0
    outer loop
      vertex -3.22664 2.10031 0
      vertex -2.93157 2.49568 12.3
      vertex -2.93157 2.49568 0
    endloop
  endfacet
  facet normal -0.801414 0.59811 0
    outer loop
      vertex -2.93157 2.49568 12.3
      vertex -3.22664 2.10031 0
      vertex -3.22664 2.10031 12.3
    endloop
  endfacet
  facet normal 0.900968 -0.433885 0
    outer loop
      vertex 3.35458 -1.88926 12.3
      vertex 3.56863 -1.44478 0
      vertex 3.56863 -1.44478 12.3
    endloop
  endfacet
  facet normal 0.900968 -0.433885 0
    outer loop
      vertex 3.56863 -1.44478 0
      vertex 3.35458 -1.88926 12.3
      vertex 3.35458 -1.88926 0
    endloop
  endfacet
  facet normal 0.0960226 -0.995379 0
    outer loop
      vertex 0.123398 -3.84802 0
      vertex 0.614459 -3.80065 12.3
      vertex 0.123398 -3.84802 12.3
    endloop
  endfacet
  facet normal 0.0960226 -0.995379 0
    outer loop
      vertex 0.614459 -3.80065 12.3
      vertex 0.123398 -3.84802 0
      vertex 0.614459 -3.80065 0
    endloop
  endfacet
  facet normal -0.71835 -0.695682 0
    outer loop
      vertex -2.58836 -2.85007 0
      vertex -2.93157 -2.49568 12.3
      vertex -2.93157 -2.49568 0
    endloop
  endfacet
  facet normal -0.71835 -0.695682 0
    outer loop
      vertex -2.93157 -2.49568 12.3
      vertex -2.58836 -2.85007 0
      vertex -2.58836 -2.85007 12.3
    endloop
  endfacet
  facet normal 0.838088 -0.545535 0
    outer loop
      vertex 3.08544 -2.30272 12.3
      vertex 3.35458 -1.88926 0
      vertex 3.35458 -1.88926 12.3
    endloop
  endfacet
  facet normal 0.838088 -0.545535 0
    outer loop
      vertex 3.35458 -1.88926 0
      vertex 3.08544 -2.30272 12.3
      vertex 3.08544 -2.30272 0
    endloop
  endfacet
  facet normal -1 0 0
    outer loop
      vertex -3.84209 -0.24667 0
      vertex -3.84209 0.24667 12.3
      vertex -3.84209 0.24667 0
    endloop
  endfacet
  facet normal -1 -0 0
    outer loop
      vertex -3.84209 0.24667 12.3
      vertex -3.84209 -0.24667 0
      vertex -3.84209 -0.24667 12.3
    endloop
  endfacet
  facet normal -0.0320527 0.999486 0
    outer loop
      vertex 0.123398 3.84802 0
      vertex -0.369688 3.83221 12.3
      vertex 0.123398 3.84802 12.3
    endloop
  endfacet
  facet normal -0.0320527 0.999486 0
    outer loop
      vertex -0.369688 3.83221 12.3
      vertex 0.123398 3.84802 0
      vertex -0.369688 3.83221 0
    endloop
  endfacet
  facet normal -0.159598 -0.987182 0
    outer loop
      vertex -0.856705 -3.75347 0
      vertex -0.369688 -3.83221 12.3
      vertex -0.856705 -3.75347 12.3
    endloop
  endfacet
  facet normal -0.159598 -0.987182 -0
    outer loop
      vertex -0.369688 -3.83221 12.3
      vertex -0.856705 -3.75347 0
      vertex -0.369688 -3.83221 0
    endloop
  endfacet
  facet normal -0.404782 -0.914413 0
    outer loop
      vertex -1.78077 -3.41341 0
      vertex -1.32965 -3.6131 12.3
      vertex -1.78077 -3.41341 12.3
    endloop
  endfacet
  facet normal -0.404782 -0.914413 -0
    outer loop
      vertex -1.32965 -3.6131 12.3
      vertex -1.78077 -3.41341 0
      vertex -1.32965 -3.6131 0
    endloop
  endfacet
  facet normal -0.801414 -0.59811 0
    outer loop
      vertex -2.93157 -2.49568 0
      vertex -3.22664 -2.10031 12.3
      vertex -3.22664 -2.10031 0
    endloop
  endfacet
  facet normal -0.801414 -0.59811 0
    outer loop
      vertex -3.22664 -2.10031 12.3
      vertex -2.93157 -2.49568 0
      vertex -2.93157 -2.49568 12.3
    endloop
  endfacet
  facet normal 0.572116 0.820173 -0
    outer loop
      vertex 2.40044 3.01005 0
      vertex 1.99581 3.2923 12.3
      vertex 2.40044 3.01005 12.3
    endloop
  endfacet
  facet normal 0.572116 0.820173 0
    outer loop
      vertex 1.99581 3.2923 12.3
      vertex 2.40044 3.01005 0
      vertex 1.99581 3.2923 0
    endloop
  endfacet
  facet normal 0.672302 -0.740277 0
    outer loop
      vertex 2.40044 -3.01005 0
      vertex 2.76564 -2.67838 12.3
      vertex 2.40044 -3.01005 12.3
    endloop
  endfacet
  facet normal 0.672302 -0.740277 0
    outer loop
      vertex 2.76564 -2.67838 12.3
      vertex 2.40044 -3.01005 0
      vertex 2.76564 -2.67838 0
    endloop
  endfacet
  facet normal 0.0960226 0.995379 -0
    outer loop
      vertex 0.614459 3.80065 0
      vertex 0.123398 3.84802 12.3
      vertex 0.614459 3.80065 12.3
    endloop
  endfacet
  facet normal 0.0960226 0.995379 0
    outer loop
      vertex 0.123398 3.84802 12.3
      vertex 0.614459 3.80065 0
      vertex 0.123398 3.84802 0
    endloop
  endfacet
  facet normal -0.0320527 -0.999486 0
    outer loop
      vertex -0.369688 -3.83221 0
      vertex 0.123398 -3.84802 12.3
      vertex -0.369688 -3.83221 12.3
    endloop
  endfacet
  facet normal -0.0320527 -0.999486 -0
    outer loop
      vertex 0.123398 -3.84802 12.3
      vertex -0.369688 -3.83221 0
      vertex 0.123398 -3.84802 0
    endloop
  endfacet
  facet normal -0.926917 0.375266 0
    outer loop
      vertex -3.65386 1.21317 0
      vertex -3.46873 1.67045 12.3
      vertex -3.46873 1.67045 0
    endloop
  endfacet
  facet normal -0.926917 0.375266 0
    outer loop
      vertex -3.46873 1.67045 12.3
      vertex -3.65386 1.21317 0
      vertex -3.65386 1.21317 12.3
    endloop
  endfacet
  facet normal -0.518394 -0.855142 0
    outer loop
      vertex -2.20265 -3.15766 0
      vertex -1.78077 -3.41341 12.3
      vertex -2.20265 -3.15766 12.3
    endloop
  endfacet
  facet normal -0.518394 -0.855142 -0
    outer loop
      vertex -1.78077 -3.41341 12.3
      vertex -2.20265 -3.15766 0
      vertex -1.78077 -3.41341 0
    endloop
  endfacet
  facet normal -0.62349 -0.781832 0
    outer loop
      vertex -2.58836 -2.85007 0
      vertex -2.20265 -3.15766 12.3
      vertex -2.58836 -2.85007 12.3
    endloop
  endfacet
  facet normal -0.62349 -0.781832 -0
    outer loop
      vertex -2.20265 -3.15766 12.3
      vertex -2.58836 -2.85007 0
      vertex -2.20265 -3.15766 0
    endloop
  endfacet
  facet normal 0.92388 -0.382683 0
    outer loop
      vertex -1.83526 0.491755 6.3
      vertex -1.64545 0.95 -1.8
      vertex -1.64545 0.95 6.3
    endloop
  endfacet
  facet normal 0.92388 -0.382683 0
    outer loop
      vertex -1.64545 0.95 -1.8
      vertex -1.83526 0.491755 6.3
      vertex -1.83526 0.491755 -1.8
    endloop
  endfacet
  facet normal 0.991445 -0.130527 0
    outer loop
      vertex -1.9 0 6.3
      vertex -1.83526 0.491755 -1.8
      vertex -1.83526 0.491755 6.3
    endloop
  endfacet
  facet normal 0.991445 -0.130527 0
    outer loop
      vertex -1.83526 0.491755 -1.8
      vertex -1.9 0 6.3
      vertex -1.9 0 -1.8
    endloop
  endfacet
  facet normal -0.608762 -0.793353 0
    outer loop
      vertex 0.95 1.64545 -1.8
      vertex 1.3435 1.3435 6.3
      vertex 0.95 1.64545 6.3
    endloop
  endfacet
  facet normal -0.608762 -0.793353 -0
    outer loop
      vertex 1.3435 1.3435 6.3
      vertex 0.95 1.64545 -1.8
      vertex 1.3435 1.3435 -1.8
    endloop
  endfacet
  facet normal -0.382683 -0.92388 0
    outer loop
      vertex 0.491755 1.83526 -1.8
      vertex 0.95 1.64545 6.3
      vertex 0.491755 1.83526 6.3
    endloop
  endfacet
  facet normal -0.382683 -0.92388 -0
    outer loop
      vertex 0.95 1.64545 6.3
      vertex 0.491755 1.83526 -1.8
      vertex 0.95 1.64545 -1.8
    endloop
  endfacet
  facet normal 0.608762 0.793353 -0
    outer loop
      vertex -0.95 -1.64545 -1.8
      vertex -1.3435 -1.3435 6.3
      vertex -0.95 -1.64545 6.3
    endloop
  endfacet
  facet normal 0.608762 0.793353 0
    outer loop
      vertex -1.3435 -1.3435 6.3
      vertex -0.95 -1.64545 -1.8
      vertex -1.3435 -1.3435 -1.8
    endloop
  endfacet
  facet normal 0.608762 -0.793353 0
    outer loop
      vertex -1.3435 1.3435 -1.8
      vertex -0.95 1.64545 6.3
      vertex -1.3435 1.3435 6.3
    endloop
  endfacet
  facet normal 0.608762 -0.793353 0
    outer loop
      vertex -0.95 1.64545 6.3
      vertex -1.3435 1.3435 -1.8
      vertex -0.95 1.64545 -1.8
    endloop
  endfacet
  facet normal -0.991445 -0.130527 0
    outer loop
      vertex 1.9 0 -1.8
      vertex 1.83526 0.491755 6.3
      vertex 1.83526 0.491755 -1.8
    endloop
  endfacet
  facet normal -0.991445 -0.130527 0
    outer loop
      vertex 1.83526 0.491755 6.3
      vertex 1.9 0 -1.8
      vertex 1.9 0 6.3
    endloop
  endfacet
  facet normal -0.130527 0.991445 0
    outer loop
      vertex 0.491755 -1.83526 -1.8
      vertex 1.22465e-15 -1.9 6.3
      vertex 0.491755 -1.83526 6.3
    endloop
  endfacet
  facet normal -0.130527 0.991445 -1.59849e-17
    outer loop
      vertex 1.22465e-15 -1.9 6.3
      vertex 0.491755 -1.83526 -1.8
      vertex 2.21661e-15 -1.9 -1.8
    endloop
  endfacet
  facet normal 0.130527 -0.991445 0
    outer loop
      vertex -0.491755 1.83526 -1.8
      vertex 1.22465e-15 1.9 6.3
      vertex -0.491755 1.83526 6.3
    endloop
  endfacet
  facet normal 0.130527 -0.991445 1.59849e-17
    outer loop
      vertex 1.22465e-15 1.9 6.3
      vertex -0.491755 1.83526 -1.8
      vertex 2.21661e-15 1.9 -1.8
    endloop
  endfacet
  facet normal 0.382683 -0.92388 0
    outer loop
      vertex -0.95 1.64545 -1.8
      vertex -0.491755 1.83526 6.3
      vertex -0.95 1.64545 6.3
    endloop
  endfacet
  facet normal 0.382683 -0.92388 0
    outer loop
      vertex -0.491755 1.83526 6.3
      vertex -0.95 1.64545 -1.8
      vertex -0.491755 1.83526 -1.8
    endloop
  endfacet
  facet normal -0.608762 0.793353 0
    outer loop
      vertex 1.3435 -1.3435 -1.8
      vertex 0.95 -1.64545 6.3
      vertex 1.3435 -1.3435 6.3
    endloop
  endfacet
  facet normal -0.608762 0.793353 0
    outer loop
      vertex 0.95 -1.64545 6.3
      vertex 1.3435 -1.3435 -1.8
      vertex 0.95 -1.64545 -1.8
    endloop
  endfacet
  facet normal 0.793353 -0.608762 0
    outer loop
      vertex -1.64545 0.95 6.3
      vertex -1.3435 1.3435 -1.8
      vertex -1.3435 1.3435 6.3
    endloop
  endfacet
  facet normal 0.793353 -0.608762 0
    outer loop
      vertex -1.3435 1.3435 -1.8
      vertex -1.64545 0.95 6.3
      vertex -1.64545 0.95 -1.8
    endloop
  endfacet
  facet normal 0.130527 0.991445 1.59849e-17
    outer loop
      vertex 2.21661e-15 -1.9 -1.8
      vertex -0.491755 -1.83526 6.3
      vertex 1.22465e-15 -1.9 6.3
    endloop
  endfacet
  facet normal 0.130527 0.991445 0
    outer loop
      vertex -0.491755 -1.83526 6.3
      vertex 2.21661e-15 -1.9 -1.8
      vertex -0.491755 -1.83526 -1.8
    endloop
  endfacet
  facet normal 0.793353 0.608762 0
    outer loop
      vertex -1.3435 -1.3435 6.3
      vertex -1.64545 -0.95 -1.8
      vertex -1.64545 -0.95 6.3
    endloop
  endfacet
  facet normal 0.793353 0.608762 0
    outer loop
      vertex -1.64545 -0.95 -1.8
      vertex -1.3435 -1.3435 6.3
      vertex -1.3435 -1.3435 -1.8
    endloop
  endfacet
  facet normal 0.382683 0.92388 -0
    outer loop
      vertex -0.491755 -1.83526 -1.8
      vertex -0.95 -1.64545 6.3
      vertex -0.491755 -1.83526 6.3
    endloop
  endfacet
  facet normal 0.382683 0.92388 0
    outer loop
      vertex -0.95 -1.64545 6.3
      vertex -0.491755 -1.83526 -1.8
      vertex -0.95 -1.64545 -1.8
    endloop
  endfacet
  facet normal -0.793353 -0.608762 0
    outer loop
      vertex 1.64545 0.95 -1.8
      vertex 1.3435 1.3435 6.3
      vertex 1.3435 1.3435 -1.8
    endloop
  endfacet
  facet normal -0.793353 -0.608762 0
    outer loop
      vertex 1.3435 1.3435 6.3
      vertex 1.64545 0.95 -1.8
      vertex 1.64545 0.95 6.3
    endloop
  endfacet
  facet normal -0.793353 0.608762 0
    outer loop
      vertex 1.3435 -1.3435 -1.8
      vertex 1.64545 -0.95 6.3
      vertex 1.64545 -0.95 -1.8
    endloop
  endfacet
  facet normal -0.793353 0.608762 0
    outer loop
      vertex 1.64545 -0.95 6.3
      vertex 1.3435 -1.3435 -1.8
      vertex 1.3435 -1.3435 6.3
    endloop
  endfacet
  facet normal 0.991445 0.130527 0
    outer loop
      vertex -1.83526 -0.491755 6.3
      vertex -1.9 0 -1.8
      vertex -1.9 0 6.3
    endloop
  endfacet
  facet normal 0.991445 0.130527 0
    outer loop
      vertex -1.9 0 -1.8
      vertex -1.83526 -0.491755 6.3
      vertex -1.83526 -0.491755 -1.8
    endloop
  endfacet
  facet normal -0.130527 -0.991445 -1.59849e-17
    outer loop
      vertex 2.21661e-15 1.9 -1.8
      vertex 0.491755 1.83526 6.3
      vertex 1.22465e-15 1.9 6.3
    endloop
  endfacet
  facet normal -0.130527 -0.991445 -0
    outer loop
      vertex 0.491755 1.83526 6.3
      vertex 2.21661e-15 1.9 -1.8
      vertex 0.491755 1.83526 -1.8
    endloop
  endfacet
  facet normal -0.92388 0.382683 0
    outer loop
      vertex 1.64545 -0.95 -1.8
      vertex 1.83526 -0.491755 6.3
      vertex 1.83526 -0.491755 -1.8
    endloop
  endfacet
  facet normal -0.92388 0.382683 0
    outer loop
      vertex 1.83526 -0.491755 6.3
      vertex 1.64545 -0.95 -1.8
      vertex 1.64545 -0.95 6.3
    endloop
  endfacet
  facet normal -0.991445 0.130527 0
    outer loop
      vertex 1.83526 -0.491755 -1.8
      vertex 1.9 0 6.3
      vertex 1.9 0 -1.8
    endloop
  endfacet
  facet normal -0.991445 0.130527 0
    outer loop
      vertex 1.9 0 6.3
      vertex 1.83526 -0.491755 -1.8
      vertex 1.83526 -0.491755 6.3
    endloop
  endfacet
  facet normal 0.92388 0.382683 0
    outer loop
      vertex -1.64545 -0.95 6.3
      vertex -1.83526 -0.491755 -1.8
      vertex -1.83526 -0.491755 6.3
    endloop
  endfacet
  facet normal 0.92388 0.382683 0
    outer loop
      vertex -1.83526 -0.491755 -1.8
      vertex -1.64545 -0.95 6.3
      vertex -1.64545 -0.95 -1.8
    endloop
  endfacet
  facet normal -0.382683 0.92388 0
    outer loop
      vertex 0.95 -1.64545 -1.8
      vertex 0.491755 -1.83526 6.3
      vertex 0.95 -1.64545 6.3
    endloop
  endfacet
  facet normal -0.382683 0.92388 0
    outer loop
      vertex 0.491755 -1.83526 6.3
      vertex 0.95 -1.64545 -1.8
      vertex 0.491755 -1.83526 -1.8
    endloop
  endfacet
  facet normal -0.92388 -0.382683 0
    outer loop
      vertex 1.83526 0.491755 -1.8
      vertex 1.64545 0.95 6.3
      vertex 1.64545 0.95 -1.8
    endloop
  endfacet
  facet normal -0.92388 -0.382683 0
    outer loop
      vertex 1.64545 0.95 6.3
      vertex 1.83526 0.491755 -1.8
      vertex 1.83526 0.491755 6.3
    endloop
  endfacet
  facet normal 0.992709 0.120537 0
    outer loop
      vertex -1.99043 -0.490597 12.3
      vertex -2.05 0 6.3
      vertex -2.05 0 12.3
    endloop
  endfacet
  facet normal 0.992709 0.120537 0
    outer loop
      vertex -2.05 0 6.3
      vertex -1.99043 -0.490597 12.3
      vertex -1.99043 -0.490597 6.3
    endloop
  endfacet
  facet normal 0.935017 -0.354604 0
    outer loop
      vertex -1.99043 0.490597 12.3
      vertex -1.81518 0.952682 6.3
      vertex -1.81518 0.952682 12.3
    endloop
  endfacet
  facet normal 0.935017 -0.354604 0
    outer loop
      vertex -1.81518 0.952682 6.3
      vertex -1.99043 0.490597 12.3
      vertex -1.99043 0.490597 6.3
    endloop
  endfacet
  facet normal 0.992709 -0.120537 0
    outer loop
      vertex -2.05 0 12.3
      vertex -1.99043 0.490597 6.3
      vertex -1.99043 0.490597 12.3
    endloop
  endfacet
  facet normal 0.992709 -0.120537 0
    outer loop
      vertex -1.99043 0.490597 6.3
      vertex -2.05 0 12.3
      vertex -2.05 0 6.3
    endloop
  endfacet
  facet normal -0.464722 0.885457 0
    outer loop
      vertex 1.16453 -1.68712 6.3
      vertex 0.726939 -1.91678 12.3
      vertex 1.16453 -1.68712 12.3
    endloop
  endfacet
  facet normal -0.464722 0.885457 0
    outer loop
      vertex 0.726939 -1.91678 12.3
      vertex 1.16453 -1.68712 6.3
      vertex 0.726939 -1.91678 6.3
    endloop
  endfacet
  facet normal -0.992709 0.120537 0
    outer loop
      vertex 1.99043 -0.490597 6.3
      vertex 2.05 0 12.3
      vertex 2.05 0 6.3
    endloop
  endfacet
  facet normal -0.992709 0.120537 0
    outer loop
      vertex 2.05 0 12.3
      vertex 1.99043 -0.490597 6.3
      vertex 1.99043 -0.490597 12.3
    endloop
  endfacet
  facet normal -0.822983 -0.568065 0
    outer loop
      vertex 1.81518 0.952682 6.3
      vertex 1.53445 1.3594 12.3
      vertex 1.53445 1.3594 6.3
    endloop
  endfacet
  facet normal -0.822983 -0.568065 0
    outer loop
      vertex 1.53445 1.3594 12.3
      vertex 1.81518 0.952682 6.3
      vertex 1.81518 0.952682 12.3
    endloop
  endfacet
  facet normal -0.663123 -0.74851 0
    outer loop
      vertex 1.16453 1.68712 6.3
      vertex 1.53445 1.3594 12.3
      vertex 1.16453 1.68712 12.3
    endloop
  endfacet
  facet normal -0.663123 -0.74851 -0
    outer loop
      vertex 1.53445 1.3594 12.3
      vertex 1.16453 1.68712 6.3
      vertex 1.53445 1.3594 6.3
    endloop
  endfacet
  facet normal -0.239316 -0.970942 0
    outer loop
      vertex 0.2471 2.03505 6.3
      vertex 0.726939 1.91678 12.3
      vertex 0.2471 2.03505 12.3
    endloop
  endfacet
  facet normal -0.239316 -0.970942 -0
    outer loop
      vertex 0.726939 1.91678 12.3
      vertex 0.2471 2.03505 6.3
      vertex 0.726939 1.91678 6.3
    endloop
  endfacet
  facet normal 0 0 1
    outer loop
      vertex 1.9 0 6.3
      vertex 2.05 0 6.3
      vertex 1.99043 0.490597 6.3
    endloop
  endfacet
  facet normal 0 0 1
    outer loop
      vertex 2.05 0 6.3
      vertex 1.9 0 6.3
      vertex 1.99043 -0.490597 6.3
    endloop
  endfacet
  facet normal 0 0 1
    outer loop
      vertex 1.99043 0.490597 6.3
      vertex 1.83526 0.491755 6.3
      vertex 1.9 0 6.3
    endloop
  endfacet
  facet normal 0 0 1
    outer loop
      vertex 1.81518 0.952682 6.3
      vertex 1.83526 0.491755 6.3
      vertex 1.99043 0.490597 6.3
    endloop
  endfacet
  facet normal 0 0 1
    outer loop
      vertex 1.81518 0.952682 6.3
      vertex 1.64545 0.95 6.3
      vertex 1.83526 0.491755 6.3
    endloop
  endfacet
  facet normal 0 0 1
    outer loop
      vertex 1.53445 1.3594 6.3
      vertex 1.64545 0.95 6.3
      vertex 1.81518 0.952682 6.3
    endloop
  endfacet
  facet normal 0 0 1
    outer loop
      vertex 1.53445 1.3594 6.3
      vertex 1.3435 1.3435 6.3
      vertex 1.64545 0.95 6.3
    endloop
  endfacet
  facet normal 0 0 1
    outer loop
      vertex 1.16453 1.68712 6.3
      vertex 1.3435 1.3435 6.3
      vertex 1.53445 1.3594 6.3
    endloop
  endfacet
  facet normal 0 0 1
    outer loop
      vertex 1.16453 1.68712 6.3
      vertex 0.95 1.64545 6.3
      vertex 1.3435 1.3435 6.3
    endloop
  endfacet
  facet normal 0 0 1
    outer loop
      vertex 0.726939 1.91678 6.3
      vertex 0.95 1.64545 6.3
      vertex 1.16453 1.68712 6.3
    endloop
  endfacet
  facet normal 0 0 1
    outer loop
      vertex 0.726939 1.91678 6.3
      vertex 0.491755 1.83526 6.3
      vertex 0.95 1.64545 6.3
    endloop
  endfacet
  facet normal 0 0 1
    outer loop
      vertex 0.2471 2.03505 6.3
      vertex 0.491755 1.83526 6.3
      vertex 0.726939 1.91678 6.3
    endloop
  endfacet
  facet normal 0 0 1
    outer loop
      vertex 0.2471 2.03505 6.3
      vertex 1.22465e-15 1.9 6.3
      vertex 0.491755 1.83526 6.3
    endloop
  endfacet
  facet normal -0 0 1
    outer loop
      vertex -0.2471 2.03505 6.3
      vertex 1.22465e-15 1.9 6.3
      vertex 0.2471 2.03505 6.3
    endloop
  endfacet
  facet normal 0 0 1
    outer loop
      vertex -0.2471 2.03505 6.3
      vertex -0.491755 1.83526 6.3
      vertex 1.22465e-15 1.9 6.3
    endloop
  endfacet
  facet normal -0 0 1
    outer loop
      vertex -0.726939 1.91678 6.3
      vertex -0.491755 1.83526 6.3
      vertex -0.2471 2.03505 6.3
    endloop
  endfacet
  facet normal 0 0 1
    outer loop
      vertex -0.726939 1.91678 6.3
      vertex -0.95 1.64545 6.3
      vertex -0.491755 1.83526 6.3
    endloop
  endfacet
  facet normal -0 0 1
    outer loop
      vertex -1.16453 1.68712 6.3
      vertex -0.95 1.64545 6.3
      vertex -0.726939 1.91678 6.3
    endloop
  endfacet
  facet normal 0 0 1
    outer loop
      vertex -1.16453 1.68712 6.3
      vertex -1.3435 1.3435 6.3
      vertex -0.95 1.64545 6.3
    endloop
  endfacet
  facet normal -0 0 1
    outer loop
      vertex -1.53445 1.3594 6.3
      vertex -1.3435 1.3435 6.3
      vertex -1.16453 1.68712 6.3
    endloop
  endfacet
  facet normal 0 0 1
    outer loop
      vertex -1.53445 1.3594 6.3
      vertex -1.64545 0.95 6.3
      vertex -1.3435 1.3435 6.3
    endloop
  endfacet
  facet normal -0 0 1
    outer loop
      vertex -1.81518 0.952682 6.3
      vertex -1.64545 0.95 6.3
      vertex -1.53445 1.3594 6.3
    endloop
  endfacet
  facet normal 0 0 1
    outer loop
      vertex -1.81518 0.952682 6.3
      vertex -1.83526 0.491755 6.3
      vertex -1.64545 0.95 6.3
    endloop
  endfacet
  facet normal 0 0 1
    outer loop
      vertex -1.99043 0.490597 6.3
      vertex -1.83526 0.491755 6.3
      vertex -1.81518 0.952682 6.3
    endloop
  endfacet
  facet normal 0 0 1
    outer loop
      vertex -1.83526 0.491755 6.3
      vertex -1.99043 0.490597 6.3
      vertex -1.9 0 6.3
    endloop
  endfacet
  facet normal 0 0 1
    outer loop
      vertex 1.83526 -0.491755 6.3
      vertex 1.99043 -0.490597 6.3
      vertex 1.9 0 6.3
    endloop
  endfacet
  facet normal -0 0 1
    outer loop
      vertex 1.83526 -0.491755 6.3
      vertex 1.81518 -0.952682 6.3
      vertex 1.99043 -0.490597 6.3
    endloop
  endfacet
  facet normal -0 0 1
    outer loop
      vertex 1.64545 -0.95 6.3
      vertex 1.81518 -0.952682 6.3
      vertex 1.83526 -0.491755 6.3
    endloop
  endfacet
  facet normal 0 0 1
    outer loop
      vertex 1.64545 -0.95 6.3
      vertex 1.53445 -1.3594 6.3
      vertex 1.81518 -0.952682 6.3
    endloop
  endfacet
  facet normal -0 0 1
    outer loop
      vertex 1.3435 -1.3435 6.3
      vertex 1.53445 -1.3594 6.3
      vertex 1.64545 -0.95 6.3
    endloop
  endfacet
  facet normal 0 0 1
    outer loop
      vertex 1.3435 -1.3435 6.3
      vertex 1.16453 -1.68712 6.3
      vertex 1.53445 -1.3594 6.3
    endloop
  endfacet
  facet normal -0 0 1
    outer loop
      vertex 0.95 -1.64545 6.3
      vertex 1.16453 -1.68712 6.3
      vertex 1.3435 -1.3435 6.3
    endloop
  endfacet
  facet normal 0 0 1
    outer loop
      vertex 0.95 -1.64545 6.3
      vertex 0.726939 -1.91678 6.3
      vertex 1.16453 -1.68712 6.3
    endloop
  endfacet
  facet normal -0 0 1
    outer loop
      vertex 0.491755 -1.83526 6.3
      vertex 0.726939 -1.91678 6.3
      vertex 0.95 -1.64545 6.3
    endloop
  endfacet
  facet normal 0 0 1
    outer loop
      vertex 0.491755 -1.83526 6.3
      vertex 0.2471 -2.03505 6.3
      vertex 0.726939 -1.91678 6.3
    endloop
  endfacet
  facet normal -0 0 1
    outer loop
      vertex 1.22465e-15 -1.9 6.3
      vertex 0.2471 -2.03505 6.3
      vertex 0.491755 -1.83526 6.3
    endloop
  endfacet
  facet normal 0 0 1
    outer loop
      vertex 1.22465e-15 -1.9 6.3
      vertex -0.2471 -2.03505 6.3
      vertex 0.2471 -2.03505 6.3
    endloop
  endfacet
  facet normal 0 0 1
    outer loop
      vertex -0.491755 -1.83526 6.3
      vertex -0.2471 -2.03505 6.3
      vertex 1.22465e-15 -1.9 6.3
    endloop
  endfacet
  facet normal 0 0 1
    outer loop
      vertex -0.491755 -1.83526 6.3
      vertex -0.726939 -1.91678 6.3
      vertex -0.2471 -2.03505 6.3
    endloop
  endfacet
  facet normal 0 0 1
    outer loop
      vertex -0.95 -1.64545 6.3
      vertex -0.726939 -1.91678 6.3
      vertex -0.491755 -1.83526 6.3
    endloop
  endfacet
  facet normal 0 0 1
    outer loop
      vertex -0.95 -1.64545 6.3
      vertex -1.16453 -1.68712 6.3
      vertex -0.726939 -1.91678 6.3
    endloop
  endfacet
  facet normal 0 0 1
    outer loop
      vertex -1.3435 -1.3435 6.3
      vertex -1.16453 -1.68712 6.3
      vertex -0.95 -1.64545 6.3
    endloop
  endfacet
  facet normal 0 0 1
    outer loop
      vertex -1.3435 -1.3435 6.3
      vertex -1.53445 -1.3594 6.3
      vertex -1.16453 -1.68712 6.3
    endloop
  endfacet
  facet normal 0 0 1
    outer loop
      vertex -1.64545 -0.95 6.3
      vertex -1.53445 -1.3594 6.3
      vertex -1.3435 -1.3435 6.3
    endloop
  endfacet
  facet normal 0 0 1
    outer loop
      vertex -1.64545 -0.95 6.3
      vertex -1.81518 -0.952682 6.3
      vertex -1.53445 -1.3594 6.3
    endloop
  endfacet
  facet normal 0 0 1
    outer loop
      vertex -1.83526 -0.491755 6.3
      vertex -1.81518 -0.952682 6.3
      vertex -1.64545 -0.95 6.3
    endloop
  endfacet
  facet normal -0 0 1
    outer loop
      vertex -1.99043 -0.490597 6.3
      vertex -1.83526 -0.491755 6.3
      vertex -1.9 0 6.3
    endloop
  endfacet
  facet normal 0 0 1
    outer loop
      vertex -2.05 0 6.3
      vertex -1.9 0 6.3
      vertex -1.99043 0.490597 6.3
    endloop
  endfacet
  facet normal 0 0 1
    outer loop
      vertex -1.83526 -0.491755 6.3
      vertex -1.99043 -0.490597 6.3
      vertex -1.81518 -0.952682 6.3
    endloop
  endfacet
  facet normal 0 0 1
    outer loop
      vertex -1.9 0 6.3
      vertex -2.05 0 6.3
      vertex -1.99043 -0.490597 6.3
    endloop
  endfacet
  facet normal 0.239316 0.970942 -0
    outer loop
      vertex -0.2471 -2.03505 6.3
      vertex -0.726939 -1.91678 12.3
      vertex -0.2471 -2.03505 12.3
    endloop
  endfacet
  facet normal 0.239316 0.970942 0
    outer loop
      vertex -0.726939 -1.91678 12.3
      vertex -0.2471 -2.03505 6.3
      vertex -0.726939 -1.91678 6.3
    endloop
  endfacet
  facet normal 0 1 -0
    outer loop
      vertex 0.2471 -2.03505 6.3
      vertex -0.2471 -2.03505 12.3
      vertex 0.2471 -2.03505 12.3
    endloop
  endfacet
  facet normal 0 1 0
    outer loop
      vertex -0.2471 -2.03505 12.3
      vertex 0.2471 -2.03505 6.3
      vertex -0.2471 -2.03505 6.3
    endloop
  endfacet
  facet normal -0.464722 -0.885457 0
    outer loop
      vertex 0.726939 1.91678 6.3
      vertex 1.16453 1.68712 12.3
      vertex 0.726939 1.91678 12.3
    endloop
  endfacet
  facet normal -0.464722 -0.885457 -0
    outer loop
      vertex 1.16453 1.68712 12.3
      vertex 0.726939 1.91678 6.3
      vertex 1.16453 1.68712 6.3
    endloop
  endfacet
  facet normal -0.239316 0.970942 0
    outer loop
      vertex 0.726939 -1.91678 6.3
      vertex 0.2471 -2.03505 12.3
      vertex 0.726939 -1.91678 12.3
    endloop
  endfacet
  facet normal -0.239316 0.970942 0
    outer loop
      vertex 0.2471 -2.03505 12.3
      vertex 0.726939 -1.91678 6.3
      vertex 0.2471 -2.03505 6.3
    endloop
  endfacet
  facet normal 0 -1 0
    outer loop
      vertex -0.2471 2.03505 6.3
      vertex 0.2471 2.03505 12.3
      vertex -0.2471 2.03505 12.3
    endloop
  endfacet
  facet normal 0 -1 -0
    outer loop
      vertex 0.2471 2.03505 12.3
      vertex -0.2471 2.03505 6.3
      vertex 0.2471 2.03505 6.3
    endloop
  endfacet
  facet normal 0.464722 -0.885457 0
    outer loop
      vertex -1.16453 1.68712 6.3
      vertex -0.726939 1.91678 12.3
      vertex -1.16453 1.68712 12.3
    endloop
  endfacet
  facet normal 0.464722 -0.885457 0
    outer loop
      vertex -0.726939 1.91678 12.3
      vertex -1.16453 1.68712 6.3
      vertex -0.726939 1.91678 6.3
    endloop
  endfacet
  facet normal -0.663123 0.74851 0
    outer loop
      vertex 1.53445 -1.3594 6.3
      vertex 1.16453 -1.68712 12.3
      vertex 1.53445 -1.3594 12.3
    endloop
  endfacet
  facet normal -0.663123 0.74851 0
    outer loop
      vertex 1.16453 -1.68712 12.3
      vertex 1.53445 -1.3594 6.3
      vertex 1.16453 -1.68712 6.3
    endloop
  endfacet
  facet normal -0.935017 -0.354604 0
    outer loop
      vertex 1.99043 0.490597 6.3
      vertex 1.81518 0.952682 12.3
      vertex 1.81518 0.952682 6.3
    endloop
  endfacet
  facet normal -0.935017 -0.354604 0
    outer loop
      vertex 1.81518 0.952682 12.3
      vertex 1.99043 0.490597 6.3
      vertex 1.99043 0.490597 12.3
    endloop
  endfacet
  facet normal -0.935017 0.354604 0
    outer loop
      vertex 1.81518 -0.952682 6.3
      vertex 1.99043 -0.490597 12.3
      vertex 1.99043 -0.490597 6.3
    endloop
  endfacet
  facet normal -0.935017 0.354604 0
    outer loop
      vertex 1.99043 -0.490597 12.3
      vertex 1.81518 -0.952682 6.3
      vertex 1.81518 -0.952682 12.3
    endloop
  endfacet
  facet normal 0.935017 0.354604 0
    outer loop
      vertex -1.81518 -0.952682 12.3
      vertex -1.99043 -0.490597 6.3
      vertex -1.99043 -0.490597 12.3
    endloop
  endfacet
  facet normal 0.935017 0.354604 0
    outer loop
      vertex -1.99043 -0.490597 6.3
      vertex -1.81518 -0.952682 12.3
      vertex -1.81518 -0.952682 6.3
    endloop
  endfacet
  facet normal 0.663123 -0.74851 0
    outer loop
      vertex -1.53445 1.3594 6.3
      vertex -1.16453 1.68712 12.3
      vertex -1.53445 1.3594 12.3
    endloop
  endfacet
  facet normal 0.663123 -0.74851 0
    outer loop
      vertex -1.16453 1.68712 12.3
      vertex -1.53445 1.3594 6.3
      vertex -1.16453 1.68712 6.3
    endloop
  endfacet
  facet normal 0.239316 -0.970942 0
    outer loop
      vertex -0.726939 1.91678 6.3
      vertex -0.2471 2.03505 12.3
      vertex -0.726939 1.91678 12.3
    endloop
  endfacet
  facet normal 0.239316 -0.970942 0
    outer loop
      vertex -0.2471 2.03505 12.3
      vertex -0.726939 1.91678 6.3
      vertex -0.2471 2.03505 6.3
    endloop
  endfacet
  facet normal -0.822983 0.568065 0
    outer loop
      vertex 1.53445 -1.3594 6.3
      vertex 1.81518 -0.952682 12.3
      vertex 1.81518 -0.952682 6.3
    endloop
  endfacet
  facet normal -0.822983 0.568065 0
    outer loop
      vertex 1.81518 -0.952682 12.3
      vertex 1.53445 -1.3594 6.3
      vertex 1.53445 -1.3594 12.3
    endloop
  endfacet
  facet normal -0.992709 -0.120537 0
    outer loop
      vertex 2.05 0 6.3
      vertex 1.99043 0.490597 12.3
      vertex 1.99043 0.490597 6.3
    endloop
  endfacet
  facet normal -0.992709 -0.120537 0
    outer loop
      vertex 1.99043 0.490597 12.3
      vertex 2.05 0 6.3
      vertex 2.05 0 12.3
    endloop
  endfacet
  facet normal 0.464722 0.885457 -0
    outer loop
      vertex -0.726939 -1.91678 6.3
      vertex -1.16453 -1.68712 12.3
      vertex -0.726939 -1.91678 12.3
    endloop
  endfacet
  facet normal 0.464722 0.885457 0
    outer loop
      vertex -1.16453 -1.68712 12.3
      vertex -0.726939 -1.91678 6.3
      vertex -1.16453 -1.68712 6.3
    endloop
  endfacet
  facet normal 0.822983 -0.568065 0
    outer loop
      vertex -1.81518 0.952682 12.3
      vertex -1.53445 1.3594 6.3
      vertex -1.53445 1.3594 12.3
    endloop
  endfacet
  facet normal 0.822983 -0.568065 0
    outer loop
      vertex -1.53445 1.3594 6.3
      vertex -1.81518 0.952682 12.3
      vertex -1.81518 0.952682 6.3
    endloop
  endfacet
  facet normal 0.663123 0.74851 -0
    outer loop
      vertex -1.16453 -1.68712 6.3
      vertex -1.53445 -1.3594 12.3
      vertex -1.16453 -1.68712 12.3
    endloop
  endfacet
  facet normal 0.663123 0.74851 0
    outer loop
      vertex -1.53445 -1.3594 12.3
      vertex -1.16453 -1.68712 6.3
      vertex -1.53445 -1.3594 6.3
    endloop
  endfacet
  facet normal 0.822983 0.568065 0
    outer loop
      vertex -1.53445 -1.3594 12.3
      vertex -1.81518 -0.952682 6.3
      vertex -1.81518 -0.952682 12.3
    endloop
  endfacet
  facet normal 0.822983 0.568065 0
    outer loop
      vertex -1.81518 -0.952682 6.3
      vertex -1.53445 -1.3594 12.3
      vertex -1.53445 -1.3594 6.3
    endloop
  endfacet
  facet normal 0 1 -0
    outer loop
      vertex 2.1 -3.63731 -6
      vertex -2.1 -3.63731 -1.8
      vertex 2.1 -3.63731 -1.8
    endloop
  endfacet
  facet normal 0 1 0
    outer loop
      vertex -2.1 -3.63731 -1.8
      vertex 2.1 -3.63731 -6
      vertex -2.1 -3.63731 -6
    endloop
  endfacet
  facet normal -0.866025 0.5 0
    outer loop
      vertex 2.1 -3.63731 -6
      vertex 4.2 0 -1.8
      vertex 4.2 0 -6
    endloop
  endfacet
  facet normal -0.866025 0.5 0
    outer loop
      vertex 4.2 0 -1.8
      vertex 2.1 -3.63731 -6
      vertex 2.1 -3.63731 -1.8
    endloop
  endfacet
  facet normal 0 -1 0
    outer loop
      vertex -2.1 3.63731 -6
      vertex 2.1 3.63731 -1.8
      vertex -2.1 3.63731 -1.8
    endloop
  endfacet
  facet normal 0 -1 -0
    outer loop
      vertex 2.1 3.63731 -1.8
      vertex -2.1 3.63731 -6
      vertex 2.1 3.63731 -6
    endloop
  endfacet
  facet normal -0.866025 -0.5 0
    outer loop
      vertex 4.2 0 -6
      vertex 2.1 3.63731 -1.8
      vertex 2.1 3.63731 -6
    endloop
  endfacet
  facet normal -0.866025 -0.5 0
    outer loop
      vertex 2.1 3.63731 -1.8
      vertex 4.2 0 -6
      vertex 4.2 0 -1.8
    endloop
  endfacet
  facet normal 0.866025 -0.5 0
    outer loop
      vertex -4.2 0 -1.8
      vertex -2.1 3.63731 -6
      vertex -2.1 3.63731 -1.8
    endloop
  endfacet
  facet normal 0.866025 -0.5 0
    outer loop
      vertex -2.1 3.63731 -6
      vertex -4.2 0 -1.8
      vertex -4.2 0 -6
    endloop
  endfacet
  facet normal 0.866025 0.5 0
    outer loop
      vertex -2.1 -3.63731 -1.8
      vertex -4.2 0 -6
      vertex -4.2 0 -1.8
    endloop
  endfacet
  facet normal 0.866025 0.5 0
    outer loop
      vertex -4.2 0 -6
      vertex -2.1 -3.63731 -1.8
      vertex -2.1 -3.63731 -6
    endloop
  endfacet
  facet normal 0 0 -1
    outer loop
      vertex 1.64545 -0.95 -1.8
      vertex 4.2 0 -1.8
      vertex 2.1 -3.63731 -1.8
    endloop
  endfacet
  facet normal 0 0 -1
    outer loop
      vertex 1.83526 0.491755 -1.8
      vertex 4.2 0 -1.8
      vertex 1.9 0 -1.8
    endloop
  endfacet
  facet normal -0 0 -1
    outer loop
      vertex 4.2 0 -1.8
      vertex 1.83526 -0.491755 -1.8
      vertex 1.9 0 -1.8
    endloop
  endfacet
  facet normal 0 0 -1
    outer loop
      vertex 4.2 0 -1.8
      vertex 1.64545 -0.95 -1.8
      vertex 1.83526 -0.491755 -1.8
    endloop
  endfacet
  facet normal 0 0 -1
    outer loop
      vertex 2.1 -3.63731 -1.8
      vertex 1.3435 -1.3435 -1.8
      vertex 1.64545 -0.95 -1.8
    endloop
  endfacet
  facet normal 0 0 -1
    outer loop
      vertex 2.1 -3.63731 -1.8
      vertex 0.95 -1.64545 -1.8
      vertex 1.3435 -1.3435 -1.8
    endloop
  endfacet
  facet normal 0 0 -1
    outer loop
      vertex 2.1 -3.63731 -1.8
      vertex 0.491755 -1.83526 -1.8
      vertex 0.95 -1.64545 -1.8
    endloop
  endfacet
  facet normal 0 0 -1
    outer loop
      vertex 2.1 -3.63731 -1.8
      vertex 2.21661e-15 -1.9 -1.8
      vertex 0.491755 -1.83526 -1.8
    endloop
  endfacet
  facet normal 0 0 -1
    outer loop
      vertex -2.1 -3.63731 -1.8
      vertex 2.21661e-15 -1.9 -1.8
      vertex 2.1 -3.63731 -1.8
    endloop
  endfacet
  facet normal -0 0 -1
    outer loop
      vertex 2.21661e-15 -1.9 -1.8
      vertex -2.1 -3.63731 -1.8
      vertex -0.491755 -1.83526 -1.8
    endloop
  endfacet
  facet normal 0 0 -1
    outer loop
      vertex -1.64545 -0.95 -1.8
      vertex -4.2 0 -1.8
      vertex -1.83526 -0.491755 -1.8
    endloop
  endfacet
  facet normal 0 0 -1
    outer loop
      vertex -4.2 0 -1.8
      vertex -1.64545 -0.95 -1.8
      vertex -2.1 -3.63731 -1.8
    endloop
  endfacet
  facet normal -0 0 -1
    outer loop
      vertex -1.3435 -1.3435 -1.8
      vertex -2.1 -3.63731 -1.8
      vertex -1.64545 -0.95 -1.8
    endloop
  endfacet
  facet normal -0 0 -1
    outer loop
      vertex -0.95 -1.64545 -1.8
      vertex -2.1 -3.63731 -1.8
      vertex -1.3435 -1.3435 -1.8
    endloop
  endfacet
  facet normal -0 0 -1
    outer loop
      vertex -0.491755 -1.83526 -1.8
      vertex -2.1 -3.63731 -1.8
      vertex -0.95 -1.64545 -1.8
    endloop
  endfacet
  facet normal 0 0 -1
    outer loop
      vertex 1.64545 0.95 -1.8
      vertex 4.2 0 -1.8
      vertex 1.83526 0.491755 -1.8
    endloop
  endfacet
  facet normal 0 0 -1
    outer loop
      vertex 4.2 0 -1.8
      vertex 1.64545 0.95 -1.8
      vertex 2.1 3.63731 -1.8
    endloop
  endfacet
  facet normal 0 0 -1
    outer loop
      vertex 1.3435 1.3435 -1.8
      vertex 2.1 3.63731 -1.8
      vertex 1.64545 0.95 -1.8
    endloop
  endfacet
  facet normal 0 0 -1
    outer loop
      vertex 0.95 1.64545 -1.8
      vertex 2.1 3.63731 -1.8
      vertex 1.3435 1.3435 -1.8
    endloop
  endfacet
  facet normal 0 0 -1
    outer loop
      vertex 0.491755 1.83526 -1.8
      vertex 2.1 3.63731 -1.8
      vertex 0.95 1.64545 -1.8
    endloop
  endfacet
  facet normal 0 0 -1
    outer loop
      vertex 2.21661e-15 1.9 -1.8
      vertex 2.1 3.63731 -1.8
      vertex 0.491755 1.83526 -1.8
    endloop
  endfacet
  facet normal 0 0 -1
    outer loop
      vertex -2.1 3.63731 -1.8
      vertex 2.21661e-15 1.9 -1.8
      vertex -0.491755 1.83526 -1.8
    endloop
  endfacet
  facet normal 0 0 -1
    outer loop
      vertex -2.1 3.63731 -1.8
      vertex -0.491755 1.83526 -1.8
      vertex -0.95 1.64545 -1.8
    endloop
  endfacet
  facet normal 0 0 -1
    outer loop
      vertex 2.21661e-15 1.9 -1.8
      vertex -2.1 3.63731 -1.8
      vertex 2.1 3.63731 -1.8
    endloop
  endfacet
  facet normal 0 0 -1
    outer loop
      vertex -1.3435 1.3435 -1.8
      vertex -2.1 3.63731 -1.8
      vertex -0.95 1.64545 -1.8
    endloop
  endfacet
  facet normal 0 0 -1
    outer loop
      vertex -1.64545 0.95 -1.8
      vertex -2.1 3.63731 -1.8
      vertex -1.3435 1.3435 -1.8
    endloop
  endfacet
  facet normal 0 0 -1
    outer loop
      vertex -4.2 0 -1.8
      vertex -1.64545 0.95 -1.8
      vertex -1.83526 0.491755 -1.8
    endloop
  endfacet
  facet normal 0 0 -1
    outer loop
      vertex -4.2 0 -1.8
      vertex -1.83526 0.491755 -1.8
      vertex -1.9 0 -1.8
    endloop
  endfacet
  facet normal 0 0 -1
    outer loop
      vertex -1.83526 -0.491755 -1.8
      vertex -4.2 0 -1.8
      vertex -1.9 0 -1.8
    endloop
  endfacet
  facet normal -0 0 -1
    outer loop
      vertex -1.64545 0.95 -1.8
      vertex -4.2 0 -1.8
      vertex -2.1 3.63731 -1.8
    endloop
  endfacet
endsolid OpenSCAD_Model
